<svg width="16" height="16" viewBox="0 0 16 16" fill="none" xmlns="http://www.w3.org/2000/svg">
<path d="M6.50008 9.21428L12.6463 3.14616C12.6928 3.09967 12.7479 3.06279 12.8086 3.03763C12.8693 3.01246 12.9344 2.99951 13.0001 2.99951C13.0658 2.99951 13.1309 3.01246 13.1916 3.03763C13.2523 3.06279 13.3074 3.09967 13.3538 3.14616L14.8538 4.62116C14.9003 4.66759 14.9372 4.72274 14.9624 4.78343C14.9875 4.84413 15.0005 4.9092 15.0005 4.97491C15.0005 5.04061 14.9875 5.10568 14.9624 5.16638C14.9372 5.22707 14.9003 5.28222 14.8538 5.32866L6.82883 13.3537C6.78239 13.4001 6.72725 13.437 6.66655 13.4622C6.60585 13.4873 6.54079 13.5003 6.47508 13.5003C6.40937 13.5003 6.34431 13.4873 6.28361 13.4622C6.22291 13.437 6.16777 13.4001 6.12133 13.3537L1.64633 8.85366C1.55263 8.7599 1.5 8.63277 1.5 8.50022C1.5 8.36767 1.55263 8.24054 1.64633 8.14678L3.14633 6.64678C3.19277 6.60029 3.24791 6.56341 3.30861 6.53825C3.36931 6.51309 3.43437 6.50014 3.50008 6.50014C3.56579 6.50014 3.63085 6.51309 3.69155 6.53825C3.75225 6.56341 3.80739 6.60029 3.85383 6.64678L6.50008 9.21428Z" stroke="white" stroke-linecap="round" stroke-linejoin="round"/>
</svg>
