<svg width="8" height="2" viewBox="0 0 16 8" fill="none" xmlns="http://www.w3.org/2000/svg">
<path d="M5 5H12C12.2652 5 12.5196 4.89464 12.7071 4.70711C12.8946 4.51957 13 4.26522 13 4C13 3.73478 12.8946 3.48043 12.7071 3.29289C12.5196 3.10536 12.2652 3 12 3H3C2.46957 3 1.96086 3.21071 1.58579 3.58579C1.21071 3.96086 1 4.46957 1 5C1 5.53043 1.21071 6.03914 1.58579 6.41421C1.96086 6.78929 2.46957 7 3 7H12C12.7956 7 13.5587 6.68393 14.1213 6.12132C14.6839 5.55871 15 4.79565 15 4C15 3.20435 14.6839 2.44129 14.1213 1.87868C13.5587 1.31607 12.7956 1 12 1H5" stroke="#DD502E" stroke-linecap="round" stroke-linejoin="round"/>
</svg>
