<svg width="17" height="20" viewBox="0 0 17 20" fill="none" xmlns="http://www.w3.org/2000/svg">
<path d="M12 5.50034L4.18965 13.44C3.9152 13.7228 3.76301 14.1021 3.76597 14.4961C3.76894 14.8901 3.92682 15.2672 4.20551 15.5457C4.48419 15.8243 4.86128 15.982 5.2553 15.9848C5.64932 15.9876 6.02861 15.8352 6.31122 15.5607L15.6215 6.1219C16.1842 5.55923 16.5003 4.79608 16.5003 4.00034C16.5003 3.2046 16.1842 2.44145 15.6215 1.87878C15.0589 1.31611 14.2957 1 13.5 1C12.7042 1 11.9411 1.31611 11.3784 1.87878L2.06809 11.3185C1.23553 12.1647 0.771082 13.3056 0.775916 14.4928C0.78075 15.6799 1.25447 16.817 2.0939 17.6564C2.93332 18.4958 4.07044 18.9696 5.25756 18.9744C6.44467 18.9792 7.58561 18.5148 8.43184 17.6822L16.125 10.0003" stroke="#7A869A" stroke-linecap="round" stroke-linejoin="round"/>
</svg>
