<svg width="32" height="32" viewBox="0 0 32 32" fill="none" xmlns="http://www.w3.org/2000/svg">
<path d="M6.5863 12.4136C6.40053 12.2279 6.25317 12.0074 6.15264 11.7647C6.0521 11.522 6.00035 11.2619 6.00035 10.9993C6.00035 10.7366 6.0521 10.4765 6.15264 10.2338C6.25317 9.9911 6.40053 9.7706 6.5863 9.58488L14.5863 1.58488C14.9614 1.20976 15.4702 0.999023 16.0007 0.999023C16.5312 0.999023 17.0399 1.20976 17.415 1.58488C17.7902 1.95999 18.0009 2.46876 18.0009 2.99925C18.0009 3.52975 17.7902 4.03851 17.415 4.41363L9.41505 12.4136C9.22932 12.5994 9.00883 12.7468 8.76615 12.8473C8.52346 12.9478 8.26335 12.9996 8.00067 12.9996C7.73799 12.9996 7.47788 12.9478 7.2352 12.8473C6.99252 12.7468 6.77202 12.5994 6.5863 12.4136ZM30.415 14.5849C30.2293 14.3991 30.0088 14.2518 29.7661 14.1512C29.5235 14.0507 29.2634 13.9989 29.0007 13.9989C28.738 13.9989 28.4779 14.0507 28.2352 14.1512C27.9925 14.2518 27.772 14.3991 27.5863 14.5849L19.5863 22.5849C19.4005 22.7706 19.2532 22.9911 19.1526 23.2338C19.0521 23.4765 19.0003 23.7366 19.0003 23.9993C19.0003 24.2619 19.0521 24.522 19.1526 24.7647C19.2532 25.0074 19.4005 25.2279 19.5863 25.4136C19.772 25.5994 19.9925 25.7468 20.2352 25.8473C20.4779 25.9478 20.738 25.9996 21.0007 25.9996C21.2634 25.9996 21.5235 25.9478 21.7661 25.8473C22.0088 25.7468 22.2293 25.5994 22.415 25.4136L30.415 17.4136C30.6008 17.2279 30.7482 17.0074 30.8487 16.7647C30.9492 16.522 31.001 16.2619 31.001 15.9993C31.001 15.7366 30.9492 15.4765 30.8487 15.2338C30.7482 14.9911 30.6008 14.7706 30.415 14.5849ZM26.0263 12.6099L19.39 5.97363C19.3436 5.92714 19.2885 5.89026 19.2278 5.8651C19.1671 5.83993 19.102 5.82698 19.0363 5.82698C18.9706 5.82698 18.9055 5.83993 18.8448 5.8651C18.7841 5.89026 18.729 5.92714 18.6825 5.97363L10.975 13.6811C10.9286 13.7276 10.8917 13.7827 10.8665 13.8434C10.8414 13.9041 10.8284 13.9692 10.8284 14.0349C10.8284 14.1006 10.8414 14.1656 10.8665 14.2263C10.8917 14.287 10.9286 14.3422 10.975 14.3886L12.875 16.2924L3.5863 25.5861C3.22706 25.9643 3.02974 26.4678 3.03642 26.9893C3.0431 27.5108 3.25324 28.0091 3.62204 28.3779C3.99084 28.7467 4.48913 28.9568 5.01065 28.9635C5.53217 28.9702 6.03567 28.7729 6.4138 28.4136L15.7075 19.1249L17.6113 21.0286C17.6577 21.0751 17.7129 21.112 17.7736 21.1372C17.8343 21.1623 17.8993 21.1753 17.965 21.1753C18.0308 21.1753 18.0958 21.1623 18.1565 21.1372C18.2172 21.112 18.2724 21.0751 18.3188 21.0286L26.0263 13.3211C26.0734 13.2746 26.1107 13.2192 26.1362 13.1582C26.1617 13.0972 26.1748 13.0317 26.1748 12.9655C26.1748 12.8993 26.1617 12.8338 26.1362 12.7728C26.1107 12.7118 26.0734 12.6564 26.0263 12.6099Z" fill="#DD502E"/>
</svg>
