<svg  viewBox="0 0 140 140" fill="none" xmlns="http://www.w3.org/2000/svg">
<path d="M70.354 118.998C97.1819 118.998 118.93 97.2344 118.93 70.3872C118.93 43.5401 97.1819 21.7761 70.354 21.7761C43.5261 21.7761 21.7778 43.5401 21.7778 70.3872C21.7778 97.2344 43.5261 118.998 70.354 118.998Z" fill="#F1F3F9" stroke="#D6DCE8" stroke-width="2" stroke-miterlimit="10"/>
<path d="M114.664 41.7238V100.839C114.664 102.923 112.949 104.64 110.866 104.64H29.8418C27.7591 104.64 26.0439 102.923 26.0439 100.839V41.7238C26.0439 39.6396 27.7591 37.9232 29.8418 37.9232H110.866C112.949 37.9232 114.664 39.6396 114.664 41.7238Z" fill="white" stroke="#D6DCE8" stroke-width="2" stroke-miterlimit="10"/>
<path d="M114.664 41.7238V44.4823H26.0439V41.7238C26.0439 39.6396 27.7591 37.9232 29.8418 37.9232H110.866C112.949 37.9232 114.664 39.6396 114.664 41.7238Z" fill="#F1F3F9" stroke="#D6DCE8" stroke-width="2" stroke-miterlimit="10"/>
<path d="M30.0254 42.3981C30.6682 42.3981 31.1893 41.8767 31.1893 41.2334C31.1893 40.5902 30.6682 40.0687 30.0254 40.0687C29.3827 40.0687 28.8616 40.5902 28.8616 41.2334C28.8616 41.8767 29.3827 42.3981 30.0254 42.3981Z" fill="#AAB2C5"/>
<path opacity="0.6" d="M33.6397 42.3981C34.2825 42.3981 34.8036 41.8767 34.8036 41.2334C34.8036 40.5902 34.2825 40.0687 33.6397 40.0687C32.9969 40.0687 32.4758 40.5902 32.4758 41.2334C32.4758 41.8767 32.9969 42.3981 33.6397 42.3981Z" fill="#AAB2C5"/>
<path opacity="0.4" d="M37.315 42.3981C37.9578 42.3981 38.4789 41.8767 38.4789 41.2334C38.4789 40.5902 37.9578 40.0687 37.315 40.0687C36.6722 40.0687 36.1511 40.5902 36.1511 41.2334C36.1511 41.8767 36.6722 42.3981 37.315 42.3981Z" fill="#AAB2C5"/>
<path d="M63.7414 55.7437H34.0867C33.8632 55.7437 33.6396 55.52 33.6396 55.2963V53.8796C33.6396 53.6559 33.8632 53.4323 34.0867 53.4323H63.7414C63.965 53.4323 64.1885 53.6559 64.1885 53.8796V55.2963C64.114 55.5946 63.965 55.7437 63.7414 55.7437Z" fill="#AAB2C5"/>
<path d="M107.553 61.1869V95.635H33.6396V61.1869H107.553Z" stroke="#D6DCE8" stroke-width="1.5" stroke-miterlimit="10"/>
<path d="M33.8628 67.8975H107.329" stroke="#D6DCE8" stroke-width="1.5" stroke-miterlimit="10"/>
<path d="M33.8628 74.9065H107.329" stroke="#D6DCE8" stroke-width="1.5" stroke-miterlimit="10"/>
<path d="M33.8628 81.8408H107.329" stroke="#D6DCE8" stroke-width="1.5" stroke-miterlimit="10"/>
<path d="M33.8628 88.8496H107.329" stroke="#D6DCE8" stroke-width="1.5" stroke-miterlimit="10"/>
<path d="M48.6902 61.5597V95.635" stroke="#D6DCE8" stroke-width="1.5" stroke-miterlimit="10"/>
<path d="M63.5176 61.5597V95.635" stroke="#D6DCE8" stroke-width="1.5" stroke-miterlimit="10"/>
<path d="M78.4194 61.5597V95.635" stroke="#D6DCE8" stroke-width="1.5" stroke-miterlimit="10"/>
<path d="M93.2471 61.5597V95.635" stroke="#D6DCE8" stroke-width="1.5" stroke-miterlimit="10"/>
<rect x="31.9041" y="80.5615" width="78.4289" height="9.79759" rx="1" fill="#AAB2C5"/>
<rect x="34.1892" y="82.8225" width="13.5659" height="5.27562" rx="1" fill="white"/>
<rect x="50.0161" y="82.8225" width="12.8122" height="5.27562" rx="1" fill="white"/>
<rect x="65.0891" y="82.8225" width="12.8122" height="5.27562" rx="1" fill="white"/>
<rect x="80.1624" y="82.8225" width="12.8122" height="5.27562" rx="1" fill="white"/>
<rect x="95.2356" y="82.8225" width="12.8122" height="5.27562" rx="1" fill="white"/>
</svg>
