<svg width="24" height="24" viewBox="0 0 24 24" fill="none" xmlns="http://www.w3.org/2000/svg">
<g clip-path="url(#clip0_1291_107996)">
<path d="M18.75 15.75C19.1642 15.75 19.5 15.4142 19.5 15C19.5 14.5858 19.1642 14.25 18.75 14.25C18.3358 14.25 18 14.5858 18 15C18 15.4142 18.3358 15.75 18.75 15.75Z" fill="#EB6200"/>
<path d="M14.5606 22.5H11.25V19.1893L15.0253 15.414C15.0086 15.2766 15.0001 15.1384 15 15C14.9995 14.2406 15.2297 13.4989 15.6599 12.873C16.0902 12.2472 16.7004 11.7668 17.4097 11.4954C18.119 11.2239 18.894 11.1743 19.6321 11.3529C20.3703 11.5316 21.0368 11.9301 21.5435 12.4959C22.0501 13.0616 22.3731 13.7679 22.4696 14.5212C22.5661 15.2745 22.4316 16.0393 22.0839 16.7145C21.7362 17.3897 21.1917 17.9434 20.5224 18.3024C19.8532 18.6613 19.0907 18.8086 18.3359 18.7247L14.5606 22.5ZM12.75 21H13.9394L17.844 17.0953L18.2486 17.1881C18.7308 17.303 19.2373 17.2574 19.6912 17.0581C20.145 16.8589 20.5214 16.517 20.7633 16.0843C21.0051 15.6516 21.099 15.1518 21.0309 14.6609C20.9627 14.1699 20.7362 13.7146 20.3857 13.3641C20.0352 13.0136 19.5799 12.7872 19.0889 12.7191C18.5979 12.651 18.0982 12.745 17.6655 12.9868C17.2328 13.2287 16.8909 13.6051 16.6918 14.059C16.4926 14.5129 16.447 15.0194 16.5619 15.5015L16.6546 15.906L12.75 19.8107V21Z" fill="#EB6200"/>
<path d="M6 6H4.5V12H6V6Z" fill="#EB6200"/>
<path d="M3 6H1.5V12H3V6Z" fill="#EB6200"/>
<path d="M15 6H13.5V10.5H15V6Z" fill="#EB6200"/>
<path d="M10.5 12H9C8.60218 12 8.22064 11.842 7.93934 11.5607C7.65804 11.2794 7.5 10.8978 7.5 10.5V7.5C7.5 7.10218 7.65804 6.72064 7.93934 6.43934C8.22064 6.15804 8.60218 6 9 6H10.5C10.8978 6 11.2794 6.15804 11.5607 6.43934C11.842 6.72064 12 7.10218 12 7.5V10.5C12 10.8978 11.842 11.2794 11.5607 11.5607C11.2794 11.842 10.8978 12 10.5 12ZM9 10.5H10.5V7.5H9V10.5Z" fill="#EB6200"/>
<path d="M3 13.5H1.5V19.5H3V13.5Z" fill="#EB6200"/>
<path d="M12 13.5H10.5V16.5H12V13.5Z" fill="#EB6200"/>
<path d="M7.5 19.5H6C5.60218 19.5 5.22064 19.342 4.93934 19.0607C4.65804 18.7794 4.5 18.3978 4.5 18V15C4.5 14.6022 4.65804 14.2206 4.93934 13.9393C5.22064 13.658 5.60218 13.5 6 13.5H7.5C7.89782 13.5 8.27936 13.658 8.56066 13.9393C8.84196 14.2206 9 14.6022 9 15V18C9 18.3978 8.84196 18.7794 8.56066 19.0607C8.27936 19.342 7.89782 19.5 7.5 19.5ZM6 18H7.5V15H6V18Z" fill="#EB6200"/>
<path d="M3 1.5H1.5V4.5H3V1.5Z" fill="#EB6200"/>
<path d="M12 1.5H10.5V4.5H12V1.5Z" fill="#EB6200"/>
<path d="M15 1.5H13.5V4.5H15V1.5Z" fill="#EB6200"/>
<path d="M7.5 4.5H6C5.60218 4.5 5.22064 4.34196 4.93934 4.06066C4.65804 3.77936 4.5 3.39782 4.5 3V1.5H6V3H7.5V1.5H9V3C9 3.39782 8.84196 3.77936 8.56066 4.06066C8.27936 4.34196 7.89782 4.5 7.5 4.5Z" fill="#EB6200"/>
</g>
<defs>
<clipPath id="clip0_1291_107996">
<rect width="24" height="24" fill="white"/>
</clipPath>
</defs>
</svg>
