<svg width="16" height="16" viewBox="0 0 16 16" fill="none" xmlns="http://www.w3.org/2000/svg">
  <path d="M12.5 2.5V13.5" stroke="#DD502E" stroke-linecap="round" stroke-linejoin="round"/>
  <path d="M3.5 2.99171V13.0067C3.50181 13.0948 3.52684 13.1808 3.57258 13.2561C3.61831 13.3314 3.68312 13.3932 3.76044 13.4354C3.83777 13.4776 3.92486 13.4986 4.01292 13.4963C4.10097 13.494 4.18685 13.4685 4.26188 13.4223L12.2688 8.41483C12.3394 8.37091 12.3977 8.30969 12.4381 8.23697C12.4786 8.16424 12.4998 8.08241 12.4998 7.99921C12.4998 7.916 12.4786 7.83417 12.4381 7.76145C12.3977 7.68872 12.3394 7.62751 12.2688 7.58358L4.26188 2.57608C4.18685 2.52993 4.10097 2.50442 4.01292 2.50212C3.92486 2.49983 3.83777 2.52084 3.76044 2.56302C3.68312 2.6052 3.61831 2.66706 3.57258 2.74234C3.52684 2.81762 3.50181 2.90364 3.5 2.99171Z" stroke="#DD502E" stroke-linecap="round" stroke-linejoin="round"/>
</svg>
