<svg width="200" height="200" viewBox="0 0 200 200" fill="none" xmlns="http://www.w3.org/2000/svg">
<path d="M100.506 169.998C138.831 169.998 169.9 138.907 169.9 100.554C169.9 62.2008 138.831 31.1095 100.506 31.1095C62.1803 31.1095 31.1113 62.2008 31.1113 100.554C31.1113 138.907 62.1803 169.998 100.506 169.998Z" fill="#F1F3F9" stroke="#D6DCE8" stroke-width="2" stroke-miterlimit="10"/>
<path d="M152.35 163.956H49.7893C46.6389 163.956 44.0137 161.416 44.0137 158.176V42.9318C44.0137 39.7792 46.5514 37.2396 49.7893 37.2396H152.35C155.5 37.2396 158.125 39.7792 158.125 43.0194V158.176C158.125 161.329 155.587 163.956 152.35 163.956Z" fill="white" stroke="#D6DCE8" stroke-width="2" stroke-miterlimit="10"/>
<path d="M145.961 72.0056H55.477C54.4268 72.0056 53.5518 71.1299 53.5518 70.0791V52.915C53.5518 51.8641 54.4268 50.9884 55.477 50.9884H145.961C147.011 50.9884 147.886 51.8641 147.886 52.915V69.9915C147.974 71.1299 147.099 72.0056 145.961 72.0056Z" fill="#F1F3F9" stroke="#D6DCE8" stroke-width="2" stroke-miterlimit="10"/>
<path d="M63.0032 64.1242C64.4531 64.1242 65.6285 62.948 65.6285 61.497C65.6285 60.0461 64.4531 58.8699 63.0032 58.8699C61.5533 58.8699 60.3779 60.0461 60.3779 61.497C60.3779 62.948 61.5533 64.1242 63.0032 64.1242Z" fill="#AAB2C5"/>
<path d="M127.584 63.2485H74.4663C74.0287 63.2485 73.6787 62.8982 73.6787 62.4604V60.4462C73.6787 60.0084 74.0287 59.6581 74.4663 59.6581H127.584C128.022 59.6581 128.372 60.0084 128.372 60.4462V62.4604C128.372 62.8982 128.022 63.2485 127.584 63.2485Z" fill="#AAB2C5"/>
<path d="M145.961 98.9778H55.477C54.4268 98.9778 53.5518 98.102 53.5518 97.0512V79.9747C53.5518 78.9238 54.4268 78.0481 55.477 78.0481H145.961C147.011 78.0481 147.886 78.9238 147.886 79.9747V97.0512C147.974 98.102 147.099 98.9778 145.961 98.9778Z" fill="#F1F3F9" stroke="#D6DCE8" stroke-width="2" stroke-miterlimit="10"/>
<path d="M63.0032 91.0962C64.4531 91.0962 65.6285 89.92 65.6285 88.4691C65.6285 87.0181 64.4531 85.8419 63.0032 85.8419C61.5533 85.8419 60.3779 87.0181 60.3779 88.4691C60.3779 89.92 61.5533 91.0962 63.0032 91.0962Z" fill="#AAB2C5"/>
<path d="M127.584 90.3081H74.4663C74.0287 90.3081 73.6787 89.9578 73.6787 89.5199V87.5058C73.6787 87.0679 74.0287 86.7177 74.4663 86.7177H127.584C128.022 86.7177 128.372 87.0679 128.372 87.5058V89.5199C128.372 89.9578 128.022 90.3081 127.584 90.3081Z" fill="#AAB2C5"/>
<path d="M145.961 153.009H55.477C54.4268 153.009 53.5518 152.134 53.5518 151.083V134.006C53.5518 132.956 54.4268 132.08 55.477 132.08H145.961C147.011 132.08 147.886 132.956 147.886 134.006V151.083C147.974 152.134 147.099 153.009 145.961 153.009Z" fill="#F1F3F9" stroke="#D6DCE8" stroke-width="2" stroke-miterlimit="10"/>
<path d="M63.0032 145.128C64.4531 145.128 65.6285 143.952 65.6285 142.501C65.6285 141.05 64.4531 139.874 63.0032 139.874C61.5533 139.874 60.3779 141.05 60.3779 142.501C60.3779 143.952 61.5533 145.128 63.0032 145.128Z" fill="#AAB2C5"/>
<path d="M127.584 144.252H74.4663C74.0287 144.252 73.6787 143.902 73.6787 143.464V141.45C73.6787 141.012 74.0287 140.662 74.4663 140.662H127.584C128.022 140.662 128.372 141.012 128.372 141.45V143.464C128.372 143.902 128.022 144.252 127.584 144.252Z" fill="#AAB2C5"/>
<path d="M166.175 124.95H75.6908C75.1937 124.95 74.7656 124.522 74.7656 124.023V106.947C74.7656 106.447 75.1937 106.02 75.6908 106.02H166.175C166.672 106.02 167.1 106.447 167.1 106.947V124.023C167.1 124.522 166.672 124.95 166.175 124.95Z" fill="#D6DCE8" stroke="#AAB2C5" stroke-width="2" stroke-miterlimit="10"/>
<path d="M83.2171 118.156C84.667 118.156 85.8423 116.98 85.8423 115.529C85.8423 114.078 84.667 112.902 83.2171 112.902C81.7672 112.902 80.5918 114.078 80.5918 115.529C80.5918 116.98 81.7672 118.156 83.2171 118.156Z" fill="#AAB2C5"/>
<path d="M147.798 117.28H94.6802C94.2426 117.28 93.8926 116.93 93.8926 116.492V114.478C93.8926 114.04 94.2426 113.69 94.6802 113.69H147.798C148.236 113.69 148.586 114.04 148.586 114.478V116.492C148.586 116.93 148.236 117.28 147.798 117.28Z" fill="#AAB2C5"/>
</svg>
