<svg width="140" height="140" viewBox="0 0 140 140" fill="none" xmlns="http://www.w3.org/2000/svg">
<path d="M70.3535 118.999C97.1814 118.999 118.93 97.2347 118.93 70.3875C118.93 43.5403 97.1814 21.7764 70.3535 21.7764C43.5256 21.7764 21.7773 43.5403 21.7773 70.3875C21.7773 97.2347 43.5256 118.999 70.3535 118.999Z" fill="#F1F3F9" stroke="#D6DCE8" stroke-width="2" stroke-miterlimit="10"/>
<path d="M106.644 114.77H34.8515C32.6463 114.77 30.8086 112.992 30.8086 110.724V30.0529C30.8086 27.8461 32.585 26.0684 34.8515 26.0684H106.644C108.849 26.0684 110.687 27.8461 110.687 30.1142V110.724C110.687 112.931 108.91 114.77 106.644 114.77Z" fill="white" stroke="#D6DCE8" stroke-width="2" stroke-miterlimit="10"/>
<path d="M102.171 50.4044H38.832C38.0969 50.4044 37.4844 49.7914 37.4844 49.0558V37.041C37.4844 36.3054 38.0969 35.6924 38.832 35.6924H102.171C102.906 35.6924 103.519 36.3054 103.519 37.041V48.9945C103.58 49.7914 102.967 50.4044 102.171 50.4044Z" fill="#F1F3F9" stroke="#D6DCE8" stroke-width="2" stroke-miterlimit="10"/>
<path d="M44.0994 44.887C45.1143 44.887 45.9371 44.0636 45.9371 43.048C45.9371 42.0323 45.1143 41.209 44.0994 41.209C43.0845 41.209 42.2617 42.0323 42.2617 43.048C42.2617 44.0636 43.0845 44.887 44.0994 44.887Z" fill="#AAB2C5"/>
<path d="M89.308 44.2741H52.1255C51.8192 44.2741 51.5742 44.0289 51.5742 43.7224V42.3124C51.5742 42.0059 51.8192 41.7607 52.1255 41.7607H89.308C89.6143 41.7607 89.8593 42.0059 89.8593 42.3124V43.7224C89.8593 44.0289 89.6143 44.2741 89.308 44.2741Z" fill="#AAB2C5"/>
<path d="M102.171 69.2846H38.832C38.0969 69.2846 37.4844 68.6716 37.4844 67.9359V55.9824C37.4844 55.2468 38.0969 54.6338 38.832 54.6338H102.171C102.906 54.6338 103.519 55.2468 103.519 55.9824V67.9359C103.58 68.6716 102.967 69.2846 102.171 69.2846Z" fill="#F1F3F9" stroke="#D6DCE8" stroke-width="2" stroke-miterlimit="10"/>
<path d="M44.0994 63.7679C45.1143 63.7679 45.9371 62.9445 45.9371 61.9289C45.9371 60.9132 45.1143 60.0898 44.0994 60.0898C43.0845 60.0898 42.2617 60.9132 42.2617 61.9289C42.2617 62.9445 43.0845 63.7679 44.0994 63.7679Z" fill="#AAB2C5"/>
<path d="M89.308 63.2155H52.1255C51.8192 63.2155 51.5742 62.9703 51.5742 62.6638V61.2539C51.5742 60.9474 51.8192 60.7021 52.1255 60.7021H89.308C89.6143 60.7021 89.8593 60.9474 89.8593 61.2539V62.6638C89.8593 62.9703 89.6143 63.2155 89.308 63.2155Z" fill="#AAB2C5"/>
<path d="M102.171 107.108H38.832C38.0969 107.108 37.4844 106.495 37.4844 105.759V93.8056C37.4844 93.07 38.0969 92.457 38.832 92.457H102.171C102.906 92.457 103.519 93.07 103.519 93.8056V105.759C103.58 106.495 102.967 107.108 102.171 107.108Z" fill="#F1F3F9" stroke="#D6DCE8" stroke-width="2" stroke-miterlimit="10"/>
<path d="M44.0994 101.591C45.1143 101.591 45.9371 100.768 45.9371 99.7521C45.9371 98.7364 45.1143 97.9131 44.0994 97.9131C43.0845 97.9131 42.2617 98.7364 42.2617 99.7521C42.2617 100.768 43.0845 101.591 44.0994 101.591Z" fill="#AAB2C5"/>
<path d="M89.308 100.978H52.1255C51.8192 100.978 51.5742 100.733 51.5742 100.426V99.0165C51.5742 98.71 51.8192 98.4648 52.1255 98.4648H89.308C89.6143 98.4648 89.8593 98.71 89.8593 99.0165V100.426C89.8593 100.733 89.6143 100.978 89.308 100.978Z" fill="#AAB2C5"/>
<path d="M116.323 87.1654H52.9844C52.8022 87.1654 52.6367 87.0008 52.6367 86.8168V74.8633C52.6367 74.6793 52.8022 74.5146 52.9844 74.5146H116.323C116.505 74.5146 116.671 74.6793 116.671 74.8633V86.8168C116.671 87.0008 116.505 87.1654 116.323 87.1654Z" fill="#D6DCE8" stroke="#AAB2C5" stroke-width="2" stroke-miterlimit="10"/>
<path d="M58.2537 82.7093C59.2686 82.7093 60.0914 81.8859 60.0914 80.8703C60.0914 79.8546 59.2686 79.0312 58.2537 79.0312C57.2388 79.0312 56.416 79.8546 56.416 80.8703C56.416 81.8859 57.2388 82.7093 58.2537 82.7093Z" fill="#AAB2C5"/>
<path d="M103.46 82.0963H66.2779C65.9716 82.0963 65.7266 81.8511 65.7266 81.5446V80.1347C65.7266 79.8282 65.9716 79.583 66.2779 79.583H103.46C103.767 79.583 104.012 79.8282 104.012 80.1347V81.5446C104.012 81.8511 103.767 82.0963 103.46 82.0963Z" fill="#AAB2C5"/>
</svg>
