<svg width="140" height="140" viewBox="0 0 140 140" fill="none" xmlns="http://www.w3.org/2000/svg">
  <path d="M70.3535 119C97.1814 119 118.93 97.2356 118.93 70.3885C118.93 43.5413 97.1814 21.7773 70.3535 21.7773C43.5256 21.7773 21.7773 43.5413 21.7773 70.3885C21.7773 97.2356 43.5256 119 70.3535 119Z" fill="#F1F3F9" stroke="#D6DCE8" stroke-width="2" stroke-miterlimit="10"/>
  <path d="M112.163 105.743H28.2353C26.1438 105.743 24.4277 104.051 24.4277 101.989V37.9064C24.4277 35.8443 26.1438 34.1523 28.2353 34.1523H112.163C114.254 34.1523 115.97 35.8443 115.97 37.9064V101.989C115.97 104.051 114.254 105.743 112.163 105.743Z" fill="white" stroke="#D6DCE8" stroke-width="2" stroke-miterlimit="10"/>
  <path d="M108.248 80.8939H31.6137C30.3803 80.8939 29.3613 79.8743 29.3613 78.64V55.4024C29.3613 54.1681 30.3803 53.1484 31.6137 53.1484H108.248C109.481 53.1484 110.5 54.1681 110.5 55.4024V78.5863C110.5 79.8743 109.481 80.8939 108.248 80.8939Z" fill="#F1F3F9"/>
  <mask id="mask0_7004_43473" style="mask-type:alpha" maskUnits="userSpaceOnUse" x="29" y="53" width="82" height="28">
    <path d="M108.248 80.8939H31.6137C30.3803 80.8939 29.3613 79.8743 29.3613 78.64V55.4024C29.3613 54.1681 30.3803 53.1484 31.6137 53.1484H108.248C109.481 53.1484 110.5 54.1681 110.5 55.4024V78.5863C110.5 79.8743 109.481 80.8939 108.248 80.8939Z" fill="#F1F3F9"/>
  </mask>
  <g mask="url(#mask0_7004_43473)">
    <path d="M97.3067 82.5041H42.5527V59.6423C42.5527 58.7836 43.2499 58.0859 44.1079 58.0859H95.7515C96.6095 58.0859 97.3067 58.7836 97.3067 59.6423V82.5041Z" fill="white" stroke="#D6DCE8" stroke-width="2" stroke-miterlimit="10"/>
  </g>
  <path fill-rule="evenodd" clip-rule="evenodd" d="M50.4375 66.9976C50.4375 66.7012 50.6776 66.4609 50.9738 66.4609H64.7025C64.9987 66.4609 65.2388 66.7012 65.2388 66.9976C65.2388 67.294 64.9987 67.5343 64.7025 67.5343H50.9738C50.6776 67.5343 50.4375 67.294 50.4375 66.9976Z" fill="#AAB2C5"/>
  <path fill-rule="evenodd" clip-rule="evenodd" d="M50.4375 70.4859C50.4375 70.1895 50.6776 69.9492 50.9738 69.9492H60.2514C60.5476 69.9492 60.7877 70.1895 60.7877 70.4859C60.7877 70.7823 60.5476 71.0225 60.2514 71.0225H50.9738C50.6776 71.0225 50.4375 70.7823 50.4375 70.4859Z" fill="#AAB2C5"/>
  <path fill-rule="evenodd" clip-rule="evenodd" d="M50.4375 73.4898C50.4375 73.1934 50.6776 72.9531 50.9738 72.9531H88.5668C88.863 72.9531 89.1031 73.1934 89.1031 73.4898C89.1031 73.7862 88.863 74.0265 88.5668 74.0265H50.9738C50.6776 74.0265 50.4375 73.7862 50.4375 73.4898Z" fill="#AAB2C5"/>
  <path fill-rule="evenodd" clip-rule="evenodd" d="M50.4375 76.6031C50.4375 76.3067 50.6776 76.0664 50.9738 76.0664H88.5668C88.863 76.0664 89.1031 76.3067 89.1031 76.6031C89.1031 76.8995 88.863 77.1397 88.5668 77.1397H50.9738C50.6776 77.1397 50.4375 76.8995 50.4375 76.6031Z" fill="#AAB2C5"/>
  <path fill-rule="evenodd" clip-rule="evenodd" d="M50.4375 79.7164C50.4375 79.42 50.6776 79.1797 50.9738 79.1797H88.5668C88.863 79.1797 89.1031 79.42 89.1031 79.7164C89.1031 80.0127 88.863 80.253 88.5668 80.253H50.9738C50.6776 80.253 50.4375 80.0127 50.4375 79.7164Z" fill="#AAB2C5"/>
  <path d="M90.7651 46.0121H43.7335C43.09 46.0121 42.5537 45.5873 42.5537 45.0775V43.5908C42.5537 43.081 43.09 42.6562 43.7335 42.6562H90.7651C91.4086 42.6562 91.9449 43.081 91.9449 43.5908V45.0775C91.9985 45.5873 91.4622 46.0121 90.7651 46.0121Z" fill="#AAB2C5"/>
  <path d="M109.642 91.0403H43.4117C42.929 91.0403 42.5 90.7695 42.5 90.3826V89.4155C42.5 89.0673 42.8754 88.7578 43.4117 88.7578H109.588C110.071 88.7578 110.5 89.0286 110.5 89.4155V90.3826C110.5 90.7695 110.125 91.0403 109.642 91.0403Z" fill="#AAB2C5"/>
  <path d="M87.011 97.7473H43.4117C42.929 97.7473 42.5 97.4765 42.5 97.0897V96.1225C42.5 95.7743 42.8754 95.4648 43.4117 95.4648H86.9574C87.4401 95.4648 87.8691 95.7356 87.8691 96.1225V97.0897C87.8691 97.4378 87.4937 97.7473 87.011 97.7473Z" fill="#AAB2C5"/>
  <path d="M36.6011 48.2663H30.6484C29.9512 48.2663 29.3613 47.676 29.3613 46.9783V40.9677C29.3613 40.27 29.9512 39.6797 30.6484 39.6797H36.6011C37.2982 39.6797 37.8881 40.27 37.8881 40.9677V46.9246C37.8881 47.676 37.2982 48.2663 36.6011 48.2663Z" fill="#F1F3F9"/>
  <path d="M34.1878 97.7459C31.5064 97.7459 29.3613 95.5992 29.3613 92.9159C29.3613 90.2326 31.5064 88.0859 34.1878 88.0859C36.8692 88.0859 39.0143 90.2326 39.0143 92.9159C39.0143 95.5456 36.8692 97.7459 34.1878 97.7459Z" fill="#D6DCE8"/>
  <path d="M37.0838 95.3877C36.333 94.6364 35.6358 94.207 34.1879 94.207C32.6863 94.207 32.0428 94.69 31.292 95.3877C31.9892 96.1927 33.0617 96.7293 34.2415 96.7293C35.3141 96.7293 36.2794 96.3 36.9765 95.6024C36.9765 95.5487 37.0838 95.495 37.0838 95.3877C37.0838 95.3877 37.1374 95.3877 37.0838 95.3877Z" fill="white"/>
  <path d="M34.1879 93.2942C35.0765 93.2942 35.7968 92.5734 35.7968 91.6842C35.7968 90.795 35.0765 90.0742 34.1879 90.0742C33.2994 90.0742 32.5791 90.795 32.5791 91.6842C32.5791 92.5734 33.2994 93.2942 34.1879 93.2942Z" fill="white"/>
  <path fill-rule="evenodd" clip-rule="evenodd" d="M36.226 42.1214H30.8096V41.3164H36.226V42.1214Z" fill="#AAB2C5"/>
  <path fill-rule="evenodd" clip-rule="evenodd" d="M36.226 44.2698H30.8096V43.4648H36.226V44.2698Z" fill="#AAB2C5"/>
  <path fill-rule="evenodd" clip-rule="evenodd" d="M34.5099 46.4144H30.8096V45.6094H34.5099V46.4144Z" fill="#AAB2C5"/>
</svg>
