<svg width="140" height="140" viewBox="0 0 140 140" fill="none" xmlns="http://www.w3.org/2000/svg">
  <path d="M75.0253 120.552C101.81 120.552 123.524 98.8379 123.524 71.9578C123.524 45.0778 101.714 23.3633 75.0253 23.3633C48.2409 23.3633 26.5264 45.0778 26.5264 71.9578C26.5264 98.8379 48.2409 120.552 75.0253 120.552Z" fill="#F1F3F9" stroke="#D6DCE8" stroke-width="2" stroke-miterlimit="10"/>
  <path d="M120.367 40.1018C122.533 40.1018 124.289 38.3459 124.289 36.1798C124.289 34.0138 122.533 32.2578 120.367 32.2578C118.201 32.2578 116.445 34.0138 116.445 36.1798C116.445 38.3459 118.201 40.1018 120.367 40.1018Z" fill="#F1F3F9"/>
  <path d="M126.106 24.7983C127.585 24.7983 128.785 23.5991 128.785 22.1198C128.785 20.6406 127.585 19.4414 126.106 19.4414C124.627 19.4414 123.428 20.6406 123.428 22.1198C123.428 23.5991 124.627 24.7983 126.106 24.7983Z" fill="#F1F3F9"/>
  <path d="M29.1091 40.0092C30.5884 40.0092 31.7875 38.81 31.7875 37.3308C31.7875 35.8515 30.5884 34.6523 29.1091 34.6523C27.6298 34.6523 26.4307 35.8515 26.4307 37.3308C26.4307 38.81 27.6298 40.0092 29.1091 40.0092Z" fill="#F1F3F9"/>
  <path d="M12.7516 91.6633C15.4988 91.6633 17.7258 89.4363 17.7258 86.6891C17.7258 83.9419 15.4988 81.7148 12.7516 81.7148C10.0044 81.7148 7.77734 83.9419 7.77734 86.6891C7.77734 89.4363 10.0044 91.6633 12.7516 91.6633Z" fill="#F1F3F9"/>
  <path d="M108.026 47.66L108.792 109.264C108.792 111.369 107.07 112.995 104.965 112.995H44.8918C42.7873 112.995 41.0654 111.273 41.0654 109.264V30.0588C41.0654 27.9543 42.7873 26.3281 44.8918 26.3281H88.4164L108.026 47.66Z" fill="white" stroke="#D6DCE8" stroke-width="2" stroke-miterlimit="10"/>
  <path d="M79.9987 39.241H51.2055C50.5359 39.241 49.9619 38.6671 49.9619 37.9975C49.9619 37.3279 50.5359 36.7539 51.2055 36.7539H79.9987C80.6683 36.7539 81.2423 37.3279 81.2423 37.9975C81.2423 38.6671 80.6683 39.241 79.9987 39.241Z" fill="#D6DCE8"/>
  <path d="M62.3019 46.1317H51.2055C50.5359 46.1317 49.9619 45.5577 49.9619 44.8881C49.9619 44.2185 50.5359 43.6445 51.2055 43.6445H62.2062C62.8758 43.6445 63.4498 44.2185 63.4498 44.8881C63.4498 45.5577 62.8758 46.1317 62.3019 46.1317Z" fill="#D6DCE8"/>
  <path d="M62.3019 102.096H51.2055C50.5359 102.096 49.9619 101.523 49.9619 100.853C49.9619 100.183 50.5359 99.6094 51.2055 99.6094H62.2062C62.8758 99.6094 63.4498 100.183 63.4498 100.853C63.4498 101.523 62.8758 102.096 62.3019 102.096Z" fill="#D6DCE8"/>
  <path d="M88.417 26.3281V43.3553C88.417 45.7468 90.5215 47.66 92.9129 47.66H108.027" fill="#D6DCE8"/>
  <rect x="50.625" y="55.2734" width="48.3929" height="37.4788" rx="2.25" stroke="#D6DCE8" stroke-width="1.5"/>
  <path d="M50.2656 64.2656H98.9892" stroke="#D6DCE8" stroke-width="1.5"/>
  <path d="M50.2656 74.0117H98.9892" stroke="#D6DCE8" stroke-width="1.5"/>
  <path d="M50.2656 83.7578H98.9892" stroke="#D6DCE8" stroke-width="1.5"/>
  <path d="M81.8379 54.5234L81.8379 93.1125" stroke="#D6DCE8" stroke-width="1.5"/>
  <path d="M54.5518 59.1992H73.2616" stroke="#D6DCE8" stroke-width="2" stroke-linecap="round"/>
  <path d="M85.7354 59.1992H90.4128" stroke="#D6DCE8" stroke-width="2" stroke-linecap="round"/>
  <path d="M54.5518 68.5547H73.2616" stroke="#D6DCE8" stroke-width="2" stroke-linecap="round"/>
  <path d="M85.7354 68.5547H90.4128" stroke="#D6DCE8" stroke-width="2" stroke-linecap="round"/>
  <path d="M54.5518 78.6875H73.2616" stroke="#D6DCE8" stroke-width="2" stroke-linecap="round"/>
  <path d="M85.7354 78.6875H90.4128" stroke="#D6DCE8" stroke-width="2" stroke-linecap="round"/>
  <path d="M54.5518 88.043H73.2616" stroke="#D6DCE8" stroke-width="2" stroke-linecap="round"/>
  <path d="M85.7354 88.043H90.4128" stroke="#D6DCE8" stroke-width="2" stroke-linecap="round"/>
  <path d="M132.295 70.4484V109.008C132.295 110.962 130.697 112.526 128.744 112.526H99.2329C97.2797 112.526 95.6816 110.927 95.6816 109.008V70.4484C95.6816 68.4938 97.2797 66.8945 99.2329 66.8945H128.78C130.697 66.8945 132.295 68.4938 132.295 70.4484Z" fill="#F1F3F9" stroke="#AAB2C5" stroke-width="1.78995" stroke-miterlimit="10" stroke-linejoin="round"/>
  <path d="M132.295 70.4484V79.8951C132.295 80.3894 131.895 80.79 131.4 80.79H96.5766C96.0823 80.79 95.6816 80.3894 95.6816 79.8951V70.4484C95.6816 68.4938 97.2797 66.8945 99.2329 66.8945H128.78C130.697 66.8945 132.295 68.4938 132.295 70.4484Z" fill="#D6DCE8" stroke="#AAB2C5" stroke-width="1.78995" stroke-miterlimit="10" stroke-linejoin="round"/>
  <path d="M103.743 87.6506H99.8014C99.2332 87.6506 98.7715 87.1886 98.7715 86.62V84.8431C98.7715 84.2745 99.2332 83.8125 99.8014 83.8125H103.743C104.311 83.8125 104.773 84.2745 104.773 84.8431V86.62C104.773 87.1886 104.311 87.6506 103.743 87.6506Z" fill="#D6DCE8"/>
  <path d="M111.91 87.6506H107.968C107.4 87.6506 106.938 87.1886 106.938 86.62V84.8431C106.938 84.2745 107.4 83.8125 107.968 83.8125H111.91C112.478 83.8125 112.94 84.2745 112.94 84.8431V86.62C112.94 87.1886 112.478 87.6506 111.91 87.6506Z" fill="#D6DCE8"/>
  <path d="M120.115 87.6506H116.137C115.569 87.6506 115.107 87.1886 115.107 86.62V84.8431C115.107 84.2745 115.569 83.8125 116.137 83.8125H120.079C120.647 83.8125 121.109 84.2745 121.109 84.8431V86.62C121.109 87.1886 120.647 87.6506 120.115 87.6506Z" fill="#D6DCE8"/>
  <path d="M128.282 87.6506H124.34C123.772 87.6506 123.311 87.1886 123.311 86.62V84.8431C123.311 84.2745 123.772 83.8125 124.34 83.8125H128.282C128.851 83.8125 129.312 84.2745 129.312 84.8431V86.62C129.277 87.1886 128.851 87.6506 128.282 87.6506Z" fill="#D6DCE8"/>
  <path d="M103.743 94.0803H99.8014C99.2332 94.0803 98.7715 93.6183 98.7715 93.0497V91.2728C98.7715 90.7042 99.2332 90.2422 99.8014 90.2422H103.743C104.311 90.2422 104.773 90.7042 104.773 91.2728V93.0497C104.773 93.6183 104.311 94.0803 103.743 94.0803Z" fill="#D6DCE8"/>
  <path d="M111.91 94.0803H107.968C107.4 94.0803 106.938 93.6183 106.938 93.0497V91.2728C106.938 90.7042 107.4 90.2422 107.968 90.2422H111.91C112.478 90.2422 112.94 90.7042 112.94 91.2728V93.0497C112.94 93.6183 112.478 94.0803 111.91 94.0803Z" fill="#D6DCE8"/>
  <path d="M120.115 94.0803H116.137C115.569 94.0803 115.107 93.6183 115.107 93.0497V91.2728C115.107 90.7042 115.569 90.2422 116.137 90.2422H120.079C120.647 90.2422 121.109 90.7042 121.109 91.2728V93.0497C121.109 93.6183 120.647 94.0803 120.115 94.0803Z" fill="#D6DCE8"/>
  <path d="M128.282 94.0803H124.34C123.772 94.0803 123.311 93.6183 123.311 93.0497V91.2728C123.311 90.7042 123.772 90.2422 124.34 90.2422H128.282C128.851 90.2422 129.312 90.7042 129.312 91.2728V93.0497C129.277 93.6183 128.851 94.0803 128.282 94.0803Z" fill="#D6DCE8"/>
  <path d="M103.743 100.479H99.8014C99.2332 100.479 98.7715 100.017 98.7715 99.4482V97.6712C98.7715 97.1026 99.2332 96.6406 99.8014 96.6406H103.743C104.311 96.6406 104.773 97.1026 104.773 97.6712V99.4482C104.773 100.052 104.311 100.479 103.743 100.479Z" fill="#D6DCE8"/>
  <path d="M111.91 100.479H107.968C107.4 100.479 106.938 100.017 106.938 99.4482V97.6712C106.938 97.1026 107.4 96.6406 107.968 96.6406H111.91C112.478 96.6406 112.94 97.1026 112.94 97.6712V99.4482C112.94 100.052 112.478 100.479 111.91 100.479Z" fill="#D6DCE8"/>
  <path d="M120.115 100.479H116.137C115.569 100.479 115.107 100.017 115.107 99.4482V97.6712C115.107 97.1026 115.569 96.6406 116.137 96.6406H120.079C120.647 96.6406 121.109 97.1026 121.109 97.6712V99.4482C121.109 100.052 120.647 100.479 120.115 100.479Z" fill="#D6DCE8"/>
  <path d="M129.277 97.7064V105.916C129.277 106.484 128.815 106.946 128.282 106.946H124.34C123.772 106.946 123.311 106.484 123.311 105.916V97.7064C123.311 97.1378 123.772 96.6758 124.34 96.6758H128.282C128.851 96.6758 129.277 97.1378 129.277 97.7064Z" fill="#D6DCE8"/>
  <path d="M103.743 106.912H99.8014C99.2332 106.912 98.7715 106.45 98.7715 105.882V104.105C98.7715 103.536 99.2332 103.074 99.8014 103.074H103.743C104.311 103.074 104.773 103.536 104.773 104.105V105.882C104.773 106.486 104.311 106.912 103.743 106.912Z" fill="#D6DCE8"/>
  <path d="M111.91 106.912H107.968C107.4 106.912 106.938 106.45 106.938 105.882V104.105C106.938 103.536 107.4 103.074 107.968 103.074H111.91C112.478 103.074 112.94 103.536 112.94 104.105V105.882C112.94 106.486 112.478 106.912 111.91 106.912Z" fill="#D6DCE8"/>
  <path d="M120.115 106.912H116.137C115.569 106.912 115.107 106.45 115.107 105.882V104.105C115.107 103.536 115.569 103.074 116.137 103.074H120.079C120.647 103.074 121.109 103.536 121.109 104.105V105.882C121.109 106.486 120.647 106.912 120.115 106.912Z" fill="#D6DCE8"/>
  <path d="M127.608 77.451H100.476C99.5528 77.451 98.7715 76.7047 98.7715 75.7451V71.7293C98.7715 70.8053 99.5173 70.0234 100.476 70.0234H127.608C128.531 70.0234 129.313 70.7697 129.313 71.7293V75.7451C129.277 76.6691 128.531 77.451 127.608 77.451Z" fill="white" stroke="#AAB2C5" stroke-width="1.78995" stroke-miterlimit="10" stroke-linejoin="round"/>
  <path d="M115.995 74.5347H126.152C126.649 74.5347 127.04 74.1438 127.04 73.6463C127.04 73.1487 126.649 72.7578 126.152 72.7578H115.995C115.498 72.7578 115.107 73.1487 115.107 73.6463C115.143 74.1438 115.534 74.5347 115.995 74.5347Z" fill="#D6DCE8"/>
</svg>
