<svg width="24" height="25" viewBox="0 0 24 25" fill="none" xmlns="http://www.w3.org/2000/svg">
<path d="M12 5.86377C9.65625 5.86377 7.53125 7.11377 6.34375 9.11377C5.1875 11.145 5.1875 13.6138 6.34375 15.6138C7.53125 17.645 9.65625 18.8638 12 18.8638C14.3125 18.8638 16.4375 17.645 17.625 15.6138C18.7812 13.6138 18.7812 11.145 17.625 9.11377C16.4375 7.11377 14.3125 5.86377 12 5.86377ZM12 20.3638C9.125 20.3638 6.5 18.8638 5.0625 16.3638C3.625 13.895 3.625 10.8638 5.0625 8.36377C6.5 5.89502 9.125 4.36377 12 4.36377C14.8438 4.36377 17.4688 5.89502 18.9062 8.36377C20.3438 10.8638 20.3438 13.895 18.9062 16.3638C17.4688 18.8638 14.8438 20.3638 12 20.3638ZM12 8.36377C12.4062 8.36377 12.75 8.70752 12.75 9.11377V12.6138C12.75 13.0513 12.4062 13.3638 12 13.3638C11.5625 13.3638 11.25 13.0513 11.25 12.6138V9.11377C11.25 8.70752 11.5625 8.36377 12 8.36377ZM13 15.3638C13 15.9263 12.5312 16.3638 12 16.3638C11.4375 16.3638 11 15.9263 11 15.3638C11 14.8325 11.4375 14.3638 12 14.3638C12.5312 14.3638 13 14.8325 13 15.3638Z" fill="white"/>
</svg>
