<svg width="24" height="24" viewBox="0 0 24 24" fill="none" xmlns="http://www.w3.org/2000/svg">
<path fill-rule="evenodd" clip-rule="evenodd" d="M6.39713 0H14.4211L21.2217 7.08846V20.8756C21.2217 22.6027 19.8244 24 18.1033 24H6.39713C4.67 24 3.27271 22.6027 3.27271 20.8756V3.12443C3.27267 1.3973 4.66997 0 6.39713 0Z" fill="#72BF44"/>
<path opacity="0.302" fill-rule="evenodd" clip-rule="evenodd" d="M14.415 0V7.03449H21.2216L14.415 0Z" fill="white"/>
<path d="M14.506 13.5608H15.7631L16.6192 16.2727L17.4813 13.5608H18.7324L17.17 17.8471H16.0685L14.506 13.5608Z" fill="white"/>
<path d="M10.8873 16.5061H12.0248C12.0248 16.6339 12.0826 16.7416 12.1984 16.8294C12.3181 16.9132 12.4718 16.9551 12.6593 16.9551C12.8429 16.9551 12.9826 16.9252 13.0784 16.8653C13.1742 16.8055 13.2221 16.7276 13.2221 16.6319C13.2221 16.5281 13.1702 16.4383 13.0664 16.3625C12.9666 16.2866 12.7631 16.2128 12.4558 16.141C11.9449 16.0212 11.5758 15.8636 11.3483 15.668C11.1248 15.4685 11.013 15.1891 11.013 14.8299C11.013 14.4228 11.1647 14.0976 11.468 13.8541C11.7753 13.6107 12.1764 13.489 12.6713 13.489C13.1382 13.489 13.5274 13.6047 13.8387 13.8362C14.154 14.0676 14.3196 14.3929 14.3355 14.812H13.1921C13.1841 14.7002 13.1343 14.6124 13.0425 14.5486C12.9507 14.4847 12.8349 14.4528 12.6952 14.4528C12.5516 14.4528 12.4378 14.4767 12.354 14.5246C12.2702 14.5725 12.2283 14.6404 12.2283 14.7282C12.2283 14.804 12.2702 14.8718 12.354 14.9317C12.4378 14.9916 12.6174 15.0554 12.8928 15.1233C13.4316 15.243 13.8247 15.4026 14.0721 15.6022C14.3196 15.7977 14.4433 16.113 14.4433 16.548C14.4433 16.995 14.2817 17.3363 13.9584 17.5717C13.6391 17.8032 13.2141 17.919 12.6833 17.919C12.356 17.919 12.0567 17.8651 11.7853 17.7573C11.5139 17.6496 11.2964 17.4919 11.1328 17.2844C10.9691 17.0729 10.8873 16.8134 10.8873 16.5061Z" fill="white"/>
<path d="M8.5632 17.919C8.15612 17.919 7.79094 17.8292 7.46767 17.6496C7.1444 17.466 6.88898 17.2086 6.7014 16.8773C6.51782 16.5461 6.42603 16.1549 6.42603 15.704C6.42603 15.253 6.51782 14.8619 6.7014 14.5306C6.88898 14.1993 7.1444 13.9439 7.46767 13.7643C7.79094 13.5807 8.15612 13.489 8.5632 13.489C9.12992 13.489 9.58889 13.6306 9.94009 13.914C10.2913 14.1974 10.5108 14.5845 10.5986 15.0754L9.38934 15.255C9.34144 15.0395 9.24167 14.8778 9.09001 14.7701C8.93835 14.6623 8.76275 14.6084 8.5632 14.6084C8.27984 14.6084 8.05036 14.7102 7.87476 14.9137C7.70314 15.1173 7.61734 15.3807 7.61734 15.704C7.61734 16.0272 7.70314 16.2906 7.87476 16.4942C8.05036 16.6977 8.27984 16.7995 8.5632 16.7995C8.76674 16.7995 8.94434 16.7416 9.096 16.6259C9.25165 16.5101 9.35342 16.3285 9.40131 16.0811L10.6285 16.2188C10.5407 16.7576 10.3093 17.1766 9.93411 17.476C9.56294 17.7713 9.10598 17.919 8.5632 17.919Z" fill="white"/>
</svg>
