<svg width="24" height="24" viewBox="0 0 24 24" fill="none" xmlns="http://www.w3.org/2000/svg">
<path fill-rule="evenodd" clip-rule="evenodd" d="M6.39483 0H14.425L21.2226 7.09195V20.8779C21.2226 22.6023 19.8249 24 18.1004 24H6.39483C4.67037 24 3.27271 22.6023 3.27271 20.8779V3.12212C3.27271 1.39769 4.67037 0 6.39483 0Z" fill="#FF6600"/>
<path opacity="0.302" fill-rule="evenodd" clip-rule="evenodd" d="M14.4153 0V7.0337H21.2225L14.4153 0Z" fill="white"/>
<path d="M8.01575 16.798C7.57896 16.798 7.19397 16.6654 6.8672 16.3969C6.54043 16.1283 6.36249 15.7983 6.33337 15.4068L7.28458 15.1286C7.30723 15.3421 7.39135 15.5201 7.54663 15.6624C7.69871 15.8015 7.87016 15.8727 8.06429 15.8727C8.22607 15.8727 8.35547 15.8371 8.45578 15.7659C8.55284 15.6948 8.60461 15.6042 8.60461 15.4877C8.60461 15.3939 8.56255 15.313 8.48489 15.245C8.40723 15.1803 8.3037 15.1253 8.18077 15.0865C8.05459 15.0444 7.91222 15.0024 7.76018 14.9603C7.60489 14.9215 7.44957 14.8665 7.29752 14.8018C7.14545 14.7338 7.00635 14.6562 6.88018 14.5656C6.754 14.475 6.65047 14.3488 6.57281 14.1838C6.49515 14.022 6.45634 13.8311 6.45634 13.6111C6.45634 13.2585 6.60841 12.9608 6.90929 12.7247C7.21341 12.4885 7.57902 12.3688 8.00932 12.3688C8.43316 12.3688 8.80523 12.4723 9.11905 12.6794C9.43612 12.8832 9.63347 13.155 9.71113 13.4882L8.72111 13.9023C8.67581 13.7179 8.59169 13.5691 8.46551 13.4623C8.34258 13.3523 8.1905 13.2974 8.00932 13.2974C7.87019 13.2974 7.76021 13.3233 7.6793 13.3815C7.59843 13.4365 7.55637 13.5109 7.55637 13.6047C7.55637 13.6985 7.61138 13.773 7.71815 13.828C7.82492 13.8862 7.95755 13.9283 8.11609 13.9574C8.27462 13.9833 8.44932 14.0286 8.63375 14.09C8.82139 14.1515 8.99287 14.2259 9.15141 14.3197C9.30994 14.4103 9.44258 14.5527 9.54935 14.7468C9.65612 14.9442 9.71113 15.1803 9.71113 15.4554C9.71113 15.8565 9.55584 16.1801 9.24523 16.4292C8.93135 16.6751 8.5237 16.798 8.01575 16.798ZM11.3061 16.7495L9.77902 12.4174H10.9049L11.827 15.4133L12.762 12.4174H13.8815L12.3544 16.7495H11.3061ZM16.0362 16.798C15.4377 16.798 14.9297 16.6039 14.5091 16.2189C14.0918 15.8307 13.8815 15.2871 13.8815 14.5851C13.8815 14.1095 13.9882 13.7018 14.205 13.3589C14.4185 13.0159 14.6903 12.7668 15.0235 12.6082C15.3567 12.4497 15.7224 12.3688 16.1268 12.3688C16.6898 12.3688 17.1492 12.5015 17.505 12.7668C17.8609 13.0353 18.081 13.4074 18.1651 13.8862L17.0747 14.1062C17.0294 13.8636 16.9195 13.6694 16.7447 13.5271C16.57 13.3815 16.3597 13.3103 16.1171 13.3103C15.7773 13.3103 15.5056 13.4236 15.2953 13.6533C15.0882 13.883 14.9815 14.1936 14.9815 14.5851C14.9815 14.9766 15.085 15.2872 15.2921 15.5169C15.4991 15.7434 15.7677 15.8598 16.0977 15.8598C16.35 15.8598 16.5603 15.8016 16.7351 15.6819C16.9065 15.5654 17.0101 15.4101 17.0424 15.2225H15.9747V14.3553H18.0648V16.7495H17.0554V16.3677C16.9713 16.4971 16.8321 16.6039 16.6477 16.6815C16.4633 16.7592 16.2595 16.798 16.0362 16.798Z" fill="white"/>
</svg>
