<svg width="24" height="24" viewBox="0 0 24 24" fill="none" xmlns="http://www.w3.org/2000/svg">
<path d="M20.5321 6.62812V21.1078C20.5321 22.7062 19.2383 24 17.6399 24H6.16489C4.56646 24 3.27271 22.7062 3.27271 21.1078V2.89219C3.27271 1.29375 4.56646 0 6.16489 0H13.904L20.5321 6.62812Z" fill="#3A9DE8"/>
<path d="M20.5321 6.62812H15.0992C14.4383 6.62812 13.9039 6.09375 13.9039 5.43281V0L20.5321 6.62812Z" fill="#D3EDFE"/>
<path d="M17.3023 15.919C16.8953 15.919 16.5281 15.8292 16.2008 15.6496C15.8776 15.466 15.6221 15.2086 15.4346 14.8773C15.251 14.5461 15.1592 14.155 15.1592 13.704C15.1592 13.253 15.251 12.8619 15.4346 12.5307C15.6221 12.1994 15.8776 11.944 16.2008 11.7644C16.5281 11.5808 16.8953 11.489 17.3023 11.489C17.869 11.489 18.326 11.6227 18.6732 11.8901C19.0244 12.1575 19.2439 12.5167 19.3317 12.9677L18.1225 13.1473C18.0746 12.9717 17.9748 12.838 17.8232 12.7462C17.6755 12.6544 17.5019 12.6085 17.3023 12.6085C17.023 12.6085 16.7935 12.7083 16.6139 12.9078C16.4383 13.1034 16.3505 13.3688 16.3505 13.704C16.3505 14.0672 16.4383 14.3505 16.6139 14.5541C16.7935 14.7576 17.023 14.8594 17.3023 14.8594C17.466 14.8594 17.6136 14.8434 17.7453 14.8115C17.881 14.7796 17.9868 14.7237 18.0626 14.6439C18.1424 14.5601 18.1823 14.4463 18.1823 14.3026H17.2784V13.4705H19.3377V15.8472H18.5056V15.3682C18.3819 15.5518 18.2123 15.6895 17.9968 15.7813C17.7812 15.8731 17.5498 15.919 17.3023 15.919Z" fill="white"/>
<path d="M11.7526 15.8472V11.5609H14.7638V12.5845H12.896V13.261H14.632V14.0931H12.896V14.8235H14.7638V15.8472H11.7526Z" fill="white"/>
<path d="M8.92064 15.8472H7.77722V11.5609H9.74677C10.1578 11.5609 10.4991 11.6945 10.7705 11.9619C11.0418 12.2253 11.1775 12.5746 11.1775 13.0096C11.1775 13.4486 11.0418 13.7998 10.7705 14.0632C10.4991 14.3266 10.1578 14.4583 9.74677 14.4583H8.92064V15.8472ZM9.57915 13.4346C9.70287 13.4346 9.80064 13.3987 9.87248 13.3269C9.94831 13.255 9.98622 13.1493 9.98622 13.0096C9.98622 12.7382 9.85053 12.5965 9.57915 12.5845H8.92064V13.4346H9.57915Z" fill="white"/>
<path d="M5.44899 15.919C4.97007 15.919 4.59891 15.7953 4.33551 15.5478C4.0761 15.3004 3.90648 14.9731 3.82666 14.5661L4.85034 14.2727C4.88626 14.4523 4.94613 14.596 5.02994 14.7037C5.11774 14.8075 5.23148 14.8594 5.37117 14.8594C5.51484 14.8594 5.6226 14.8175 5.69444 14.7337C5.76627 14.6499 5.80219 14.5401 5.80219 14.4044V11.5609H6.93962V14.5182C6.93962 14.9412 6.81789 15.2804 6.57444 15.5359C6.331 15.7913 5.95584 15.919 5.44899 15.919Z" fill="white"/>
</svg>
