<svg width="24" height="24" viewBox="0 0 24 24" fill="none" xmlns="http://www.w3.org/2000/svg">
<path d="M21.2594 6.62812V21.1078C21.2594 22.7062 19.9656 24 18.3672 24H6.89219C5.29375 24 4 22.7062 4 21.1078V2.89219C4 1.29375 5.29375 0 6.89219 0H14.6313L21.2594 6.62812Z" fill="#F15642"/>
<path d="M21.259 6.62812H15.8262C15.1652 6.62812 14.6309 6.09375 14.6309 5.43281V0L21.259 6.62812Z" fill="#FF9587"/>
<path d="M16.4635 15.9183C16.0564 15.9183 15.6892 15.8285 15.362 15.6489C15.0387 15.4653 14.7833 15.2079 14.5957 14.8766C14.4121 14.5454 14.3203 14.1543 14.3203 13.7033C14.3203 13.2523 14.4121 12.8612 14.5957 12.5299C14.7833 12.1987 15.0387 11.9433 15.362 11.7637C15.6892 11.5801 16.0564 11.4883 16.4635 11.4883C17.0302 11.4883 17.4872 11.622 17.8344 11.8894C18.1856 12.1568 18.4051 12.516 18.4929 12.9669L17.2836 13.1465C17.2357 12.9709 17.136 12.8372 16.9843 12.7454C16.8366 12.6537 16.663 12.6078 16.4635 12.6078C16.1841 12.6078 15.9546 12.7075 15.775 12.9071C15.5994 13.1026 15.5116 13.368 15.5116 13.7033C15.5116 14.0665 15.5994 14.3498 15.775 14.5534C15.9546 14.7569 16.1841 14.8587 16.4635 14.8587C16.6271 14.8587 16.7748 14.8427 16.9065 14.8108C17.0422 14.7789 17.1479 14.723 17.2238 14.6432C17.3036 14.5593 17.3435 14.4456 17.3435 14.3019H16.4395V13.4698H18.4989V15.8464H17.6668V15.3675C17.543 15.5511 17.3734 15.6888 17.1579 15.7806C16.9424 15.8724 16.7109 15.9183 16.4635 15.9183Z" fill="white"/>
<path d="M9.91992 15.8469V11.5605H10.9316L12.5899 13.9252V11.5605H13.7333V15.8469H12.7276L11.0633 13.4822V15.8469H9.91992Z" fill="white"/>
<path d="M7.08873 15.8469H5.94531V11.5605H7.91487C8.32594 11.5605 8.66717 11.6942 8.93856 11.9616C9.20994 12.225 9.34564 12.5743 9.34564 13.0093C9.34564 13.4483 9.20994 13.7995 8.93856 14.0629C8.66717 14.3263 8.32594 14.458 7.91487 14.458H7.08873V15.8469ZM7.74724 13.4343C7.87097 13.4343 7.96874 13.3984 8.04058 13.3266C8.11641 13.2547 8.15433 13.149 8.15433 13.0093C8.15433 12.7379 8.01863 12.5962 7.74724 12.5842H7.08873V13.4343H7.74724Z" fill="white"/>
</svg>
