<svg width="24" height="24" viewBox="0 0 24 24" fill="none" xmlns="http://www.w3.org/2000/svg">
<path fill-rule="evenodd" clip-rule="evenodd" d="M6.39168 0H14.4238L21.2209 7.09489V20.873C21.2209 22.5985 19.8282 24 18.1026 24H6.39168C4.67489 24 3.27344 22.5985 3.27344 20.873V3.11824C3.27341 1.40145 4.67489 0 6.39168 0Z" fill="#E0C600"/>
<path opacity="0.302" fill-rule="evenodd" clip-rule="evenodd" d="M14.416 0V7.03358H21.2219L14.416 0Z" fill="white"/>
<path d="M9.01953 16.3013C9.11587 16.3188 9.21224 16.3276 9.30858 16.3276C9.71149 16.3276 9.91296 16.1349 9.91296 15.7583V12.4999H11.0867V15.8284C11.0867 16.3451 10.9553 16.7393 10.6925 17.0108C10.4385 17.2736 10.0794 17.4137 9.62392 17.4137C9.43997 17.4137 9.2385 17.3962 9.01953 17.3524V16.3013ZM13.5743 17.4312C13.0838 17.4312 12.6458 17.2823 12.2779 16.9845C11.91 16.6779 11.7086 16.31 11.6823 15.8633L12.7509 15.5568C12.7772 15.7933 12.8736 15.9947 13.04 16.1524C13.2152 16.3101 13.4079 16.3889 13.6268 16.3889C13.8108 16.3889 13.9509 16.3451 14.0648 16.2663C14.1787 16.1874 14.2312 16.0911 14.2312 15.9597C14.2312 15.8546 14.1874 15.7582 14.0998 15.6882C14.0122 15.6093 13.8983 15.548 13.7582 15.5042C13.6181 15.4604 13.4604 15.4079 13.2852 15.3641C13.11 15.3203 12.9349 15.259 12.7597 15.1801C12.5933 15.11 12.4356 15.0225 12.2955 14.9173C12.1553 14.821 12.0414 14.6721 11.9451 14.4881C11.8575 14.3042 11.8137 14.094 11.8137 13.8487C11.8137 13.4458 11.9889 13.1129 12.3305 12.8502C12.6721 12.5787 13.0838 12.4473 13.5655 12.4473C14.0385 12.4473 14.4589 12.5611 14.8181 12.7976C15.1684 13.0254 15.3874 13.3319 15.475 13.7086L14.3626 14.1728C14.3101 13.9626 14.2225 13.7962 14.0823 13.6735C13.9422 13.5509 13.767 13.4896 13.5655 13.4896C13.4079 13.4896 13.2853 13.5246 13.1889 13.5859C13.1013 13.6472 13.0575 13.7348 13.0575 13.84C13.0575 13.9451 13.1188 14.0239 13.2414 14.094C13.3553 14.1553 13.5042 14.2078 13.6881 14.2341C13.8633 14.2604 14.056 14.313 14.2662 14.383C14.4764 14.4531 14.6692 14.5407 14.8531 14.637C15.0283 14.7422 15.1772 14.9086 15.2998 15.1276C15.4224 15.3465 15.475 15.6093 15.475 15.9246C15.475 16.3713 15.2998 16.7392 14.9494 17.0195C14.5991 17.2911 14.1436 17.4312 13.5743 17.4312Z" fill="white"/>
</svg>
