<svg width="24" height="24" viewBox="0 0 24 24" fill="none" xmlns="http://www.w3.org/2000/svg">
<path fill-rule="evenodd" clip-rule="evenodd" d="M6.14994 0H14.1739L20.9745 7.08846V20.8756C20.9745 22.6027 19.5772 24 17.8561 24H6.14994C4.42281 24 3.02551 22.6027 3.02551 20.8756V3.12443C3.02548 1.3973 4.42278 0 6.14994 0Z" fill="#E03303"/>
<path opacity="0.302" fill-rule="evenodd" clip-rule="evenodd" d="M14.168 0V7.03449H20.9746L14.168 0Z" fill="white"/>
<path d="M6.79761 17.1694V12.8096H8.65067C9.10644 12.8096 9.47227 12.9355 9.74813 13.1934C10.018 13.4453 10.1559 13.7811 10.1559 14.2069C10.1559 14.6267 10.018 14.9685 9.74813 15.2204C9.47227 15.4722 9.10644 15.5982 8.65067 15.5982H7.90704V17.1694H6.79761ZM7.90707 14.6507H8.52477C8.69267 14.6507 8.81861 14.6147 8.91458 14.5367C9.00452 14.4587 9.04652 14.3448 9.04652 14.2069C9.04652 14.0629 9.00455 13.955 8.91458 13.877C8.81864 13.7991 8.6927 13.7571 8.52477 13.7571H7.90707V14.6507ZM10.6237 17.1694V12.8096H12.4768C12.9325 12.8096 13.2984 12.9355 13.5742 13.1934C13.8501 13.4453 13.982 13.7811 13.982 14.2069C13.982 14.6267 13.8501 14.9685 13.5742 15.2204C13.2984 15.4722 12.9325 15.5982 12.4768 15.5982H11.7391V17.1694H10.6237ZM11.7391 14.6507H12.3508C12.5187 14.6507 12.6507 14.6147 12.7406 14.5367C12.8306 14.4587 12.8786 14.3448 12.8786 14.2069C12.8786 14.0629 12.8306 13.955 12.7406 13.877C12.6507 13.7991 12.5188 13.7571 12.3508 13.7571H11.7391V14.6507ZM15.5832 17.1694V13.7571H14.3418V12.8096H17.946V13.7571H16.6987V17.1694H15.5832Z" fill="white"/>
</svg>
