<svg width="24" height="24" viewBox="0 0 24 24" fill="none" xmlns="http://www.w3.org/2000/svg">
<path fill-rule="evenodd" clip-rule="evenodd" d="M6.14963 0H14.1767L20.9758 7.09344V20.8744C20.9758 22.5996 19.5754 24 17.8502 24H6.14963C4.42447 24 3.02405 22.5996 3.02405 20.8744V3.12558C3.02405 1.40042 4.42447 0 6.14963 0Z" fill="#0AC963"/>
<path opacity="0.302" fill-rule="evenodd" clip-rule="evenodd" d="M14.1665 0V7.03255H20.9758L14.1665 0Z" fill="white"/>
<path fill-rule="evenodd" clip-rule="evenodd" d="M15.0494 11.9949H8.95044C8.49379 11.9949 8.11829 12.3704 8.11829 12.8271V16.7036C8.11829 17.1603 8.49376 17.5358 8.95044 17.5358H15.0494C15.506 17.5358 15.8714 17.1603 15.8714 16.7036V12.8271C15.8714 12.3704 15.506 11.9949 15.0494 11.9949ZM10.6147 13.0402C11.112 13.0402 11.5077 13.4461 11.5077 13.9332C11.5077 14.4304 11.112 14.8363 10.6147 14.8363C10.1175 14.8363 9.71154 14.4304 9.71154 13.9332C9.71154 13.4461 10.1175 13.0402 10.6147 13.0402ZM15.3234 16.7036C15.3234 16.8558 15.2016 16.9877 15.0494 16.9877H8.95044C8.79821 16.9877 8.67643 16.8558 8.67643 16.7036V16.5412L9.78256 15.4351L10.6959 16.3485C10.8075 16.4601 10.98 16.4601 11.0916 16.3485L13.3851 14.055L15.3234 15.9933V16.7036Z" fill="white"/>
</svg>
