<svg width="25" height="24" viewBox="0 0 25 24" fill="none" xmlns="http://www.w3.org/2000/svg">
<path fill-rule="evenodd" clip-rule="evenodd" d="M6.89426 0H14.9213L21.7236 7.09007V20.8792C21.7236 22.5982 20.3218 24 18.6028 24H6.89426C5.16785 24 3.77344 22.5982 3.77344 20.8792V3.12082C3.77344 1.39442 5.16785 0 6.89426 0Z" fill="#FFB11F"/>
<path opacity="0.302" fill-rule="evenodd" clip-rule="evenodd" d="M14.9141 0V7.03106H21.7238L14.9141 0Z" fill="white"/>
<path d="M10.3845 12.4678V10.8299C10.3845 10.6528 10.2443 10.5126 10.0673 10.5126H9.18191C9.00485 10.5126 8.86467 10.6528 8.86467 10.8299V12.4678L8.37036 13.9138C8.23017 14.3196 8.29658 14.7697 8.54742 15.1164C8.79089 15.4632 9.19665 15.6697 9.62458 15.6697C10.0525 15.6697 10.4509 15.4632 10.7018 15.1164C10.9526 14.7697 11.019 14.3196 10.8788 13.9138L10.3845 12.4678ZM10.1779 14.7401C9.9271 15.1017 9.3221 15.1017 9.06389 14.7401C8.93847 14.5631 8.90157 14.327 8.97535 14.1204L9.13767 13.6335H10.1042L10.2738 14.1204C10.3403 14.327 10.3107 14.5631 10.1779 14.7401ZM7.66211 1.71831V2.61841C7.66211 2.79547 7.8023 2.93566 7.97936 2.93566H9.18195V4.27844H7.97936C7.8023 4.27844 7.66211 4.41862 7.66211 4.59568V5.28919C7.66211 5.46625 7.8023 5.61381 7.97936 5.61381H9.18195V6.94919H7.97936C7.8023 6.94919 7.66211 7.08937 7.66211 7.26643V7.96731C7.66211 8.14437 7.8023 8.28456 7.97936 8.28456H9.18195V9.30269C9.18195 9.47975 9.3295 9.61994 9.50656 9.61994H11.2699C11.4396 9.61994 11.5871 9.47975 11.5871 9.30269V8.60181C11.5871 8.43212 11.4396 8.28456 11.2699 8.28456H10.0599V6.94919H11.2699C11.4396 6.94919 11.5871 6.809 11.5871 6.63194V5.93106C11.5871 5.754 11.4396 5.61381 11.2699 5.61381H10.0599V4.27844H11.2699C11.4396 4.27844 11.5871 4.13088 11.5871 3.95382V3.26031C11.5871 3.08325 11.4396 2.93569 11.2699 2.93569H10.0599V1.71094C10.0599 1.71094 7.66211 1.71831 7.66211 1.71831Z" fill="white"/>
</svg>
