<svg width="25" height="24" viewBox="0 0 25 24" fill="none" xmlns="http://www.w3.org/2000/svg">
<path fill-rule="evenodd" clip-rule="evenodd" d="M6.64363 0H14.6757L21.4728 7.09489V20.873C21.4728 22.5985 20.0801 24 18.3546 24H6.64363C4.92684 24 3.52539 22.5985 3.52539 20.873V3.11824C3.52536 1.40145 4.92684 0 6.64363 0Z" fill="#00733B"/>
<path opacity="0.302" fill-rule="evenodd" clip-rule="evenodd" d="M14.666 0V7.03358H21.4719L14.666 0Z" fill="white"/>
<path d="M10.9875 17.4742H9.82257L9.0255 16.134L8.22841 17.4742H7.05469L8.43864 15.1442L7.22114 13.1209H8.39482L9.02547 14.172L9.64735 13.1209H10.8211L9.6123 15.153L10.9875 17.4742ZM11.3992 17.4742V13.1209H12.5116V16.5282H14.4036V17.4742H11.3992V17.4742ZM16.243 17.5267C15.805 17.5267 15.4196 17.3866 15.0868 17.1151C14.7627 16.8523 14.5788 16.5194 14.5525 16.1253L15.5072 15.845C15.5335 16.0552 15.6211 16.2392 15.77 16.3793C15.9277 16.5195 16.1029 16.5895 16.2956 16.5895C16.4532 16.5895 16.5846 16.5545 16.6897 16.4844C16.7861 16.4143 16.8386 16.318 16.8386 16.2041C16.8386 16.1078 16.7948 16.0289 16.716 15.9589C16.6371 15.8976 16.532 15.845 16.4094 15.8012C16.2868 15.7574 16.1379 15.7136 15.989 15.6786C15.8313 15.6348 15.6736 15.5822 15.5247 15.5122C15.3671 15.4509 15.2269 15.372 15.1043 15.2757C14.9729 15.1881 14.8766 15.0567 14.7977 14.8903C14.7189 14.7326 14.6751 14.5399 14.6751 14.3209C14.6751 13.9618 14.824 13.664 15.1306 13.4275C15.4371 13.1822 15.805 13.0684 16.2342 13.0684C16.6634 13.0684 17.04 13.1735 17.3554 13.3749C17.6707 13.5851 17.8721 13.8567 17.951 14.1895L16.9525 14.61C16.9087 14.426 16.8211 14.2771 16.6984 14.1633C16.5758 14.0582 16.4181 13.9968 16.2342 13.9968C16.094 13.9968 15.9889 14.0319 15.9014 14.0845C15.8225 14.137 15.7875 14.2158 15.7875 14.3122C15.7875 14.3998 15.84 14.4786 15.9452 14.5399C16.0503 14.5925 16.1904 14.6363 16.3481 14.6625C16.5057 14.6888 16.6809 14.7326 16.8648 14.7939C17.0576 14.864 17.224 14.9341 17.3904 15.0304C17.548 15.118 17.6794 15.2669 17.7845 15.4596C17.8984 15.6611 17.951 15.8976 17.951 16.1691C17.951 16.572 17.7933 16.9049 17.478 17.1501C17.1626 17.3954 16.751 17.5267 16.243 17.5267Z" fill="white"/>
</svg>
