<svg width="24" height="24" viewBox="0 0 24 24" fill="none" xmlns="http://www.w3.org/2000/svg">
<path fill-rule="evenodd" clip-rule="evenodd" d="M6.14994 0H14.1739L20.9745 7.08846V20.8756C20.9745 22.6027 19.5772 24 17.8561 24H6.14994C4.42281 24 3.02551 22.6027 3.02551 20.8756V3.12443C3.02548 1.3973 4.42278 0 6.14994 0Z" fill="#E5252A"/>
<path opacity="0.302" fill-rule="evenodd" clip-rule="evenodd" d="M14.168 0V7.03449H20.9746L14.168 0Z" fill="white"/>
<path d="M6.4978 17.9071V13.5233H8.36288C8.82465 13.5233 9.19048 13.6492 9.46633 13.9071C9.74219 14.1589 9.88013 14.5008 9.88013 14.9266C9.88013 15.3523 9.74219 15.6942 9.46633 15.946C9.19048 16.2039 8.82465 16.3299 8.36288 16.3299H7.61924V17.9071H6.4978ZM7.61924 15.3763H8.23694C8.40484 15.3763 8.53678 15.3404 8.62675 15.2564C8.7167 15.1785 8.7647 15.0705 8.7647 14.9266C8.7647 14.7827 8.71673 14.6747 8.62675 14.5968C8.53681 14.5128 8.40488 14.4768 8.23694 14.4768H7.61924V15.3763ZM10.3419 17.9071V13.5233H11.8951C12.2009 13.5233 12.4888 13.5652 12.7587 13.6552C13.0285 13.7451 13.2744 13.8711 13.4903 14.045C13.7062 14.2129 13.8801 14.4408 14.006 14.7287C14.126 15.0165 14.192 15.3464 14.192 15.7182C14.192 16.084 14.126 16.4138 14.006 16.7017C13.8801 16.9895 13.7062 17.2174 13.4903 17.3853C13.2744 17.5592 13.0285 17.6852 12.7587 17.7751C12.4888 17.8651 12.2009 17.9071 11.8951 17.9071H10.3419ZM11.4393 16.9536H11.7632C11.9371 16.9536 12.099 16.9356 12.2489 16.8936C12.3928 16.8516 12.5308 16.7856 12.6627 16.6957C12.7887 16.6057 12.8906 16.4798 12.9626 16.3119C13.0345 16.144 13.0705 15.946 13.0705 15.7182C13.0705 15.4843 13.0345 15.2864 12.9626 15.1185C12.8906 14.9506 12.7887 14.8246 12.6627 14.7347C12.5308 14.6447 12.3929 14.5787 12.2489 14.5368C12.099 14.4948 11.9371 14.4768 11.7632 14.4768H11.4393V16.9536ZM14.7557 17.9071V13.5233H17.8741V14.4768H15.8771V15.1784H17.4723V16.126H15.8771V17.9071H14.7557Z" fill="white"/>
</svg>
