<svg width="25" height="24" viewBox="0 0 25 24" fill="none" xmlns="http://www.w3.org/2000/svg">
<path d="M6.64751 0H14.6777L21.4752 7.09195V20.8779C21.4752 22.6023 20.0776 24 18.3531 24H6.64751C4.92305 24 3.52539 22.6023 3.52539 20.8779V3.12212C3.52539 1.39769 4.92305 0 6.64751 0Z" fill="#0263D1"/>
<path opacity="0.302" fill-rule="evenodd" clip-rule="evenodd" d="M14.668 0V7.0337H21.4752L14.668 0Z" fill="white"/>
<path d="M6.42383 17.1258V13.1527H7.83122C8.11269 13.1527 8.37478 13.1948 8.61743 13.2724C8.86008 13.3533 9.08008 13.4698 9.27746 13.6251C9.47481 13.7804 9.63013 13.9875 9.74336 14.2463C9.85659 14.5051 9.91484 14.8028 9.91484 15.1392C9.91484 15.4757 9.85659 15.7734 9.74336 16.0322C9.63013 16.291 9.47481 16.4981 9.27746 16.6534C9.08011 16.8087 8.86008 16.9251 8.61743 17.006C8.37478 17.0837 8.11272 17.1258 7.83122 17.1258H6.42383ZM7.41709 16.2619H7.7115C7.87004 16.2619 8.01887 16.2425 8.1515 16.2069C8.28739 16.1681 8.41032 16.1066 8.52679 16.0257C8.64327 15.9448 8.73384 15.8284 8.79856 15.6763C8.86651 15.5275 8.89884 15.3463 8.89884 15.1392C8.89884 14.9322 8.86648 14.751 8.79856 14.5989C8.73384 14.4501 8.64327 14.3336 8.52679 14.2528C8.41032 14.1686 8.28739 14.1104 8.1515 14.0716C8.01887 14.036 7.87004 14.0166 7.7115 14.0166H7.41709V16.2619ZM12.3252 17.1711C11.7266 17.1711 11.2316 16.9769 10.8401 16.5919C10.4487 16.2069 10.2545 15.7216 10.2545 15.1393C10.2545 14.5569 10.4487 14.0716 10.8401 13.6866C11.2316 13.3016 11.7266 13.1075 12.3252 13.1075C12.914 13.1075 13.4025 13.3016 13.794 13.6866C14.1823 14.0716 14.3764 14.5569 14.3764 15.1393C14.3764 15.7216 14.1823 16.207 13.794 16.5919C13.4025 16.9769 12.914 17.1711 12.3252 17.1711ZM11.5616 15.9772C11.759 16.1972 12.0113 16.3072 12.3187 16.3072C12.626 16.3072 12.8752 16.1972 13.0725 15.9772C13.2699 15.754 13.3669 15.4757 13.3669 15.1392C13.3669 14.8028 13.2699 14.5245 13.0725 14.3013C12.8752 14.0813 12.626 13.9713 12.3187 13.9713C12.0113 13.9713 11.759 14.0813 11.5616 14.3013C11.3643 14.5245 11.264 14.8028 11.264 15.1392C11.264 15.4757 11.3643 15.754 11.5616 15.9772ZM16.7382 17.1711C16.1591 17.1711 15.677 16.9899 15.2952 16.634C14.9102 16.2749 14.7194 15.7766 14.7194 15.1392C14.7194 14.5051 14.9135 14.0069 15.3017 13.6477C15.6932 13.2886 16.1688 13.1074 16.7382 13.1074C17.2527 13.1074 17.6732 13.2336 18.0065 13.4892C18.3365 13.7416 18.5274 14.078 18.5759 14.4986L17.573 14.7025C17.5309 14.4825 17.4306 14.3045 17.2753 14.1719C17.12 14.0392 16.9388 13.9713 16.7318 13.9713C16.447 13.9713 16.2108 14.0716 16.02 14.2754C15.8291 14.4824 15.732 14.7671 15.732 15.1392C15.732 15.5113 15.8291 15.796 16.0167 15.9998C16.2076 16.2069 16.4438 16.3072 16.7317 16.3072C16.9388 16.3072 17.1167 16.249 17.2623 16.1325C17.4079 16.016 17.4985 15.8607 17.5373 15.6666L18.563 15.8996C18.4691 16.3007 18.262 16.6114 17.9385 16.8346C17.6182 17.0578 17.2171 17.1711 16.7382 17.1711Z" fill="white"/>
</svg>
