<svg width="24" height="24" viewBox="0 0 24 24" fill="none" xmlns="http://www.w3.org/2000/svg">
<path fill-rule="evenodd" clip-rule="evenodd" d="M6.39786 0H14.4218L21.2224 7.08846V20.8756C21.2224 22.6027 19.8251 24 18.104 24H6.39786C4.67073 24 3.27344 22.6027 3.27344 20.8756V3.12443C3.27341 1.3973 4.6707 0 6.39786 0Z" fill="#251D36"/>
<path opacity="0.302" fill-rule="evenodd" clip-rule="evenodd" d="M14.416 0V7.03449H21.2226L14.416 0Z" fill="white"/>
<path d="M7.80792 17.5239V14.1116H6.56055V13.1641H10.1648V14.1116H8.92339V17.5239H7.80792ZM14.2187 17.5239H13.0493L12.2517 16.1865L11.4541 17.5239H10.2787L11.664 15.197L10.4526 13.1641H11.622L12.2517 14.2195L12.8754 13.1641H14.0508L12.8395 15.203L14.2187 17.5239ZM15.5741 17.5239V14.1116H14.3327V13.1641H17.9369V14.1116H16.6895V17.5239H15.5741Z" fill="white"/>
</svg>
