<svg width="24" height="25" viewBox="0 0 24 25" fill="none" xmlns="http://www.w3.org/2000/svg">
<path d="M20.25 6.09082H3.75" stroke="#DA3E33" stroke-linecap="round" stroke-linejoin="round"/>
<path d="M9.75 10.5908V16.5908" stroke="#DA3E33" stroke-linecap="round" stroke-linejoin="round"/>
<path d="M14.25 10.5908V16.5908" stroke="#DA3E33" stroke-linecap="round" stroke-linejoin="round"/>
<path d="M18.75 6.09082V20.3408C18.75 20.5397 18.671 20.7305 18.5303 20.8712C18.3897 21.0118 18.1989 21.0908 18 21.0908H6C5.80109 21.0908 5.61032 21.0118 5.46967 20.8712C5.32902 20.7305 5.25 20.5397 5.25 20.3408V6.09082" stroke="#DA3E33" stroke-linecap="round" stroke-linejoin="round"/>
<path d="M15.75 6.09082V4.59082C15.75 4.193 15.592 3.81146 15.3107 3.53016C15.0294 3.24886 14.6478 3.09082 14.25 3.09082H9.75C9.35218 3.09082 8.97064 3.24886 8.68934 3.53016C8.40804 3.81146 8.25 4.193 8.25 4.59082V6.09082" stroke="#DA3E33" stroke-linecap="round" stroke-linejoin="round"/>
</svg>
