<svg width="72" height="72" viewBox="0 0 72 72" fill="none" xmlns="http://www.w3.org/2000/svg">
<rect width="72" height="72" rx="36" fill="#E9F6ED"/>
<path d="M36 56C28.8125 56 22.25 52.25 18.6562 46C15.0625 39.8281 15.0625 32.25 18.6562 26C22.25 19.8281 28.8125 16 36 16C43.1094 16 49.6719 19.8281 53.2656 26C56.8594 32.25 56.8594 39.8281 53.2656 46C49.6719 52.25 43.1094 56 36 56ZM44.8281 32.3281H44.75C45.5312 31.625 45.5312 30.4531 44.75 29.6719C44.0469 28.9688 42.875 28.9688 42.1719 29.6719L33.5 38.4219L29.8281 34.75C29.0469 33.9688 27.875 33.9688 27.1719 34.75C26.3906 35.4531 26.3906 36.625 27.1719 37.3281L32.1719 42.3281C32.875 43.1094 34.0469 43.1094 34.8281 42.3281L44.8281 32.3281Z" fill="#219342"/>
</svg>
