<svg width="72" height="72" viewBox="0 0 72 72" fill="none" xmlns="http://www.w3.org/2000/svg">
<rect width="72" height="72" rx="36" fill="#E9F6ED"/>
<path fill-rule="evenodd" clip-rule="evenodd" d="M18.0835 35.9987C18.0835 45.8938 26.1051 53.9154 36.0002 53.9154C45.8953 53.9154 53.9168 45.8938 53.9168 35.9987C53.9168 26.1036 45.8953 18.082 36.0002 18.082C26.1051 18.082 18.0835 26.1036 18.0835 35.9987ZM43.793 29.7701C44.4716 30.3921 44.5174 31.4464 43.8954 32.1249L34.7288 42.1249C34.4216 42.46 33.9909 42.6551 33.5364 42.665C33.0819 42.6749 32.6431 42.4987 32.3217 42.1772L28.155 38.0106C27.5041 37.3597 27.5041 36.3044 28.155 35.6535C28.8059 35.0027 29.8611 35.0027 30.512 35.6535L33.4478 38.5893L41.4382 29.8725C42.0602 29.194 43.1145 29.1481 43.793 29.7701Z" fill="#219342"/>
</svg>
