<svg width="181" height="180" viewBox="0 0 181 180" fill="none" xmlns="http://www.w3.org/2000/svg">
<path d="M99.8413 144.835C134.357 144.835 162.339 116.907 162.339 82.3368C162.339 47.7661 134.234 19.8389 99.8413 19.8389C65.3257 19.8389 37.3434 47.7661 37.3434 82.3368C37.3434 116.907 65.3257 144.835 99.8413 144.835Z" fill="#F1F3F9" stroke="#D6DCE8" stroke-width="2" stroke-miterlimit="10"/>
<path d="M158.271 41.4109C161.063 41.4109 163.325 39.1481 163.325 36.3568C163.325 33.5655 161.063 31.3027 158.271 31.3027C155.48 31.3027 153.217 33.5655 153.217 36.3568C153.217 39.1481 155.48 41.4109 158.271 41.4109Z" fill="#F1F3F9"/>
<path d="M165.668 21.6883C167.574 21.6883 169.119 20.143 169.119 18.2367C169.119 16.3305 167.574 14.7852 165.668 14.7852C163.761 14.7852 162.216 16.3305 162.216 18.2367C162.216 20.143 163.761 21.6883 165.668 21.6883Z" fill="#F1F3F9"/>
<path d="M40.6717 41.2879C42.578 41.2879 44.1233 39.7426 44.1233 37.8363C44.1233 35.9301 42.578 34.3848 40.6717 34.3848C38.7655 34.3848 37.2202 35.9301 37.2202 37.8363C37.2202 39.7426 38.7655 41.2879 40.6717 41.2879Z" fill="#F1F3F9"/>
<path d="M19.5925 107.853C23.1327 107.853 26.0026 104.983 26.0026 101.443C26.0026 97.9031 23.1327 95.0332 19.5925 95.0332C16.0524 95.0332 13.1825 97.9031 13.1825 101.443C13.1825 104.983 16.0524 107.853 19.5925 107.853Z" fill="#F1F3F9"/>
<path d="M99.8043 110.365L97.6204 110.335C97.1837 110.329 96.7529 109.886 96.786 109.347C96.819 108.808 97.1594 108.35 97.5961 108.356L99.7799 108.386C100.217 108.392 100.647 108.834 100.614 109.373C100.554 110.015 100.241 110.371 99.8043 110.365Z" fill="#CED7E2"/>
<path d="M89.9186 52.8241L116.4 107.198C117.285 109.082 116.503 111.272 114.619 112.157L61.1995 137.386C59.3157 138.271 57.1252 137.489 56.2401 135.605L23.046 65.2311C22.1609 63.3472 22.943 61.1568 24.8268 60.2717L63.4882 42.0662L89.9186 52.8241Z" fill="white" stroke="#D6DCE8" stroke-width="2" stroke-miterlimit="10"/>
<path d="M63.4882 42.0664L70.5687 57.1372C71.5963 59.2103 74.2418 60.124 76.3149 59.0964L89.9186 52.8243" fill="#D6DCE8"/>
<path d="M136.826 58.2441L137.593 118.719C137.59 120.8 135.949 122.448 133.867 122.445L74.7898 122.486C72.7084 122.483 71.0606 120.842 71.0633 118.76L71.0479 40.9503C71.0507 38.8689 72.6921 37.221 74.7735 37.2238L117.507 37.2427L136.826 58.2441Z" fill="white" stroke="#D6DCE8" stroke-width="2" stroke-miterlimit="10"/>
<path d="M117.507 37.2432L117.485 53.8943C117.53 56.2077 119.534 58.1623 121.847 58.1168L136.826 58.2446" fill="#D6DCE8"/>
<path d="M174.003 85.0658L149.298 140.336C148.475 142.2 146.177 143.017 144.34 142.092L90.8169 117.411C88.9522 116.589 88.1357 114.291 88.9578 112.426L121.556 41.8207C122.378 39.956 124.676 39.1395 126.514 40.064L165.378 58.0177L174.003 85.0658Z" fill="white" stroke="#D6DCE8" stroke-width="2" stroke-miterlimit="10"/>
<path d="M165.276 57.9905L158.311 73.1334C157.305 75.2782 158.375 77.8625 160.519 78.8683L174.002 85.0656" fill="#D6DCE8"/>
</svg>
