<svg width="16" height="16" viewBox="0 0 16 16" fill="none" xmlns="http://www.w3.org/2000/svg">
<path d="M6 6.5H10" stroke="white" stroke-linecap="round" stroke-linejoin="round"/>
<path d="M6 8.5H10" stroke="white" stroke-linecap="round" stroke-linejoin="round"/>
<path d="M6.56687 12L7.56687 13.75C7.61057 13.8267 7.67377 13.8904 7.75007 13.9347C7.82636 13.979 7.91302 14.0024 8.00125 14.0024C8.08948 14.0024 8.17614 13.979 8.25243 13.9347C8.32873 13.8904 8.39193 13.8267 8.43563 13.75L9.43563 12H13.5C13.6326 12 13.7598 11.9473 13.8536 11.8536C13.9473 11.7598 14 11.6326 14 11.5V3.5C14 3.36739 13.9473 3.24021 13.8536 3.14645C13.7598 3.05268 13.6326 3 13.5 3H2.5C2.36739 3 2.24021 3.05268 2.14645 3.14645C2.05268 3.24021 2 3.36739 2 3.5V11.5C2 11.6326 2.05268 11.7598 2.14645 11.8536C2.24021 11.9473 2.36739 12 2.5 12H6.56687Z" stroke="white" stroke-linecap="round" stroke-linejoin="round"/>
</svg>
