<svg width="12" height="15" viewBox="0 0 12 15" fill="none" xmlns="http://www.w3.org/2000/svg">
<path d="M6 2.5C4.81331 2.5 3.65328 2.85189 2.66658 3.51118C1.67989 4.17047 0.910851 5.10754 0.456726 6.2039C0.00259972 7.30026 -0.11622 8.50666 0.115291 9.67054C0.346802 10.8344 0.918247 11.9035 1.75736 12.7426C2.59648 13.5818 3.66558 14.1532 4.82946 14.3847C5.99335 14.6162 7.19975 14.4974 8.2961 14.0433C9.39246 13.5892 10.3295 12.8201 10.9888 11.8334C11.6481 10.8467 12 9.68669 12 8.5C11.9982 6.90926 11.3655 5.38419 10.2406 4.25937C9.11581 3.13454 7.59074 2.50182 6 2.5ZM6 13.5C5.0111 13.5 4.0444 13.2068 3.22215 12.6573C2.39991 12.1079 1.75904 11.327 1.38061 10.4134C1.00217 9.49979 0.90315 8.49445 1.09608 7.52455C1.289 6.55464 1.76521 5.66373 2.46447 4.96447C3.16373 4.2652 4.05465 3.789 5.02455 3.59607C5.99446 3.40315 6.99979 3.50216 7.91342 3.8806C8.82705 4.25904 9.60794 4.8999 10.1574 5.72215C10.7068 6.54439 11 7.51109 11 8.5C10.9985 9.82563 10.4713 11.0965 9.53389 12.0339C8.59653 12.9712 7.32563 13.4985 6 13.5ZM8.85375 5.64625C8.90024 5.69269 8.93712 5.74783 8.96228 5.80853C8.98744 5.86923 9.0004 5.93429 9.0004 6C9.0004 6.06571 8.98744 6.13077 8.96228 6.19147C8.93712 6.25217 8.90024 6.30731 8.85375 6.35375L6.35375 8.85375C6.3073 8.90021 6.25215 8.93705 6.19145 8.9622C6.13075 8.98734 6.0657 9.00028 6 9.00028C5.93431 9.00028 5.86925 8.98734 5.80855 8.9622C5.74786 8.93705 5.69271 8.90021 5.64625 8.85375C5.5998 8.80729 5.56295 8.75214 5.53781 8.69145C5.51266 8.63075 5.49972 8.5657 5.49972 8.5C5.49972 8.4343 5.51266 8.36925 5.53781 8.30855C5.56295 8.24786 5.5998 8.1927 5.64625 8.14625L8.14625 5.64625C8.19269 5.59976 8.24783 5.56288 8.30853 5.53772C8.36923 5.51256 8.43429 5.49961 8.5 5.49961C8.56571 5.49961 8.63077 5.51256 8.69147 5.53772C8.75217 5.56288 8.80732 5.59976 8.85375 5.64625ZM4 1C4 0.867392 4.05268 0.740215 4.14645 0.646447C4.24022 0.552678 4.36739 0.5 4.5 0.5H7.5C7.63261 0.5 7.75979 0.552678 7.85356 0.646447C7.94732 0.740215 8 0.867392 8 1C8 1.13261 7.94732 1.25979 7.85356 1.35355C7.75979 1.44732 7.63261 1.5 7.5 1.5H4.5C4.36739 1.5 4.24022 1.44732 4.14645 1.35355C4.05268 1.25979 4 1.13261 4 1Z" fill="#DD502E"/>
</svg>
