<svg width="8" height="8" viewBox="0 0 8 8" fill="none" xmlns="http://www.w3.org/2000/svg">
<path d="M5.67688 3.82314L3.17688 1.32314C3.14191 1.28814 3.09735 1.26429 3.04883 1.25463C3.00031 1.24497 2.95001 1.24992 2.9043 1.26886C2.8586 1.2878 2.81954 1.31987 2.79207 1.36102C2.7646 1.40217 2.74996 1.45054 2.75 1.50001V6.50001C2.74996 6.54949 2.7646 6.59786 2.79207 6.63901C2.81954 6.68016 2.8586 6.71223 2.9043 6.73117C2.95001 6.75011 3.00031 6.75506 3.04883 6.7454C3.09735 6.73573 3.14191 6.71189 3.17688 6.67689L5.67688 4.17689C5.70012 4.15367 5.71856 4.1261 5.73114 4.09575C5.74372 4.0654 5.7502 4.03287 5.7502 4.00001C5.7502 3.96716 5.74372 3.93463 5.73114 3.90428C5.71856 3.87393 5.70012 3.84636 5.67688 3.82314Z" fill="#7A869A"/>
</svg>
