<svg width="72" height="72" viewBox="0 0 72 72" fill="none" xmlns="http://www.w3.org/2000/svg">
<rect width="72" height="72" rx="36" fill="#FEECEB"/>
<path d="M29.2318 18C34.3974 18 39.5724 18 44.738 18C44.738 20.625 44.738 23.25 44.738 25.875C44.738 26.7469 45.1318 27.1406 45.9943 27.1406C48.488 27.1406 50.9724 27.1406 53.4662 27.1406C53.588 27.1406 53.7099 27.1406 53.8599 27.1406C53.8599 27.3188 53.8599 27.4594 53.8599 27.6C53.8599 31.5 53.8599 35.4 53.8599 39.3C53.8599 43.1156 53.8599 46.9406 53.8599 50.7562C53.8599 52.1812 53.0443 53.3531 51.7599 53.8125C51.5537 53.8875 51.338 53.9344 51.1224 54C45.488 54 39.8443 54 34.2099 54C34.2849 53.9437 34.3505 53.8781 34.4255 53.8219C36.5443 52.2281 37.9787 50.1562 38.6912 47.5969C38.8787 46.9406 38.9724 46.2563 39.1224 45.5625C39.3943 45.5625 39.6755 45.5625 39.9568 45.5625C42.563 45.5625 45.1693 45.5625 47.7849 45.5625C48.2724 45.5625 48.6568 45.3844 48.863 44.925C49.1912 44.2031 48.6568 43.4531 47.813 43.4531C45.038 43.4531 42.2724 43.4531 39.4974 43.4531C39.3568 43.4531 39.2255 43.4531 39.0755 43.4531C38.9349 41.9531 38.5224 40.575 37.8662 39.2344C39.488 39.2344 41.063 39.2344 42.6287 39.2344C44.363 39.2344 46.088 39.2344 47.8224 39.2344C48.3005 39.2344 48.6662 39.0375 48.863 38.5969C49.1912 37.875 48.6474 37.125 47.8037 37.125C44.1849 37.125 40.5755 37.1156 36.9568 37.1344C36.6099 37.1344 36.3849 37.0312 36.1505 36.7781C34.1255 34.5469 31.613 33.2438 28.6037 32.9813C27.9099 32.9156 27.2162 32.9719 26.513 32.9719C26.5037 32.8781 26.4943 32.8312 26.4943 32.7844C26.4943 28.8844 26.4849 24.9844 26.5037 21.075C26.5037 20.1 26.9162 19.2563 27.7224 18.6938C28.163 18.3844 28.7255 18.225 29.2318 18ZM40.1818 32.9062C40.4255 32.9062 40.6693 32.9062 40.9224 32.9062C43.2099 32.9062 45.5068 32.9062 47.7943 32.9062C48.2912 32.9062 48.6662 32.7188 48.863 32.2687C49.1912 31.5469 48.6474 30.7969 47.8037 30.7969C43.6974 30.7969 39.6005 30.7969 35.4943 30.7969C34.5005 30.7969 33.5068 30.7969 32.513 30.7969C32.0443 30.7969 31.6974 31.0031 31.5005 31.425C31.163 32.1469 31.6974 32.9062 32.5318 32.9062C35.0818 32.9062 37.6318 32.9062 40.1818 32.9062Z" fill="#DA3E33"/>
<path d="M26.7755 54.0004C25.9692 53.8129 25.1255 53.7191 24.3661 53.4285C20.7474 52.0316 18.5817 49.3879 18.1505 45.516C17.5786 40.3785 21.0942 35.916 26.2036 35.1097C31.1911 34.3222 36.1036 37.9222 36.8911 42.9285C37.7255 48.2722 34.2005 53.1004 28.8755 53.9066C28.688 53.9347 28.5099 53.9629 28.3224 54.0004C27.8067 54.0004 27.2911 54.0004 26.7755 54.0004ZM26.0536 44.4941C25.9505 44.6066 25.8755 44.691 25.7911 44.7754C25.0974 45.4691 24.4036 46.1722 23.7099 46.866C23.4192 47.1566 23.2692 47.5035 23.3724 47.916C23.5786 48.741 24.5349 49.0035 25.163 48.3941C25.8755 47.7004 26.5692 46.9879 27.2724 46.2847C27.3567 46.2004 27.4505 46.116 27.5536 46.0222C28.3505 46.8191 29.1099 47.5972 29.888 48.3566C30.3755 48.8347 31.013 48.8629 31.4442 48.4222C31.8755 47.9816 31.8474 47.3535 31.3692 46.8566C30.6755 46.1535 29.9817 45.4597 29.288 44.766C29.213 44.6816 29.138 44.5972 29.0349 44.4941C29.8224 43.7066 30.6005 42.9472 31.3692 42.1691C31.8567 41.6816 31.8755 41.0441 31.4442 40.6035C31.013 40.1629 30.3755 40.191 29.888 40.6691C29.5036 41.0441 29.1286 41.4285 28.7442 41.8129C28.3505 42.2066 27.9661 42.6097 27.563 43.0129C27.4411 42.9004 27.3567 42.816 27.2724 42.741C26.5692 42.0379 25.8755 41.3254 25.163 40.6316C24.7036 40.1816 24.0755 40.1816 23.6536 40.5941C23.2224 41.016 23.2317 41.6629 23.6817 42.1316C24.0755 42.5347 24.4692 42.9285 24.8724 43.3222C25.2567 43.7066 25.6505 44.091 26.0536 44.4941Z" fill="#DA3E33"/>
<path d="M53.1181 25.0115C51.065 25.0115 48.9744 25.0115 46.865 25.0115C46.865 22.9021 46.865 20.8021 46.865 18.749C48.9369 20.8303 51.0275 22.9303 53.1181 25.0115Z" fill="#DA3E33"/>
</svg>
