<svg width="16" height="16" viewBox="0 0 16 16" fill="none" xmlns="http://www.w3.org/2000/svg">
<path d="M11.5 8H14C14.1326 8 14.2598 8.05268 14.3536 8.14645C14.4473 8.24021 14.5 8.36739 14.5 8.5V12.5C14.5 12.6326 14.4473 12.7598 14.3536 12.8536C14.2598 12.9473 14.1326 13 14 13H2C1.86739 13 1.74021 12.9473 1.64645 12.8536C1.55268 12.7598 1.5 12.6326 1.5 12.5V8.5C1.5 8.36739 1.55268 8.24021 1.64645 8.14645C1.74021 8.05268 1.86739 8 2 8H4.5" stroke="#7A869A" stroke-linecap="round" stroke-linejoin="round"/>
<path d="M8 1.5V8" stroke="#7A869A" stroke-linecap="round" stroke-linejoin="round"/>
<path d="M5 5L8 8L11 5" stroke="#7A869A" stroke-linecap="round" stroke-linejoin="round"/>
<path d="M11.75 11C12.0261 11 12.25 10.7761 12.25 10.5C12.25 10.2239 12.0261 10 11.75 10C11.4739 10 11.25 10.2239 11.25 10.5C11.25 10.7761 11.4739 11 11.75 11Z" fill="#7A869A"/>
</svg>
