<svg width="152" height="152" viewBox="0 0 152 152" fill="none" xmlns="http://www.w3.org/2000/svg">
<path d="M76.354 129.199C103.182 129.199 124.93 105.57 124.93 76.4213C124.93 47.273 103.182 23.6436 76.354 23.6436C49.5261 23.6436 27.7778 47.273 27.7778 76.4213C27.7778 105.57 49.5261 129.199 76.354 129.199Z" fill="#F1F3F9" stroke="#D6DCE8" stroke-width="2" stroke-miterlimit="10"/>
<path d="M112.645 124.607H40.8524C38.6471 124.607 36.8094 122.677 36.8094 120.214V32.6285C36.8094 30.2325 38.5859 28.3024 40.8524 28.3024H112.645C114.85 28.3024 116.688 30.2325 116.688 32.695V120.214C116.688 122.61 114.911 124.607 112.645 124.607Z" fill="white" stroke="#D6DCE8" stroke-width="2" stroke-miterlimit="10"/>
<path d="M108.173 54.7246H44.8336C44.0985 54.7246 43.486 54.0591 43.486 53.2604V40.2157C43.486 39.4171 44.0985 38.7515 44.8336 38.7515H108.173C108.908 38.7515 109.52 39.4171 109.52 40.2157V53.1939C109.581 54.0591 108.969 54.7246 108.173 54.7246Z" fill="#F1F3F9" stroke="#D6DCE8" stroke-width="2" stroke-miterlimit="10"/>
<path d="M50.102 48.7347C51.1169 48.7347 51.9397 47.8408 51.9397 46.7381C51.9397 45.6354 51.1169 44.7415 50.102 44.7415C49.087 44.7415 48.2643 45.6354 48.2643 46.7381C48.2643 47.8408 49.087 48.7347 50.102 48.7347Z" fill="#AAB2C5"/>
<path d="M95.3088 48.0692H58.1263C57.82 48.0692 57.575 47.803 57.575 47.4702V45.9394C57.575 45.6067 57.82 45.3405 58.1263 45.3405H95.3088C95.6151 45.3405 95.8601 45.6067 95.8601 45.9394V47.4702C95.8601 47.803 95.6151 48.0692 95.3088 48.0692Z" fill="#AAB2C5"/>
<path d="M108.173 75.2234H44.8336C44.0985 75.2234 43.486 74.5578 43.486 73.7592V60.781C43.486 59.9824 44.0985 59.3168 44.8336 59.3168H108.173C108.908 59.3168 109.52 59.9824 109.52 60.781V73.7592C109.581 74.5578 108.969 75.2234 108.173 75.2234Z" fill="#F1F3F9" stroke="#D6DCE8" stroke-width="2" stroke-miterlimit="10"/>
<path d="M50.102 69.2334C51.1169 69.2334 51.9397 68.3395 51.9397 67.2368C51.9397 66.1341 51.1169 65.2402 50.102 65.2402C49.087 65.2402 48.2643 66.1341 48.2643 67.2368C48.2643 68.3395 49.087 69.2334 50.102 69.2334Z" fill="#AAB2C5"/>
<path d="M95.3088 68.6345H58.1263C57.82 68.6345 57.575 68.3683 57.575 68.0355V66.5048C57.575 66.172 57.82 65.9058 58.1263 65.9058H95.3088C95.6151 65.9058 95.8601 66.172 95.8601 66.5048V68.0355C95.8601 68.3683 95.6151 68.6345 95.3088 68.6345Z" fill="#AAB2C5"/>
<path d="M108.173 116.288H44.8336C44.0985 116.288 43.486 115.622 43.486 114.823V101.845C43.486 101.047 44.0985 100.381 44.8336 100.381H108.173C108.908 100.381 109.52 101.047 109.52 101.845V114.823C109.581 115.622 108.969 116.288 108.173 116.288Z" fill="#F1F3F9" stroke="#D6DCE8" stroke-width="2" stroke-miterlimit="10"/>
<path d="M50.102 110.298C51.1169 110.298 51.9397 109.404 51.9397 108.301C51.9397 107.198 51.1169 106.304 50.102 106.304C49.087 106.304 48.2643 107.198 48.2643 108.301C48.2643 109.404 49.087 110.298 50.102 110.298Z" fill="#AAB2C5"/>
<path d="M95.3088 109.632H58.1263C57.82 109.632 57.575 109.366 57.575 109.033V107.502C57.575 107.17 57.82 106.903 58.1263 106.903H95.3088C95.6151 106.903 95.8601 107.17 95.8601 107.502V109.033C95.8601 109.366 95.6151 109.632 95.3088 109.632Z" fill="#AAB2C5"/>
<path d="M122.323 94.7221H58.9839C58.9277 94.7221 58.8485 94.6974 58.7702 94.6123C58.6914 94.5267 58.6362 94.401 58.6362 94.2579V81.2798C58.6362 81.1367 58.6914 81.011 58.7702 80.9254C58.8485 80.8403 58.9277 80.8156 58.9839 80.8156H122.323C122.379 80.8156 122.458 80.8403 122.536 80.9254C122.615 81.011 122.67 81.1367 122.67 81.2798V94.2579C122.67 94.401 122.615 94.5267 122.536 94.6123C122.458 94.6974 122.379 94.7221 122.323 94.7221Z" fill="#D6DCE8" stroke="#AAB2C5" stroke-width="2" stroke-miterlimit="10"/>
<path d="M64.2522 89.7988C65.2672 89.7988 66.0899 88.9049 66.0899 87.8021C66.0899 86.6994 65.2672 85.8055 64.2522 85.8055C63.2373 85.8055 62.4146 86.6994 62.4146 87.8021C62.4146 88.9049 63.2373 89.7988 64.2522 89.7988Z" fill="#AAB2C5"/>
<path d="M109.459 89.1333H72.2765C71.9702 89.1333 71.7252 88.8671 71.7252 88.5343V87.0035C71.7252 86.6708 71.9702 86.4045 72.2765 86.4045H109.459C109.765 86.4045 110.01 86.6708 110.01 87.0035V88.5343C110.01 88.8671 109.765 89.1333 109.459 89.1333Z" fill="#AAB2C5"/>
</svg>
