<svg width="141" height="140" viewBox="0 0 141 140" fill="none" xmlns="http://www.w3.org/2000/svg">
<path d="M56.5742 54.7698V48.2364C56.5742 41.7031 61.7853 36.3364 68.3964 36.3364C74.852 36.3364 80.2187 41.6253 80.2187 48.2364V54.7698" stroke="#D6DCE8" stroke-width="1.8941" stroke-miterlimit="10" stroke-linecap="round" stroke-linejoin="round"/>
<path d="M97.0195 103.303C97.3306 103.148 97.4084 102.992 97.7195 102.914" stroke="#FF78B7" stroke-width="0.6123" stroke-linecap="round" stroke-linejoin="round"/>
<path d="M32.8535 108.825H116.309" stroke="#D6DCE8" stroke-width="2" stroke-miterlimit="10" stroke-linecap="round" stroke-linejoin="round"/>
<path d="M25.2305 108.825H28.6527" stroke="#D6DCE8" stroke-width="2" stroke-miterlimit="10" stroke-linecap="round" stroke-linejoin="round"/>
<path d="M102.931 42.4031H36.6641V108.825H102.931V42.4031Z" fill="#F1F3F9" stroke="#D6DCE8" stroke-width="2" stroke-miterlimit="10"/>
<path d="M103.087 42.4031H55.0977V108.825H103.009V42.4031H103.087Z" fill="white" stroke="#D6DCE8" stroke-width="2" stroke-miterlimit="10"/>
<path d="M45.8418 42.4031H36.6641V108.825H45.8418V42.4031Z" fill="#F1F3F9" stroke="#D6DCE8" stroke-width="2" stroke-miterlimit="10"/>
<path d="M55.0974 108.825H36.6641V108.67L45.9974 99.4142L55.0974 108.825Z" fill="#F1F3F9" stroke="#D6DCE8" stroke-width="2" stroke-miterlimit="10"/>
<path d="M66.6865 57.1809C68.0087 57.1809 69.0976 56.092 69.0976 54.7698C69.0976 53.4475 68.0087 52.3586 66.6865 52.3586C65.3643 52.3586 64.2754 53.4475 64.2754 54.7698C64.2754 56.092 65.3643 57.1809 66.6865 57.1809Z" fill="#D6DCE8"/>
<path d="M90.331 57.1809C91.6533 57.1809 92.7421 56.092 92.7421 54.7698C92.7421 53.4475 91.6533 52.3586 90.331 52.3586C89.0088 52.3586 87.9199 53.4475 87.9199 54.7698C87.9977 56.092 89.0088 57.1809 90.331 57.1809Z" fill="#D6DCE8"/>
<path d="M66.6855 54.7698V48.2364C66.6855 41.7031 71.8967 36.3364 78.5078 36.3364C84.9633 36.3364 90.33 41.6253 90.33 48.2364V54.7698" stroke="#D6DCE8" stroke-width="1.8941" stroke-miterlimit="10" stroke-linecap="round" stroke-linejoin="round"/>
<path d="M97.869 33.6604C99.5486 32.5837 101.53 31.9808 103.64 31.9808C109.411 31.9808 114.105 36.632 114.105 42.403C114.105 48.174 109.411 52.8252 103.64 52.8252C97.869 52.8252 93.1747 48.174 93.1747 42.403C93.0886 38.7423 94.9835 35.5553 97.869 33.6604Z" fill="#D6DCE8" stroke="#AAB2C5" stroke-width="2" stroke-miterlimit="10"/>
<path d="M104.112 42.2883L104.11 42.3196V42.3509C104.11 43.1198 103.95 43.5299 103.823 43.7161C103.716 43.8745 103.644 43.8682 103.639 43.8677C103.639 43.8677 103.639 43.8677 103.639 43.8677C103.639 43.8677 103.639 43.8677 103.639 43.8677C103.634 43.8682 103.562 43.8745 103.455 43.7161C103.328 43.5299 103.167 43.1198 103.167 42.3509C103.167 41.6471 103.323 41.2252 103.463 41.0127C103.551 40.8787 103.617 40.8433 103.641 40.835C103.662 40.8399 103.755 40.8685 103.866 41.0306C104.002 41.2273 104.154 41.6217 104.112 42.2883ZM103.65 40.8328C103.651 40.833 103.649 40.8335 103.644 40.8338C103.648 40.8327 103.65 40.8326 103.65 40.8328ZM98.75 42.3509C98.75 45.5867 100.847 48.07 103.639 48.07C106.43 48.07 108.528 45.5867 108.528 42.3509C108.528 39.0829 106.402 36.7366 103.639 36.7366C100.875 36.7366 98.75 39.0829 98.75 42.3509Z" fill="white" stroke="#AAB2C5" stroke-width="2"/>
<path d="M71.0215 76.0807C68.3498 76.0807 66.1055 74.3713 65.2505 71.914C65.0368 71.3799 65.3574 70.8457 65.8918 70.632C66.4261 70.4183 66.9605 70.7388 67.1742 71.273C67.7086 72.8756 69.3116 74.0508 71.0215 74.0508C72.7315 74.0508 74.3345 72.9824 74.8689 71.273C75.0826 70.7388 75.617 70.4183 76.1513 70.632C76.6857 70.8457 77.0063 71.3799 76.7925 71.914C75.9376 74.4781 73.6933 76.0807 71.0215 76.0807Z" fill="#9FA8BA"/>
<path d="M87.1602 76.0807C84.4885 76.0807 82.2442 74.3713 81.3892 71.914C81.1755 71.3799 81.4961 70.8457 82.0304 70.632C82.5648 70.4183 83.0991 70.7388 83.3129 71.273C83.8472 72.8756 85.4503 74.0508 87.1602 74.0508C88.8701 74.0508 90.4732 72.9824 91.0075 71.273C91.2213 70.7388 91.7556 70.4183 92.29 70.632C92.8243 70.8457 93.1449 71.3799 92.9312 71.914C92.0762 74.4781 89.832 76.0807 87.1602 76.0807Z" fill="#9FA8BA"/>
<path d="M79.1436 89.1617C80.5011 89.1617 81.6016 88.0616 81.6016 86.7045C81.6016 85.3473 80.5011 84.2472 79.1436 84.2472C77.786 84.2472 76.6855 85.3473 76.6855 86.7045C76.6855 88.0616 77.786 89.1617 79.1436 89.1617Z" fill="#9FA8BA"/>
<path d="M34.3781 34.9113V31.2949H48.3548V34.9113L38.8177 46.4181H48.5193V50.0345H33.8848V46.4181L43.4218 34.9113H34.3781Z" fill="#9FA8BA"/>
<path d="M45.8875 62.0345V59.7332H54.9312V62.0345L48.8472 69.4317H55.0957V71.7331H45.5586V69.4317L51.6426 62.0345H45.8875Z" fill="#9FA8BA"/>
</svg>
