<svg width="140" height="140" viewBox="0 0 140 140" fill="none" xmlns="http://www.w3.org/2000/svg">
  <path d="M24.3176 43.7836C26.1714 43.7836 27.6742 42.2799 27.6742 40.425C27.6742 38.5701 26.1714 37.0664 24.3176 37.0664C22.4638 37.0664 20.9609 38.5701 20.9609 40.425C20.9609 42.2799 22.4638 43.7836 24.3176 43.7836Z" fill="#F1F3F9"/>
  <path d="M116.184 54.0375C118.038 54.0375 119.54 52.5338 119.54 50.6789C119.54 48.824 118.038 47.3203 116.184 47.3203C114.33 47.3203 112.827 48.824 112.827 50.6789C112.827 52.5338 114.33 54.0375 116.184 54.0375Z" fill="#EAEEF9"/>
  <path d="M31.1199 32.382C31.8517 32.382 32.4449 31.7884 32.4449 31.0562C32.4449 30.324 31.8517 29.7305 31.1199 29.7305C30.3881 29.7305 29.7949 30.324 29.7949 31.0562C29.7949 31.7884 30.3881 32.382 31.1199 32.382Z" fill="#F1F3F9"/>
  <path d="M112.297 39.8088C113.078 39.8088 113.71 39.1756 113.71 38.3946C113.71 37.6136 113.078 36.9805 112.297 36.9805C111.517 36.9805 110.884 37.6136 110.884 38.3946C110.884 39.1756 111.517 39.8088 112.297 39.8088Z" fill="#F1F3F9"/>
  <path d="M69.5721 119C96.4192 119 118.183 97.2356 118.183 70.3885C118.183 43.5413 96.4192 21.7773 69.5721 21.7773C42.7249 21.7773 20.9609 43.5413 20.9609 70.3885C20.9609 97.2356 42.7249 119 69.5721 119Z" fill="#F1F3F9" stroke="#D6DCE8" stroke-width="2" stroke-miterlimit="10"/>
  <path d="M83.1476 98.2269L40.9245 115.285C40.2179 115.55 39.4229 115.197 39.1579 114.578L14.8664 54.2117C14.6014 53.5046 14.9547 52.7092 15.573 52.444L57.7961 35.3859C58.5027 35.1208 59.2977 35.4743 59.5627 36.093L83.8542 96.3708C84.2075 97.1663 83.8542 97.9617 83.1476 98.2269Z" fill="white" stroke="#D6DCE8" stroke-width="2" stroke-miterlimit="10"/>
  <path d="M64.5094 62.5216L29.1763 76.7514C28.8229 76.9281 28.4696 76.7514 28.2929 76.3978C28.1163 76.0443 28.2929 75.6908 28.6463 75.514L63.891 61.2842C64.2444 61.1074 64.5977 61.2842 64.7744 61.6377C64.951 61.9913 64.7744 62.3448 64.5094 62.5216Z" fill="#F1F3F9"/>
  <path d="M65.8341 65.9669L30.5894 80.1967C30.236 80.3734 29.8827 80.1967 29.706 79.8431C29.5294 79.4896 29.706 79.1361 30.0594 78.9593L65.3041 64.7295C65.6574 64.5527 66.0108 64.7295 66.1874 65.083C66.3641 65.4366 66.1874 65.7901 65.8341 65.9669Z" fill="#F1F3F9"/>
  <path d="M67.2472 69.3238L32.0024 83.642C31.6491 83.8188 31.2958 83.642 31.1191 83.2884C30.9424 82.9349 31.1191 82.5814 31.4724 82.4046L66.7172 68.1748C67.0705 67.998 67.4239 68.1748 67.6005 68.5284C67.7772 68.7935 67.6005 69.2354 67.2472 69.3238Z" fill="#F1F3F9"/>
  <path d="M46.6664 81.6973L33.4165 87.0888C33.0632 87.2655 32.7098 87.0888 32.5332 86.7352C32.3565 86.3817 32.5332 86.0282 32.8865 85.8514L46.1364 80.46C46.4897 80.2832 46.8431 80.46 47.0197 80.8135C47.1081 81.167 47.0197 81.5206 46.6664 81.6973Z" fill="#F1F3F9"/>
  <path d="M71.841 78.074L72.9893 80.9906C73.166 81.5209 72.9893 82.1396 72.4593 82.3164L37.5679 96.4578C37.0379 96.6346 36.4196 96.4578 36.2429 95.9275L35.0946 92.9224C34.9179 92.3921 35.0946 91.7734 35.6246 91.5967L70.516 77.5437C71.046 77.3669 71.576 77.632 71.841 78.074Z" fill="#F1F3F9"/>
  <path d="M74.5797 84.7927L75.728 87.7094C75.9047 88.2397 75.728 88.8584 75.198 89.0351L40.3066 103.177C39.7766 103.353 39.1583 103.177 38.9816 102.646L37.745 99.6412C37.5683 99.1109 37.745 98.4922 38.275 98.3154L73.1664 84.2624C73.6964 84.0856 74.3147 84.3508 74.5797 84.7927Z" fill="#F1F3F9"/>
  <path d="M77.2296 91.5086L78.378 94.4253C78.5546 94.9556 78.378 95.5743 77.848 95.7511L42.9566 109.892C42.4266 110.069 41.8082 109.892 41.6316 109.362L40.4832 106.446C40.3066 105.915 40.4832 105.297 41.0132 105.12L75.9047 91.0667C76.4347 90.8016 77.053 91.0667 77.2296 91.5086Z" fill="#F1F3F9"/>
  <path d="M39.2462 90.1836L41.1895 95.0447L37.5679 96.4588C37.0379 96.6356 36.4196 96.4588 36.2429 95.9285L35.0946 92.9235C34.9179 92.3932 35.0946 91.7745 35.6246 91.5977L39.2462 90.1836Z" fill="#AAB2C5"/>
  <path d="M38.3633 98.3152L48.9632 93.9844L50.9065 98.8455L40.3066 103.176C39.7766 103.353 39.1583 103.176 38.9816 102.646L37.7449 99.6409C37.5683 99.199 37.8333 98.5803 38.3633 98.3152Z" fill="#D6DCE8"/>
  <path d="M41.0132 105.033L42.5149 104.414L44.4582 109.275L42.9566 109.894C42.4266 110.071 41.8082 109.894 41.6316 109.364L40.4832 106.447C40.3066 105.917 40.4832 105.298 41.0132 105.033Z" fill="#D6DCE8"/>
  <path d="M41.5433 59.5142C41.455 54.6531 37.48 50.6758 32.5334 50.6758H32.445C27.4984 50.6758 23.5234 54.7414 23.5234 59.6909C23.6118 64.6404 27.6751 68.6177 32.6217 68.6177C35.36 68.6177 37.745 67.3803 39.4233 65.5243C40.8366 63.9334 41.6316 61.9005 41.6316 59.6025C41.5433 59.6025 41.5433 59.6025 41.5433 59.5142ZM32.6217 65.7894C29.2651 65.7894 26.5268 63.0495 26.5268 59.6909C26.5268 56.3323 29.2651 53.5924 32.6217 53.5924H32.71C36.0667 53.5924 38.7167 56.244 38.805 59.5142C38.805 59.6025 38.805 59.6025 38.805 59.6909C38.805 61.1935 38.275 62.6076 37.3033 63.6682C36.0667 64.994 34.4767 65.7894 32.6217 65.7894Z" fill="#F1F3F9"/>
  <path d="M41.5431 59.5142H38.6282C38.6282 56.244 35.8898 53.5924 32.6215 53.5924H32.5332V50.6758H32.6215C37.4798 50.6758 41.4548 54.6531 41.5431 59.5142Z" fill="#D6DCE8"/>
  <path d="M100.373 111.925L57.7082 96.0164C57.0015 95.7512 56.6482 94.9558 56.9132 94.2487L79.5264 33.3522C79.7914 32.6452 80.5863 32.2916 81.293 32.5568L123.958 48.3775C124.664 48.6426 125.018 49.4381 124.753 50.1452L102.14 111.13C101.875 111.837 101.08 112.191 100.373 111.925Z" fill="white" stroke="#D6DCE8" stroke-width="2" stroke-miterlimit="10"/>
  <path opacity="0.4" d="M94.7194 59.9575L91.2744 58.6318L94.1011 50.7656L97.546 52.003L94.7194 59.9575Z" fill="#E6EDF5"/>
  <path d="M99.4015 61.635L95.8682 60.3093L100.196 48.2891L103.641 49.6148L99.4015 61.635Z" fill="#AAB2C5"/>
  <path d="M108.676 64.9057L105.231 63.6684L110.885 47.8477L114.418 49.085L108.676 64.9057Z" fill="#D6DCE8"/>
  <path opacity="0.4" d="M113.092 66.4979L109.647 65.2605L111.149 60.9297L114.682 62.2554L113.092 66.4979Z" fill="#E6EDF5"/>
  <path d="M110.619 72.9496L74.9329 59.692C74.5796 59.6036 74.4029 59.1617 74.4913 58.8082C74.5796 58.4547 75.0213 58.2779 75.3746 58.3663L111.061 71.6238C111.414 71.7122 111.591 72.1542 111.503 72.5077C111.326 72.8612 110.973 73.038 110.619 72.9496Z" fill="#F1F3F9"/>
  <path d="M109.294 76.3949L73.6077 63.1373C73.2544 63.049 73.0777 62.607 73.1661 62.2535C73.2544 61.9 73.6961 61.7232 74.0494 61.8116L109.736 75.0692C110.089 75.1575 110.266 75.5995 110.177 75.953C110.089 76.3065 109.647 76.5717 109.294 76.3949Z" fill="#F1F3F9"/>
  <path d="M108.058 79.8402L72.3714 66.5827C72.0181 66.4943 71.8414 66.0524 71.9297 65.6988C72.0181 65.3453 72.4597 65.1685 72.8131 65.2569L108.499 78.5145C108.853 78.6029 109.029 79.0448 108.941 79.3983C108.764 79.8402 108.411 80.017 108.058 79.8402Z" fill="#F1F3F9"/>
  <path d="M84.5616 75.0712L71.1351 70.1217C70.7817 70.0333 70.6051 69.5914 70.6934 69.2379C70.7817 68.8843 71.2234 68.7076 71.5767 68.796L85.0033 73.7455C85.3566 73.8338 85.5333 74.2758 85.445 74.6293C85.2683 74.9828 84.915 75.1596 84.5616 75.0712Z" fill="#DDDDDD"/>
  <path d="M105.584 89.3893L104.524 92.3944C104.348 92.9247 103.729 93.1898 103.199 93.0131L95.6027 90.1848L67.8662 79.8439C67.3362 79.6671 67.0712 79.0484 67.2479 78.5181L68.3079 75.5131C68.4845 74.9828 69.1028 74.7176 69.6328 74.8944L97.1927 85.1469L104.878 87.9752C105.496 88.3287 105.761 88.859 105.584 89.3893Z" fill="#F1F3F9"/>
  <path d="M103.023 96.1916L101.963 99.1966C101.787 99.7269 101.168 99.9921 100.638 99.8153L98.0766 98.8431L65.3935 86.7345C64.8635 86.5577 64.5985 85.939 64.7752 85.4087L65.8352 82.4037C66.0119 81.8734 66.6302 81.6082 67.1602 81.785L99.9316 93.982L102.405 94.9542C102.935 95.131 103.2 95.6613 103.023 96.1916Z" fill="#F1F3F9"/>
  <path d="M100.55 103L99.4896 106.005C99.313 106.536 98.6947 106.801 98.1647 106.624L85.0914 101.763L62.9199 93.5431C62.3899 93.3663 62.1249 92.7476 62.3016 92.2173L63.3616 89.2123C63.5382 88.682 64.1566 88.4168 64.6866 88.5936L87.3881 96.9901L99.9313 101.674C100.461 101.851 100.726 102.47 100.55 103Z" fill="#F1F3F9"/>
  <path d="M64.6866 88.5905L87.3881 96.987L85.0914 101.671L62.9199 93.4516C62.3899 93.2749 62.1249 92.6562 62.3016 92.1259L63.3616 89.1208C63.5382 88.6789 64.1566 88.4138 64.6866 88.5905Z" fill="#D6DCE8"/>
  <path d="M67.2479 78.6041L68.3079 75.599C68.4845 75.0687 69.1028 74.8036 69.6328 74.9803L97.1927 85.2328L95.426 90.094L67.8662 79.8414C67.3362 79.6647 67.0712 79.1344 67.2479 78.6041Z" fill="#D6DCE8"/>
  <path d="M99.9316 93.982L98.0766 98.8431L65.3935 86.7345C64.8635 86.5577 64.5985 85.939 64.7752 85.4087L65.8352 82.4037C66.0119 81.8734 66.6302 81.6082 67.1602 81.785L99.9316 93.982Z" fill="#D6DCE8"/>
  <path d="M76.2578 77.4575L74.4911 82.3186L67.8662 79.8439C67.3362 79.6671 67.0712 79.0484 67.2479 78.5181L68.3079 75.5131C68.4845 74.9828 69.1028 74.7176 69.6328 74.8944L76.2578 77.4575Z" fill="#DDDDDD"/>
  <path d="M67.1602 81.7858L73.7851 84.2606L72.0185 89.1217L65.3935 86.6469C64.8635 86.4702 64.5985 85.8515 64.7752 85.3212L65.8352 82.3161C66.1002 81.8742 66.6302 81.6091 67.1602 81.7858Z" fill="#DDDDDD"/>
  <path d="M64.6866 88.5905L71.3115 91.0653L69.5449 95.9264L62.9199 93.4516C62.3899 93.2749 62.1249 92.6562 62.3016 92.1259L63.3616 89.1208C63.5382 88.6789 64.1566 88.4138 64.6866 88.5905Z" fill="#DDDDDD"/>
  <path d="M92.7763 97.1669H47.285C46.5783 97.1669 45.96 96.5482 45.96 95.8411V30.7906C45.96 30.0835 46.5783 29.4648 47.285 29.4648H92.7763C93.483 29.4648 94.1013 30.0835 94.1013 30.7906V95.7527C94.1896 96.5482 93.5713 97.1669 92.7763 97.1669Z" fill="white" stroke="#D6DCE8" stroke-width="2" stroke-miterlimit="10"/>
  <path d="M88.8011 54.4758H50.818C50.4647 54.4758 50.1113 54.2108 50.1113 53.7692C50.1113 53.4158 50.3763 53.0625 50.818 53.0625H88.8011C89.1544 53.0625 89.5077 53.3275 89.5077 53.7692C89.5077 54.1225 89.1544 54.4758 88.8011 54.4758Z" fill="#F1F3F9"/>
  <path d="M88.8011 58.1008H50.818C50.4647 58.1008 50.1113 57.8358 50.1113 57.3942C50.1113 57.0408 50.3763 56.6875 50.818 56.6875H88.8011C89.1544 56.6875 89.5077 56.9525 89.5077 57.3942C89.5077 57.8358 89.1544 58.1008 88.8011 58.1008Z" fill="#F1F3F9"/>
  <path d="M88.8011 61.8118H50.818C50.4647 61.8118 50.1113 61.5468 50.1113 61.1051C50.1113 60.7518 50.3763 60.3984 50.818 60.3984H88.8011C89.1544 60.3984 89.5077 60.6634 89.5077 61.1051C89.5077 61.5468 89.1544 61.8118 88.8011 61.8118Z" fill="#F1F3F9"/>
  <path d="M88.7131 75.6907H75.9049C75.5516 75.6907 75.1982 75.4257 75.1982 74.984C75.1982 74.6307 75.4632 74.2773 75.9049 74.2773H88.7131C89.0665 74.2773 89.4198 74.5423 89.4198 74.984C89.3315 75.3373 89.0665 75.6907 88.7131 75.6907Z" fill="#F1F3F9"/>
  <path d="M68.0433 79.4907C67.955 74.6296 63.98 70.6523 59.0334 70.6523H58.945C53.9984 70.6523 50.0234 74.718 50.0234 79.6675C50.0234 84.617 54.0867 88.6826 59.0334 88.6826C61.7717 88.6826 64.1567 87.4453 65.835 85.5892C67.2483 83.9983 68.0433 81.9655 68.0433 79.6675C68.0433 79.5791 68.0433 79.4907 68.0433 79.4907ZM59.0334 85.6776C55.6767 85.6776 52.9384 82.9377 52.9384 79.5791C52.9384 76.2205 55.6767 73.4806 59.0334 73.4806H59.1217C62.4783 73.4806 65.1283 76.1321 65.2167 79.4023C65.2167 79.4907 65.2167 79.4907 65.2167 79.5791C65.2167 81.0816 64.6867 82.4958 63.715 83.5564C62.4784 84.8821 60.8884 85.6776 59.0334 85.6776Z" fill="#F1F3F9"/>
  <path d="M68.0436 79.4907H65.1286C65.0403 76.2205 62.3903 73.569 59.0336 73.569H58.9453V70.6523H59.0336C63.9803 70.6523 67.9552 74.5412 68.0436 79.4907Z" fill="#D6DCE8"/>
  <path d="M68.0436 79.5767C68.0436 81.8746 67.2486 83.9075 65.8353 85.4984L63.627 83.6423C64.5986 82.5817 65.1286 81.1676 65.1286 79.665C65.1286 79.5767 65.1286 79.5767 65.1286 79.4883H68.0436V79.5767Z" fill="#AAB2C5"/>
  <path d="M72.8135 75.9562C73.3501 75.9562 73.7851 75.5209 73.7851 74.9839C73.7851 74.447 73.3501 74.0117 72.8135 74.0117C72.2768 74.0117 71.8418 74.447 71.8418 74.9839C71.8418 75.5209 72.2768 75.9562 72.8135 75.9562Z" fill="#F1F3F9"/>
  <path d="M88.7131 79.7532H75.9049C75.5516 79.7532 75.1982 79.4882 75.1982 79.0465C75.1982 78.6932 75.4632 78.3398 75.9049 78.3398H88.7131C89.0665 78.3398 89.4198 78.6048 89.4198 79.0465C89.3315 79.3998 89.0665 79.7532 88.7131 79.7532Z" fill="#F1F3F9"/>
  <path d="M72.8135 80.0187C73.3501 80.0187 73.7851 79.5834 73.7851 79.0464C73.7851 78.5095 73.3501 78.0742 72.8135 78.0742C72.2768 78.0742 71.8418 78.5095 71.8418 79.0464C71.8418 79.5834 72.2768 80.0187 72.8135 80.0187Z" fill="#D6DCE8"/>
  <path d="M88.7131 83.8196H75.9049C75.5516 83.8196 75.1982 83.5546 75.1982 83.1129C75.1982 82.7596 75.4632 82.4062 75.9049 82.4062H88.7131C89.0665 82.4062 89.4198 82.6713 89.4198 83.1129C89.3315 83.4662 89.0665 83.8196 88.7131 83.8196Z" fill="#F1F3F9"/>
  <path d="M72.8135 84.0851C73.3501 84.0851 73.7851 83.6498 73.7851 83.1128C73.7851 82.5759 73.3501 82.1406 72.8135 82.1406C72.2768 82.1406 71.8418 82.5759 71.8418 83.1128C71.8418 83.6498 72.2768 84.0851 72.8135 84.0851Z" fill="#AAB2C5"/>
  <path d="M50.376 49.6176H89.419V33.7969L83.2357 36.8903L79.9674 39.1883L74.1375 39.0999L69.0142 41.7514L64.5975 42.3701L63.0076 44.1378L58.4143 47.0545L53.9093 47.8499L50.376 49.6176Z" fill="#D6DCE8"/>
  <path d="M50.376 49.6179H89.419V37.5977L83.2357 39.8956L79.9674 41.6633L74.1375 41.5749L69.0142 43.6078L64.5975 44.1381L63.0076 45.3754L58.4143 47.6734L53.9093 48.2921L50.376 49.6179Z" fill="#F1F3F9"/>
  <path d="M50.376 49.6181H89.419V42.8125L83.2357 44.1383L79.9674 45.1105H74.1375L69.0142 46.1711L64.5975 46.5246L63.0076 47.2317L58.4143 48.4691L53.9093 48.8226L50.376 49.6181Z" fill="#AAB2C5"/>
</svg>
