<svg width="140" height="141" viewBox="0 0 150 141" fill="none" xmlns="http://www.w3.org/2000/svg">
<path d="M82.1007 114.345C108.886 114.345 130.71 92.5469 130.71 65.7737C130.62 38.91 108.886 17.1116 82.1007 17.1116C55.2256 17.1116 33.491 38.91 33.491 65.6832C33.491 92.5469 55.2256 114.345 82.1007 114.345Z" fill="#F1F3F9" stroke="#D6DCE8" stroke-width="2" stroke-miterlimit="10"/>
<path d="M127.775 72.1115C127.775 81.3037 120.343 88.7374 111.072 88.7374C110.912 88.7374 109.553 88.7374 99.5633 88.7374C92.6103 88.7374 81.5013 88.7374 63.759 88.7374H55.2875C44.1785 88.9772 35.3074 80.1048 35.3074 69.3938C35.3074 58.603 44.2585 49.6506 55.5272 50.2101C65.1976 19.9958 109.473 24.2322 113.23 55.4857C121.541 56.5248 127.775 63.5588 127.775 72.1115Z" fill="white" stroke="#D6DCE8" stroke-width="2" stroke-miterlimit="10"/>
<path d="M112.99 55.5658C112.351 55.4858 111.711 55.4858 111.072 55.4858C107.795 55.4858 104.678 56.4449 102.041 58.1233" fill="white"/>
<path d="M112.99 55.5658C112.351 55.4858 111.711 55.4858 111.072 55.4858C107.795 55.4858 104.678 56.4449 102.041 58.1233" stroke="#D6DCE8" stroke-width="2" stroke-miterlimit="10" stroke-linecap="round"/>
<path d="M55.5272 50.2102C54.5681 53.0878 54.0886 56.1252 54.0886 59.3225C54.0886 60.6014 54.1685 61.8004 54.3284 62.9993" fill="white"/>
<path d="M55.5272 50.2102C54.5681 53.0878 54.0886 56.1252 54.0886 59.3225C54.0886 60.6014 54.1685 61.8004 54.3284 62.9993" stroke="#D6DCE8" stroke-width="2" stroke-miterlimit="10" stroke-linecap="round" stroke-linejoin="round"/>
<path d="M73.4378 68.982C74.6963 68.982 75.7611 67.9171 75.7611 66.6586C75.7611 65.4001 74.6963 64.3352 73.4378 64.3352C72.1794 64.3352 71.1145 65.4001 71.1145 66.6586C71.1145 67.9171 72.1794 68.982 73.4378 68.982Z" fill="#989FB0"/>
<path d="M91.2498 68.982C92.5083 68.982 93.5731 67.9171 93.5731 66.6586C93.5731 65.4001 92.5083 64.3352 91.2498 64.3352C89.9914 64.3352 88.9265 65.4001 88.9265 66.6586C88.9265 68.0139 89.9914 68.982 91.2498 68.982Z" fill="#989FB0"/>
<path d="M73.3469 58.9716L68.2363 61.7314L68.9262 63.0092L74.0367 60.2494L73.3469 58.9716Z" fill="#989FB0"/>
<path d="M90.9339 58.9345L90.2441 60.2124L95.3554 62.9714L96.0452 61.6936L90.9339 58.9345Z" fill="#989FB0"/>
<path d="M82.3441 74.4041C83.8411 74.4041 85.0546 73.4939 85.0546 72.3711C85.0546 71.2483 83.8411 70.3381 82.3441 70.3381C80.8471 70.3381 79.6335 71.2483 79.6335 72.3711C79.6335 73.4939 80.8471 74.4041 82.3441 74.4041Z" fill="#989FB0"/>
<path d="M27.967 32.2427C27.967 32.2427 15.9487 35.2945 19.5906 37.736C23.2325 40.0555 31.8517 44.0839 39.9854 41.3983C48.119 38.7126 39.9854 34.9283 40.1068 34.9283C40.2282 34.9283 27.967 32.2427 27.967 32.2427Z" fill="#F1F3F9" stroke="#D6DCE8" stroke-width="1.90138" stroke-miterlimit="10"/>
<path d="M13.2778 31.2663C17.6481 32.6092 31.1233 30.4118 39.7425 24.7964C46.5407 33.2195 49.0901 35.4169 51.518 35.661C47.7547 39.4453 35.2508 45.5491 28.2097 37.6142C19.9547 42.8634 13.2778 31.2663 13.2778 31.2663Z" fill="white" stroke="#D6DCE8" stroke-width="1.90138" stroke-miterlimit="10" stroke-linejoin="round"/>
<path d="M112.833 61.7895C117.446 62.0337 129.95 56.4182 136.749 48.8496C145.489 55.3196 148.403 56.7845 150.952 56.4182C148.16 61.0571 139.662 71.1893 127.644 71.9217C118.903 66.7946 112.833 61.7895 112.833 61.7895Z" fill="white" stroke="#D6DCE8" stroke-width="1.90138" stroke-miterlimit="10" stroke-linejoin="round"/>
<path d="M81.4457 120.336C80.533 115.807 71.9807 105.094 62.9583 100.394C67.0462 90.3162 67.7389 87.1292 66.7493 84.7511C71.9367 86.3001 83.8649 92.0074 87.5679 103.466C84.7803 113.21 81.4457 120.336 81.4457 120.336Z" fill="white" stroke="#D6DCE8" stroke-width="1.90138" stroke-miterlimit="10" stroke-linejoin="round"/>
</svg>
