<svg width="140" height="140" viewBox="0 0 140 140" fill="none" xmlns="http://www.w3.org/2000/svg">
<path d="M70.354 119C97.1819 119 118.93 97.2356 118.93 70.3885C118.93 43.5413 97.1819 21.7773 70.354 21.7773C43.5261 21.7773 21.7778 43.5413 21.7778 70.3885C21.7778 97.2356 43.5261 119 70.354 119Z" fill="#F1F3F9" stroke="#D6DCE8" stroke-width="2" stroke-miterlimit="10"/>
<path d="M112.162 105.743H28.2348C26.1433 105.743 24.4272 104.051 24.4272 101.989V37.9064C24.4272 35.8443 26.1433 34.1523 28.2348 34.1523H112.162C114.254 34.1523 115.97 35.8443 115.97 37.9064V101.989C115.97 104.051 114.254 105.743 112.162 105.743Z" fill="white" stroke="#D6DCE8" stroke-width="2" stroke-miterlimit="10"/>
<path d="M108.247 80.8939H31.6132C30.3798 80.8939 29.3608 79.8743 29.3608 78.64V55.4024C29.3608 54.1681 30.3798 53.1484 31.6132 53.1484H108.247C109.481 53.1484 110.5 54.1681 110.5 55.4024V78.5863C110.5 79.8743 109.481 80.8939 108.247 80.8939Z" fill="#F1F3F9"/>
<mask id="mask0_5220_33011" style="mask-type:alpha" maskUnits="userSpaceOnUse" x="29" y="53" width="82" height="28">
<path d="M108.247 80.8939H31.6132C30.3798 80.8939 29.3608 79.8743 29.3608 78.64V55.4024C29.3608 54.1681 30.3798 53.1484 31.6132 53.1484H108.247C109.481 53.1484 110.5 54.1681 110.5 55.4024V78.5863C110.5 79.8743 109.481 80.8939 108.247 80.8939Z" fill="#F1F3F9"/>
</mask>
<g mask="url(#mask0_5220_33011)">
<path d="M97.3067 82.5041H42.5527V59.6423C42.5527 58.7836 43.2499 58.0859 44.1079 58.0859H95.7515C96.6095 58.0859 97.3067 58.7836 97.3067 59.6423V82.5041Z" fill="white" stroke="#D6DCE8" stroke-width="2" stroke-miterlimit="10"/>
</g>
<path fill-rule="evenodd" clip-rule="evenodd" d="M50.437 66.9976C50.437 66.7012 50.6771 66.4609 50.9733 66.4609H64.702C64.9982 66.4609 65.2383 66.7012 65.2383 66.9976C65.2383 67.294 64.9982 67.5343 64.702 67.5343H50.9733C50.6771 67.5343 50.437 67.294 50.437 66.9976Z" fill="#AAB2C5"/>
<path fill-rule="evenodd" clip-rule="evenodd" d="M50.437 70.4859C50.437 70.1895 50.6771 69.9492 50.9733 69.9492H60.2509C60.5471 69.9492 60.7872 70.1895 60.7872 70.4859C60.7872 70.7823 60.5471 71.0225 60.2509 71.0225H50.9733C50.6771 71.0225 50.437 70.7823 50.437 70.4859Z" fill="#AAB2C5"/>
<path fill-rule="evenodd" clip-rule="evenodd" d="M50.437 73.4898C50.437 73.1934 50.6771 72.9531 50.9733 72.9531H88.5664C88.8625 72.9531 89.1026 73.1934 89.1026 73.4898C89.1026 73.7862 88.8625 74.0265 88.5664 74.0265H50.9733C50.6771 74.0265 50.437 73.7862 50.437 73.4898Z" fill="#AAB2C5"/>
<path fill-rule="evenodd" clip-rule="evenodd" d="M50.437 76.6031C50.437 76.3067 50.6771 76.0664 50.9733 76.0664H88.5664C88.8625 76.0664 89.1026 76.3067 89.1026 76.6031C89.1026 76.8995 88.8625 77.1397 88.5664 77.1397H50.9733C50.6771 77.1397 50.437 76.8995 50.437 76.6031Z" fill="#AAB2C5"/>
<path fill-rule="evenodd" clip-rule="evenodd" d="M50.437 79.7164C50.437 79.42 50.6771 79.1797 50.9733 79.1797H88.5664C88.8625 79.1797 89.1026 79.42 89.1026 79.7164C89.1026 80.0127 88.8625 80.253 88.5664 80.253H50.9733C50.6771 80.253 50.437 80.0127 50.437 79.7164Z" fill="#AAB2C5"/>
<path d="M90.7641 46.0121H43.7325C43.089 46.0121 42.5527 45.5873 42.5527 45.0775V43.5908C42.5527 43.081 43.089 42.6562 43.7325 42.6562H90.7641C91.4076 42.6562 91.9439 43.081 91.9439 43.5908V45.0775C91.9975 45.5873 91.4613 46.0121 90.7641 46.0121Z" fill="#AAB2C5"/>
<path d="M109.641 91.0403H43.4112C42.9285 91.0403 42.4995 90.7695 42.4995 90.3826V89.4155C42.4995 89.0673 42.8749 88.7578 43.4112 88.7578H109.588C110.071 88.7578 110.5 89.0286 110.5 89.4155V90.3826C110.5 90.7695 110.124 91.0403 109.641 91.0403Z" fill="#AAB2C5"/>
<path d="M87.0106 97.7473H43.4112C42.9285 97.7473 42.4995 97.4765 42.4995 97.0897V96.1225C42.4995 95.7743 42.8749 95.4648 43.4112 95.4648H86.9569C87.4396 95.4648 87.8686 95.7356 87.8686 96.1225V97.0897C87.8686 97.4378 87.4932 97.7473 87.0106 97.7473Z" fill="#AAB2C5"/>
<path d="M36.6006 48.2663H30.6479C29.9507 48.2663 29.3608 47.676 29.3608 46.9783V40.9677C29.3608 40.27 29.9507 39.6797 30.6479 39.6797H36.6006C37.2978 39.6797 37.8877 40.27 37.8877 40.9677V46.9246C37.8877 47.676 37.2978 48.2663 36.6006 48.2663Z" fill="#F1F3F9"/>
<path d="M34.1873 97.7459C31.506 97.7459 29.3608 95.5992 29.3608 92.9159C29.3608 90.2326 31.506 88.0859 34.1873 88.0859C36.8687 88.0859 39.0138 90.2326 39.0138 92.9159C39.0138 95.5456 36.8687 97.7459 34.1873 97.7459Z" fill="#D6DCE8"/>
<path d="M37.0833 95.3877C36.3325 94.6364 35.6354 94.207 34.1874 94.207C32.6858 94.207 32.0423 94.69 31.2915 95.3877C31.9887 96.1927 33.0612 96.7293 34.241 96.7293C35.3136 96.7293 36.2789 96.3 36.976 95.6024C36.976 95.5487 37.0833 95.495 37.0833 95.3877C37.1369 95.3877 37.0833 95.3877 37.0833 95.3877Z" fill="white"/>
<path d="M34.187 93.2942C35.0755 93.2942 35.7958 92.5734 35.7958 91.6842C35.7958 90.795 35.0755 90.0742 34.187 90.0742C33.2984 90.0742 32.5781 90.795 32.5781 91.6842C32.5781 92.5734 33.2984 93.2942 34.187 93.2942Z" fill="white"/>
<path fill-rule="evenodd" clip-rule="evenodd" d="M36.2255 42.1214H30.8091V41.3164H36.2255V42.1214Z" fill="#AAB2C5"/>
<path fill-rule="evenodd" clip-rule="evenodd" d="M36.2255 44.2698H30.8091V43.4648H36.2255V44.2698Z" fill="#AAB2C5"/>
<path fill-rule="evenodd" clip-rule="evenodd" d="M34.5094 46.4144H30.8091V45.6094H34.5094V46.4144Z" fill="#AAB2C5"/>
</svg>
