<svg width="17" height="16" viewBox="0 0 17 16" fill="none" xmlns="http://www.w3.org/2000/svg">
<path d="M6.5 13.5001H3.5C3.36739 13.5001 3.24021 13.4474 3.14645 13.3536C3.05268 13.2599 3 13.1327 3 13.0001V10.207C3.00006 10.0745 3.05266 9.94753 3.14625 9.85383L10.8538 2.14633C10.9475 2.05263 11.0746 2 11.2072 2C11.3397 2 11.4669 2.05263 11.5606 2.14633L14.3538 4.93758C14.4474 5.03134 14.5001 5.15847 14.5001 5.29102C14.5001 5.42357 14.4474 5.5507 14.3538 5.64446L6.5 13.5001Z" stroke="white" stroke-linecap="round" stroke-linejoin="round"/>
<path d="M14 13.5H6.5" stroke="white" stroke-linecap="round" stroke-linejoin="round"/>
<path d="M9 4L12.5 7.5" stroke="white" stroke-linecap="round" stroke-linejoin="round"/>
</svg>
