<svg width="162" height="131" viewBox="0 0 162 131" fill="none" xmlns="http://www.w3.org/2000/svg">
<path d="M87.415 130C121.852 130 149.771 102.081 149.771 67.5211C149.771 32.961 121.729 5.04236 87.415 5.04236C52.978 5.04236 25.0593 32.961 25.0593 67.5211C25.0593 102.081 52.978 130 87.415 130Z" fill="#F1F3F9" stroke="#D6DCE8" stroke-width="2" stroke-miterlimit="10"/>
<path d="M145.712 26.5656C148.497 26.5656 150.754 24.3079 150.754 21.523C150.754 18.738 148.497 16.4804 145.712 16.4804C142.927 16.4804 140.669 18.738 140.669 21.523C140.669 24.3079 142.927 26.5656 145.712 26.5656Z" fill="#F1F3F9"/>
<path d="M153.09 6.88717C154.992 6.88717 156.534 5.34537 156.534 3.44346C156.534 1.54156 154.992 -0.000244141 153.09 -0.000244141C151.188 -0.000244141 149.646 1.54156 149.646 3.44346C149.646 5.34537 151.188 6.88717 153.09 6.88717Z" fill="#F1F3F9"/>
<path d="M28.38 26.4427C30.2819 26.4427 31.8237 24.9009 31.8237 22.9989C31.8237 21.097 30.2819 19.5552 28.38 19.5552C26.4781 19.5552 24.9363 21.097 24.9363 22.9989C24.9363 24.9009 26.4781 26.4427 28.38 26.4427Z" fill="#F1F3F9"/>
<path d="M7.34846 92.8568C10.8806 92.8568 13.7439 89.9935 13.7439 86.4614C13.7439 82.9293 10.8806 80.0659 7.34846 80.0659C3.81635 80.0659 0.953003 82.9293 0.953003 86.4614C0.953003 89.9935 3.81635 92.8568 7.34846 92.8568Z" fill="#F1F3F9"/>
<path d="M129.845 36.2816L130.829 115.487C130.829 118.193 128.615 120.284 125.909 120.284H48.672C45.9663 120.284 43.7524 118.07 43.7524 115.487V13.6516C43.7524 10.9458 45.9663 8.85498 48.672 8.85498H104.632L129.845 36.2816Z" fill="white" stroke="#D6DCE8" stroke-width="2" stroke-miterlimit="10"/>
<path d="M93.8093 25.4587H56.7894C55.9285 25.4587 55.1906 24.7207 55.1906 23.8598C55.1906 22.9989 55.9285 22.2609 56.7894 22.2609H93.8093C94.6702 22.2609 95.4082 22.9989 95.4082 23.8598C95.4082 24.7207 94.6702 25.4587 93.8093 25.4587Z" fill="#D6DCE8"/>
<path d="M71.0562 34.314H56.7894C55.9285 34.314 55.1906 33.5761 55.1906 32.7152C55.1906 31.8542 55.9285 31.1163 56.7894 31.1163H70.9332C71.7941 31.1163 72.5321 31.8542 72.5321 32.7152C72.5321 33.5761 71.7941 34.314 71.0562 34.314Z" fill="#D6DCE8"/>
<path d="M71.0562 106.27H56.7894C55.9285 106.27 55.1906 105.532 55.1906 104.671C55.1906 103.81 55.9285 103.072 56.7894 103.072H70.9332C71.7941 103.072 72.5321 103.81 72.5321 104.671C72.5321 105.532 71.7941 106.27 71.0562 106.27Z" fill="#D6DCE8"/>
<path d="M104.632 8.85498V30.7471C104.632 33.8219 107.338 36.2816 110.413 36.2816H129.845" fill="#D6DCE8"/>
<rect x="55.8284" y="45.8538" width="62.648" height="48.6156" rx="2.25" stroke="#D6DCE8" stroke-width="1.5"/>
<path d="M55.5797 57.6328H118.224" stroke="#D6DCE8" stroke-width="1.5"/>
<path d="M55.5797 70.1614H118.224" stroke="#D6DCE8" stroke-width="1.5"/>
<path d="M55.5797 82.6907H118.224" stroke="#D6DCE8" stroke-width="1.5"/>
<path d="M96.1727 45.1038L96.1727 94.7182" stroke="#D6DCE8" stroke-width="1.5"/>
<path d="M61.0908 51.1177H85.1463" stroke="#D6DCE8" stroke-width="2" stroke-linecap="round"/>
<path d="M101.184 51.1177H107.198" stroke="#D6DCE8" stroke-width="2" stroke-linecap="round"/>
<path d="M61.0908 63.1453H85.1463" stroke="#D6DCE8" stroke-width="2" stroke-linecap="round"/>
<path d="M101.184 63.1453H107.198" stroke="#D6DCE8" stroke-width="2" stroke-linecap="round"/>
<path d="M61.0908 76.1753H85.1463" stroke="#D6DCE8" stroke-width="2" stroke-linecap="round"/>
<path d="M101.184 76.1753H107.198" stroke="#D6DCE8" stroke-width="2" stroke-linecap="round"/>
<path d="M61.0908 88.2031H85.1463" stroke="#D6DCE8" stroke-width="2" stroke-linecap="round"/>
<path d="M101.184 88.2031H107.198" stroke="#D6DCE8" stroke-width="2" stroke-linecap="round"/>
<path d="M161.047 65.5787V115.155C161.047 117.668 158.992 119.678 156.481 119.678H118.538C116.027 119.678 113.972 117.622 113.972 115.155V65.5787C113.972 63.0657 116.027 61.0095 118.538 61.0095H156.527C158.992 61.0095 161.047 63.0657 161.047 65.5787Z" fill="#F1F3F9" stroke="#AAB2C5" stroke-width="1.78995" stroke-miterlimit="10" stroke-linejoin="round"/>
<path d="M161.047 65.5787V77.9802C161.047 78.4745 160.646 78.8752 160.152 78.8752H114.867C114.373 78.8752 113.972 78.4745 113.972 77.9802V65.5787C113.972 63.0657 116.027 61.0095 118.538 61.0095H156.527C158.992 61.0095 161.047 63.0657 161.047 65.5787Z" fill="#D6DCE8" stroke="#AAB2C5" stroke-width="1.78995" stroke-miterlimit="10" stroke-linejoin="round"/>
<path d="M124.338 87.6936H119.269C118.539 87.6936 117.945 87.0996 117.945 86.3686V84.084C117.945 83.3529 118.539 82.7589 119.269 82.7589H124.338C125.068 82.7589 125.662 83.3529 125.662 84.084V86.3686C125.662 87.0996 125.068 87.6936 124.338 87.6936Z" fill="#D6DCE8"/>
<path d="M134.838 87.6936H129.77C129.039 87.6936 128.446 87.0996 128.446 86.3686V84.084C128.446 83.3529 129.039 82.7589 129.77 82.7589H134.838C135.569 82.7589 136.162 83.3529 136.162 84.084V86.3686C136.162 87.0996 135.569 87.6936 134.838 87.6936Z" fill="#D6DCE8"/>
<path d="M145.386 87.6936H140.272C139.542 87.6936 138.948 87.0996 138.948 86.3686V84.084C138.948 83.3529 139.542 82.7589 140.272 82.7589H145.34C146.071 82.7589 146.665 83.3529 146.665 84.084V86.3686C146.665 87.0996 146.071 87.6936 145.386 87.6936Z" fill="#D6DCE8"/>
<path d="M155.887 87.6936H150.819C150.088 87.6936 149.495 87.0996 149.495 86.3686V84.084C149.495 83.3529 150.088 82.7589 150.819 82.7589H155.887C156.618 82.7589 157.211 83.3529 157.211 84.084V86.3686C157.166 87.0996 156.618 87.6936 155.887 87.6936Z" fill="#D6DCE8"/>
<path d="M124.338 95.9641H119.269C118.539 95.9641 117.945 95.3701 117.945 94.639V92.3544C117.945 91.6234 118.539 91.0294 119.269 91.0294H124.338C125.068 91.0294 125.662 91.6234 125.662 92.3544V94.639C125.662 95.3701 125.068 95.9641 124.338 95.9641Z" fill="#D6DCE8"/>
<path d="M134.838 95.9641H129.77C129.039 95.9641 128.446 95.3701 128.446 94.639V92.3544C128.446 91.6234 129.039 91.0294 129.77 91.0294H134.838C135.569 91.0294 136.162 91.6234 136.162 92.3544V94.639C136.162 95.3701 135.569 95.9641 134.838 95.9641Z" fill="#D6DCE8"/>
<path d="M145.386 95.9641H140.272C139.542 95.9641 138.948 95.3701 138.948 94.639V92.3544C138.948 91.6234 139.542 91.0294 140.272 91.0294H145.34C146.071 91.0294 146.665 91.6234 146.665 92.3544V94.639C146.665 95.3701 146.071 95.9641 145.386 95.9641Z" fill="#D6DCE8"/>
<path d="M155.887 95.9641H150.819C150.088 95.9641 149.495 95.3701 149.495 94.639V92.3544C149.495 91.6234 150.088 91.0294 150.819 91.0294H155.887C156.618 91.0294 157.211 91.6234 157.211 92.3544V94.639C157.166 95.3701 156.618 95.9641 155.887 95.9641Z" fill="#D6DCE8"/>
<path d="M124.338 104.189H119.269C118.539 104.189 117.945 103.595 117.945 102.864V100.579C117.945 99.8479 118.539 99.2539 119.269 99.2539H124.338C125.068 99.2539 125.662 99.8479 125.662 100.579V102.864C125.662 103.64 125.068 104.189 124.338 104.189Z" fill="#D6DCE8"/>
<path d="M134.838 104.189H129.77C129.039 104.189 128.446 103.595 128.446 102.864V100.579C128.446 99.8479 129.039 99.2539 129.77 99.2539H134.838C135.569 99.2539 136.162 99.8479 136.162 100.579V102.864C136.162 103.64 135.569 104.189 134.838 104.189Z" fill="#D6DCE8"/>
<path d="M145.386 104.189H140.272C139.542 104.189 138.948 103.595 138.948 102.864V100.579C138.948 99.8479 139.542 99.2539 140.272 99.2539H145.34C146.071 99.2539 146.665 99.8479 146.665 100.579V102.864C146.665 103.64 146.071 104.189 145.386 104.189Z" fill="#D6DCE8"/>
<path d="M157.166 100.625V111.18C157.166 111.911 156.572 112.505 155.887 112.505H150.819C150.088 112.505 149.495 111.911 149.495 111.18V100.625C149.495 99.8936 150.088 99.2996 150.819 99.2996H155.887C156.618 99.2996 157.166 99.8936 157.166 100.625Z" fill="#D6DCE8"/>
<path d="M124.338 112.459H119.269C118.539 112.459 117.945 111.865 117.945 111.134V108.849C117.945 108.118 118.539 107.524 119.269 107.524H124.338C125.068 107.524 125.662 108.118 125.662 108.849V111.134C125.662 111.911 125.068 112.459 124.338 112.459Z" fill="#D6DCE8"/>
<path d="M134.838 112.459H129.77C129.039 112.459 128.446 111.865 128.446 111.134V108.849C128.446 108.118 129.039 107.524 129.77 107.524H134.838C135.569 107.524 136.162 108.118 136.162 108.849V111.134C136.162 111.911 135.569 112.459 134.838 112.459Z" fill="#D6DCE8"/>
<path d="M145.386 112.459H140.272C139.542 112.459 138.948 111.865 138.948 111.134V108.849C138.948 108.118 139.542 107.524 140.272 107.524H145.34C146.071 107.524 146.665 108.118 146.665 108.849V111.134C146.665 111.911 146.071 112.459 145.386 112.459Z" fill="#D6DCE8"/>
<path d="M155.021 74.58H120.137C118.95 74.58 117.945 73.6205 117.945 72.3868V67.2236C117.945 66.0356 118.904 65.0304 120.137 65.0304H155.021C156.208 65.0304 157.212 65.9899 157.212 67.2236V72.3868C157.167 73.5748 156.208 74.58 155.021 74.58Z" fill="white" stroke="#AAB2C5" stroke-width="1.78995" stroke-miterlimit="10" stroke-linejoin="round"/>
<path d="M140.09 70.8333H153.148C153.787 70.8333 154.29 70.3307 154.29 69.691C154.29 69.0513 153.787 68.5487 153.148 68.5487H140.09C139.45 68.5487 138.948 69.0513 138.948 69.691C138.994 70.3307 139.496 70.8333 140.09 70.8333Z" fill="#D6DCE8"/>
</svg>
