<svg width="72" height="72" viewBox="0 0 72 72" fill="none" xmlns="http://www.w3.org/2000/svg">
<rect width="72" height="72" rx="36" fill="#FEF4E6"/>
<path fill-rule="evenodd" clip-rule="evenodd" d="M18.0833 35.9997C18.0833 45.8948 26.1048 53.9163 35.9999 53.9163C45.895 53.9163 53.9166 45.8948 53.9166 35.9997C53.9166 26.1046 45.895 18.083 35.9999 18.083C26.1048 18.083 18.0833 26.1046 18.0833 35.9997ZM35.4697 34.3784C35.8815 34.4338 36.451 34.582 36.9344 35.0653C37.4177 35.5486 37.5659 36.1182 37.6212 36.5299C37.6671 36.871 37.6668 37.2676 37.6666 37.6008L37.6666 37.6664V44.3331C37.6666 45.2535 36.9204 45.9997 35.9999 45.9997C35.0794 45.9997 34.3333 45.2535 34.3333 44.3331V37.6664C33.4128 37.6664 32.6666 36.9202 32.6666 35.9997C32.6666 35.0793 33.4128 34.3331 34.3333 34.3331L34.3989 34.333C34.732 34.3328 35.1286 34.3326 35.4697 34.3784ZM35.9923 27.6663C35.076 27.6663 34.3331 28.4125 34.3331 29.333C34.3331 30.2535 35.076 30.9997 35.9923 30.9997H36.0072C36.9236 30.9997 37.6664 30.2535 37.6664 29.333C37.6664 28.4125 36.9236 27.6663 36.0072 27.6663H35.9923Z" fill="#E18308"/>
</svg>
