<svg width="200" height="200" viewBox="0 0 200 200" fill="none" xmlns="http://www.w3.org/2000/svg">
<path d="M82.7753 155.641C117.445 155.641 145.551 127.515 145.551 92.8205C145.551 58.1257 117.445 30 82.7753 30C48.1055 30 20 58.1257 20 92.8205C20 127.515 48.1055 155.641 82.7753 155.641Z" fill="#F1F3F9" stroke="#D6DCE8" stroke-width="2" stroke-miterlimit="10"/>
<mask id="mask0_9211_147057" style="mask-type:alpha" maskUnits="userSpaceOnUse" x="19" y="29" width="128" height="128">
<path d="M82.7753 155.641C117.445 155.641 145.551 127.515 145.551 92.8205C145.551 58.1257 117.445 30 82.7753 30C48.1055 30 20 58.1257 20 92.8205C20 127.515 48.1055 155.641 82.7753 155.641Z" fill="#F1F3F9" stroke="#D6DCE8" stroke-width="2" stroke-miterlimit="10"/>
</mask>
<g mask="url(#mask0_9211_147057)">
<rect x="72.9902" y="93.418" width="58.6325" height="38.2906" rx="5" fill="white"/>
<rect x="37.0928" y="49.1445" width="53.8462" height="33.5043" rx="5" fill="white"/>
<path d="M15.0233 49.3738L15.0284 49.3611L15.0331 49.3482C15.8187 47.2143 17.829 45.6602 20.275 45.6602H85.6289C88.7578 45.6602 91.2037 48.1068 91.2037 51.2397V68.4782V76.9C91.2037 80.033 88.7578 82.4796 85.6289 82.4796H78.9226H20.275C18.9841 82.4796 17.7515 81.9417 16.6912 81.119C15.4758 80.1191 14.7002 78.5617 14.7002 76.9V51.1081C14.7002 50.5628 14.8125 49.901 15.0233 49.3738ZM79.3612 80.4977L78.5468 81.9794H80.2375H85.6289C88.4388 81.9794 90.5738 79.6669 90.5738 77.0316V70.5836V68.6622L89.0001 69.7646C87.6223 70.7297 86.3938 71.8249 85.1845 73.035C82.9108 75.3103 80.869 77.7541 79.3612 80.4977Z" fill="#D6DCE8" stroke="#AAB2C5" stroke-width="2" stroke-miterlimit="10"/>
<path d="M57.4879 60.1865H28.2957C26.9807 60.1865 25.9287 59.1338 25.9287 57.8179C25.9287 56.5019 26.9807 55.4492 28.2957 55.4492H57.4879C58.8029 55.4492 59.8549 56.5019 59.8549 57.8179C59.8549 59.1338 58.8029 60.1865 57.4879 60.1865Z" fill="#AAB2C5"/>
<path d="M69.4541 72.8193H28.2957C26.9807 72.8193 25.9287 71.7666 25.9287 70.4507C25.9287 69.1348 26.9807 68.082 28.2957 68.082H69.3226C70.6376 68.082 71.6896 69.1348 71.6896 70.4507C71.6896 71.7666 70.6376 72.8193 69.4541 72.8193Z" fill="#AAB2C5"/>
<path d="M41.709 130.381H-23.6449C-26.7738 130.381 -29.2197 127.934 -29.2197 124.801V99.0093C-29.2197 95.8763 -26.7738 93.4297 -23.6449 93.4297H41.709C44.8379 93.4297 47.2838 95.8763 47.2838 99.0093V124.801C47.2838 127.803 44.7064 130.381 41.709 130.381Z" fill="#D6DCE8" stroke="#AAB2C5" stroke-width="2" stroke-miterlimit="10"/>
<path d="M25.4027 120.593H-15.6243C-16.9392 120.593 -17.9912 119.54 -17.9912 118.224C-17.9912 116.908 -16.9392 115.855 -15.6243 115.855H25.4027C26.7177 115.855 27.7696 116.908 27.7696 118.224C27.7696 119.54 26.7177 120.593 25.4027 120.593Z" fill="#AAB2C5"/>
<path d="M90.8591 129.581L91.1111 129.749H91.4141H125.866C128.676 129.749 130.811 127.436 130.811 124.801V99.0093C130.811 96.199 128.501 94.0615 125.866 94.0615H75.6345H74.7305L74.6395 94.9608C73.5594 105.635 77.0677 116.86 85.1838 124.982C86.9487 126.748 88.8433 128.236 90.8591 129.581ZM60.5123 93.4297H125.866C128.995 93.4297 131.441 95.8763 131.441 99.0093V124.801C131.441 127.934 128.995 130.381 125.866 130.381H60.5123C57.3834 130.381 54.9375 127.934 54.9375 124.801V99.0093C54.9375 95.8763 57.3834 93.4297 60.5123 93.4297Z" fill="#D6DCE8" stroke="#AAB2C5" stroke-width="2" stroke-miterlimit="10"/>
<path d="M131.39 128.355C130.338 130.066 128.366 131.25 126.262 131.25C127.971 130.461 129.681 129.54 131.39 128.355Z" fill="#D6DCE8"/>
<path d="M97.7262 107.827H68.5339C67.219 107.827 66.167 106.774 66.167 105.458C66.167 104.143 67.219 103.09 68.5339 103.09H97.7262C99.0412 103.09 100.093 104.143 100.093 105.458C99.9616 106.774 98.9097 107.827 97.7262 107.827Z" fill="#AAB2C5"/>
<path d="M109.561 120.593H68.5339C67.219 120.593 66.167 119.54 66.167 118.224C66.167 116.908 67.219 115.855 68.5339 115.855H109.561C110.876 115.855 111.928 116.908 111.928 118.224C111.928 119.54 110.876 120.593 109.561 120.593Z" fill="#AAB2C5"/>
</g>
<mask id="mask1_9211_147057" style="mask-type:alpha" maskUnits="userSpaceOnUse" x="71" y="83" width="73" height="55">
<path d="M71.793 89.2284L132.22 83.8438L142.391 85.0403L143.588 137.092H95.1263L75.3827 113.758L71.793 89.2284Z" fill="#D9D9D9"/>
</mask>
<g mask="url(#mask1_9211_147057)">
<rect x="70.5967" y="91.0234" width="67.0085" height="43.0769" rx="5" fill="white"/>
<path d="M90.9558 131.943L91.2072 132.11H91.5089H130.866C133.989 132.11 136.372 129.551 136.372 126.623V97.3068C136.372 94.1862 133.795 91.8196 130.866 91.8196H73.4829H72.5795L72.4881 92.7184C71.2579 104.815 75.2542 117.533 84.4942 126.733C86.5025 128.733 88.6593 130.419 90.9558 131.943ZM56.2081 90.8281H130.866C134.523 90.8281 137.376 93.6751 137.376 97.3068V126.623C137.376 130.255 134.523 133.102 130.866 133.102H56.2081C52.5503 133.102 49.6973 130.255 49.6973 126.623V97.3068C49.6973 93.6751 52.5503 90.8281 56.2081 90.8281Z" fill="#D6DCE8" stroke="#AAB2C5" stroke-width="2" stroke-miterlimit="10"/>
<path d="M98.6395 106.579H65.7154C64.2323 106.579 63.0459 105.516 63.0459 104.186C63.0459 102.857 64.2323 101.793 65.7154 101.793H98.6395C100.123 101.793 101.309 102.857 101.309 104.186C101.161 105.516 99.9742 106.579 98.6395 106.579Z" fill="#AAB2C5"/>
<path d="M112.936 120.939H65.7672C64.2554 120.939 63.0459 119.875 63.0459 118.546C63.0459 117.216 64.2554 116.152 65.7672 116.152H112.936C114.448 116.152 115.658 117.216 115.658 118.546C115.658 119.875 114.448 120.939 112.936 120.939Z" fill="#AAB2C5"/>
</g>
<path d="M177.702 154.92L157.375 134.376C155.29 132.269 152.294 131.479 149.557 132.006L144.606 127.002C158.678 109.355 157.506 83.4128 141.349 67.0834C127.797 53.3878 107.601 50.359 91.1834 58.1286C86.6229 60.2356 82.323 63.2645 78.414 67.0834C73.593 71.8242 70.2052 77.4868 68.1204 83.5445C67.078 86.4416 66.2962 89.3388 65.9053 92.3676C63.9508 105.932 68.1204 120.286 78.414 130.689C78.6746 130.952 78.8049 131.084 79.0655 131.347C87.6653 139.776 98.7407 143.858 109.946 143.858C119.849 143.858 129.752 140.566 137.83 133.981L142.782 138.985C142.261 141.751 143.042 144.78 145.127 146.887L165.324 167.43C168.711 170.854 174.184 170.854 177.572 167.43C181.09 164.006 181.09 158.344 177.702 154.92ZM134.964 124.236C133.4 125.817 131.706 127.133 130.012 128.45C128.319 129.635 126.625 130.557 124.931 131.347C115.549 135.825 104.474 135.825 95.0923 131.347C91.4439 129.636 88.0562 127.265 85.0593 124.236C76.4596 115.545 73.2021 103.561 75.2869 92.3676C75.8081 89.3388 76.7202 86.31 78.1534 83.5445C79.8473 79.9889 82.1927 76.565 85.0593 73.6679C87.0138 71.6925 89.0986 69.9806 91.3136 68.6637C97.0468 64.9764 103.562 63.2645 110.077 63.2645C119.198 63.2645 128.188 66.6884 135.094 73.6679C148.776 87.6268 148.776 110.277 134.964 124.236Z" fill="white" stroke="#AAB2C5" stroke-width="1.5" stroke-miterlimit="10"/>
</svg>
