<svg width="200" height="200" viewBox="0 0 200 200" fill="none" xmlns="http://www.w3.org/2000/svg">
<path d="M100.506 169.998C138.831 169.998 169.9 138.907 169.9 100.554C169.9 62.2007 138.831 31.1094 100.506 31.1094C62.1803 31.1094 31.1113 62.2007 31.1113 100.554C31.1113 138.907 62.1803 169.998 100.506 169.998Z" fill="#F1F3F9" stroke="#D6DCE8" stroke-width="2" stroke-miterlimit="10"/>
<path opacity="0.3" d="M162.015 63.4568V144.677C162.015 147.655 159.565 150.107 156.59 150.107H40.8406C37.8653 150.107 35.415 147.655 35.415 144.677V63.4568C35.415 60.4794 37.8653 58.0273 40.8406 58.0273H156.59C159.565 58.0273 162.015 60.4794 162.015 63.4568Z" fill="#D6DCE8"/>
<path d="M165.243 60.2263V141.447C165.243 144.424 162.793 146.876 159.817 146.876H44.0681C41.0928 146.876 38.6426 144.424 38.6426 141.447V60.2263C38.6426 57.2489 41.0928 54.7969 44.0681 54.7969H159.817C162.793 54.7969 165.243 57.2489 165.243 60.2263Z" fill="white" stroke="#D6DCE8" stroke-width="2" stroke-miterlimit="10"/>
<path d="M165.243 60.2263V64.1671H38.6426V60.2263C38.6426 57.2489 41.0928 54.7969 44.0681 54.7969H159.817C162.793 54.7969 165.243 57.2489 165.243 60.2263Z" fill="#F1F3F9" stroke="#D6DCE8" stroke-width="2" stroke-miterlimit="10"/>
<path d="M44.3306 61.191C45.2489 61.191 45.9933 60.4461 45.9933 59.5271C45.9933 58.6082 45.2489 57.8633 44.3306 57.8633C43.4124 57.8633 42.668 58.6082 42.668 59.5271C42.668 60.4461 43.4124 61.191 44.3306 61.191Z" fill="#AAB2C5"/>
<path opacity="0.6" d="M49.4937 61.191C50.412 61.191 51.1564 60.4461 51.1564 59.5271C51.1564 58.6082 50.412 57.8633 49.4937 57.8633C48.5755 57.8633 47.8311 58.6082 47.8311 59.5271C47.8311 60.4461 48.5755 61.191 49.4937 61.191Z" fill="#AAB2C5"/>
<path opacity="0.4" d="M54.7437 61.191C55.662 61.191 56.4064 60.4461 56.4064 59.5271C56.4064 58.6082 55.662 57.8633 54.7437 57.8633C53.8255 57.8633 53.0811 58.6082 53.0811 59.5271C53.0811 60.4461 53.8255 61.191 54.7437 61.191Z" fill="#AAB2C5"/>
<path d="M65.6793 78.7425H48.7752C47.9818 78.7425 47.3105 78.0708 47.3105 77.2769V73.5516C47.3105 72.7577 47.9818 72.0859 48.7752 72.0859H65.6793C66.4726 72.0859 67.1439 72.7577 67.1439 73.5516V77.2769C67.1439 78.0708 66.4726 78.7425 65.6793 78.7425Z" fill="#D6DCE8"/>
<path d="M123.837 78.7425H106.933C106.14 78.7425 105.469 78.0708 105.469 77.2769V73.5516C105.469 72.7577 106.14 72.0859 106.933 72.0859H123.837C124.631 72.0859 125.302 72.7577 125.302 73.5516V77.2769C125.363 78.0708 124.692 78.7425 123.837 78.7425Z" fill="#D6DCE8"/>
<path d="M99.3053 78.7411H73.5525C72.576 78.7411 71.7217 77.9472 71.7217 76.909V73.8555C71.7217 72.8784 72.515 72.0234 73.5525 72.0234H99.3053C100.282 72.0234 101.136 72.8173 101.136 73.8555V76.909C101.136 77.9472 100.343 78.7411 99.3053 78.7411Z" fill="#D6DCE8"/>
<path d="M153.008 78.7411H131.527C130.551 78.7411 129.696 77.9472 129.696 76.909V73.8555C129.696 72.8784 130.49 72.0234 131.527 72.0234H153.008C153.985 72.0234 154.839 72.8173 154.839 73.8555V76.909C154.839 77.9472 154.046 78.7411 153.008 78.7411Z" fill="#D6DCE8"/>
<path d="M64.9475 89.6744H49.4469C48.2264 89.6744 47.25 88.6972 47.25 87.4759C47.25 86.2545 48.2264 85.2773 49.4469 85.2773H64.9475C66.168 85.2773 67.1444 86.2545 67.1444 87.4759C67.1444 88.6972 66.168 89.6744 64.9475 89.6744Z" fill="#D6DCE8"/>
<path d="M123.166 89.6744H107.666C106.445 89.6744 105.469 88.6972 105.469 87.4759C105.469 86.2545 106.445 85.2773 107.666 85.2773H123.166C124.387 85.2773 125.363 86.2545 125.363 87.4759C125.363 88.6972 124.387 89.6744 123.166 89.6744Z" fill="#D6DCE8"/>
<path d="M98.9392 89.6744H73.9186C72.6981 89.6744 71.7217 88.6972 71.7217 87.4759C71.7217 86.2545 72.6981 85.2773 73.9186 85.2773H99.0002C100.221 85.2773 101.197 86.2545 101.197 87.4759C101.136 88.6972 100.16 89.6744 98.9392 89.6744Z" fill="#D6DCE8"/>
<path d="M49.8138 88.8188C50.5215 88.8188 51.0953 88.2447 51.0953 87.5364C51.0953 86.8281 50.5215 86.2539 49.8138 86.2539C49.106 86.2539 48.5322 86.8281 48.5322 87.5364C48.5322 88.2447 49.106 88.8188 49.8138 88.8188Z" fill="#AAB2C5"/>
<path d="M64.9475 99.3814H49.4469C48.2264 99.3814 47.25 98.4043 47.25 97.1829C47.25 95.9615 48.2264 94.9844 49.4469 94.9844H64.9475C66.168 94.9844 67.1444 95.9615 67.1444 97.1829C67.1444 98.4043 66.168 99.3814 64.9475 99.3814Z" fill="#D6DCE8"/>
<path d="M123.166 99.3814H107.666C106.445 99.3814 105.469 98.4043 105.469 97.1829C105.469 95.9615 106.445 94.9844 107.666 94.9844H123.166C124.387 94.9844 125.363 95.9615 125.363 97.1829C125.363 98.4043 124.387 99.3814 123.166 99.3814Z" fill="#D6DCE8"/>
<path d="M98.9392 99.3814H73.9186C72.6981 99.3814 71.7217 98.4043 71.7217 97.1829C71.7217 95.9615 72.6981 94.9844 73.9186 94.9844H99.0002C100.221 94.9844 101.197 95.9615 101.197 97.1829C101.136 98.4043 100.16 99.3814 98.9392 99.3814Z" fill="#D6DCE8"/>
<path d="M49.8138 98.4673C50.5215 98.4673 51.0953 97.8931 51.0953 97.1848C51.0953 96.4765 50.5215 95.9023 49.8138 95.9023C49.106 95.9023 48.5322 96.4765 48.5322 97.1848C48.5322 97.8931 49.106 98.4673 49.8138 98.4673Z" fill="#AAB2C5"/>
<path d="M64.9475 109.092H49.4469C48.2264 109.092 47.25 108.115 47.25 106.894C47.25 105.672 48.2264 104.695 49.4469 104.695H64.9475C66.168 104.695 67.1444 105.672 67.1444 106.894C67.1444 108.115 66.168 109.092 64.9475 109.092Z" fill="#D6DCE8"/>
<path d="M123.166 109.092H107.666C106.445 109.092 105.469 108.115 105.469 106.894C105.469 105.672 106.445 104.695 107.666 104.695H123.166C124.387 104.695 125.363 105.672 125.363 106.894C125.363 108.115 124.387 109.092 123.166 109.092Z" fill="#D6DCE8"/>
<path d="M98.9392 109.092H73.9186C72.6981 109.092 71.7217 108.115 71.7217 106.894C71.7217 105.672 72.6981 104.695 73.9186 104.695H99.0002C100.221 104.695 101.197 105.672 101.197 106.894C101.136 108.115 100.16 109.092 98.9392 109.092Z" fill="#D6DCE8"/>
<path d="M49.8138 108.178C50.5215 108.178 51.0953 107.604 51.0953 106.896C51.0953 106.187 50.5215 105.613 49.8138 105.613C49.106 105.613 48.5322 106.187 48.5322 106.896C48.5322 107.604 49.106 108.178 49.8138 108.178Z" fill="#AAB2C5"/>
<path d="M64.9475 118.741H49.4469C48.2264 118.741 47.25 117.764 47.25 116.542C47.25 115.321 48.2264 114.344 49.4469 114.344H64.9475C66.168 114.344 67.1444 115.321 67.1444 116.542C67.1444 117.764 66.168 118.741 64.9475 118.741Z" fill="#D6DCE8"/>
<path d="M123.166 118.741H107.666C106.445 118.741 105.469 117.764 105.469 116.542C105.469 115.321 106.445 114.344 107.666 114.344H123.166C124.387 114.344 125.363 115.321 125.363 116.542C125.363 117.764 124.387 118.741 123.166 118.741Z" fill="#D6DCE8"/>
<path d="M98.9392 118.741H73.9186C72.6981 118.741 71.7217 117.764 71.7217 116.542C71.7217 115.321 72.6981 114.344 73.9186 114.344H99.0002C100.221 114.344 101.197 115.321 101.197 116.542C101.136 117.764 100.16 118.741 98.9392 118.741Z" fill="#D6DCE8"/>
<path d="M49.8138 117.885C50.5215 117.885 51.0953 117.311 51.0953 116.603C51.0953 115.894 50.5215 115.32 49.8138 115.32C49.106 115.32 48.5322 115.894 48.5322 116.603C48.5322 117.311 49.106 117.885 49.8138 117.885Z" fill="#AAB2C5"/>
<path d="M64.9475 128.452H49.4469C48.2264 128.452 47.25 127.475 47.25 126.253C47.25 125.032 48.2264 124.055 49.4469 124.055H64.9475C66.168 124.055 67.1444 125.032 67.1444 126.253C67.1444 127.475 66.168 128.452 64.9475 128.452Z" fill="#D6DCE8"/>
<path d="M123.166 128.452H107.666C106.445 128.452 105.469 127.475 105.469 126.253C105.469 125.032 106.445 124.055 107.666 124.055H123.166C124.387 124.055 125.363 125.032 125.363 126.253C125.363 127.475 124.387 128.452 123.166 128.452Z" fill="#D6DCE8"/>
<path d="M98.9392 128.452H73.9186C72.6981 128.452 71.7217 127.475 71.7217 126.253C71.7217 125.032 72.6981 124.055 73.9186 124.055H99.0002C100.221 124.055 101.197 125.032 101.197 126.253C101.136 127.475 100.16 128.452 98.9392 128.452Z" fill="#D6DCE8"/>
<path d="M49.8138 127.538C50.5215 127.538 51.0953 126.963 51.0953 126.255C51.0953 125.547 50.5215 124.973 49.8138 124.973C49.106 124.973 48.5322 125.547 48.5322 126.255C48.5322 126.963 49.106 127.538 49.8138 127.538Z" fill="#AAB2C5"/>
<path d="M64.9475 138.163H49.4469C48.2264 138.163 47.25 137.186 47.25 135.964C47.25 134.743 48.2264 133.766 49.4469 133.766H64.9475C66.168 133.766 67.1444 134.743 67.1444 135.964C67.1444 137.186 66.168 138.163 64.9475 138.163Z" fill="#D6DCE8"/>
<path d="M123.166 138.163H107.666C106.445 138.163 105.469 137.186 105.469 135.964C105.469 134.743 106.445 133.766 107.666 133.766H123.166C124.387 133.766 125.363 134.743 125.363 135.964C125.363 137.186 124.387 138.163 123.166 138.163Z" fill="#D6DCE8"/>
<path d="M98.9392 138.163H73.9186C72.6981 138.163 71.7217 137.186 71.7217 135.964C71.7217 134.743 72.6981 133.766 73.9186 133.766H99.0002C100.221 133.766 101.197 134.743 101.197 135.964C101.136 137.186 100.16 138.163 98.9392 138.163Z" fill="#D6DCE8"/>
<path d="M49.8138 137.245C50.5215 137.245 51.0953 136.67 51.0953 135.962C51.0953 135.254 50.5215 134.68 49.8138 134.68C49.106 134.68 48.5322 135.254 48.5322 135.962C48.5322 136.67 49.106 137.245 49.8138 137.245Z" fill="#AAB2C5"/>
<path d="M152.641 89.6744H131.832C130.611 89.6744 129.635 88.6972 129.635 87.4759C129.635 86.2545 130.611 85.2773 131.832 85.2773H152.641C153.862 85.2773 154.838 86.2545 154.838 87.4759C154.838 88.6972 153.862 89.6744 152.641 89.6744Z" fill="#D6DCE8"/>
<path d="M152.641 99.3814H131.832C130.611 99.3814 129.635 98.4043 129.635 97.1829C129.635 95.9615 130.611 94.9844 131.832 94.9844H152.641C153.862 94.9844 154.838 95.9615 154.838 97.1829C154.838 98.4043 153.862 99.3814 152.641 99.3814Z" fill="#D6DCE8"/>
<path d="M152.641 109.092H131.832C130.611 109.092 129.635 108.115 129.635 106.894C129.635 105.672 130.611 104.695 131.832 104.695H152.641C153.862 104.695 154.838 105.672 154.838 106.894C154.838 108.115 153.862 109.092 152.641 109.092Z" fill="#D6DCE8"/>
<path d="M152.641 118.741H131.832C130.611 118.741 129.635 117.764 129.635 116.542C129.635 115.321 130.611 114.344 131.832 114.344H152.641C153.862 114.344 154.838 115.321 154.838 116.542C154.838 117.764 153.862 118.741 152.641 118.741Z" fill="#D6DCE8"/>
<path d="M152.641 128.452H131.832C130.611 128.452 129.635 127.475 129.635 126.253C129.635 125.032 130.611 124.055 131.832 124.055H152.641C153.862 124.055 154.838 125.032 154.838 126.253C154.838 127.475 153.862 128.452 152.641 128.452Z" fill="#D6DCE8"/>
<path d="M152.641 138.163H131.832C130.611 138.163 129.635 137.186 129.635 135.964C129.635 134.743 130.611 133.766 131.832 133.766H152.641C153.862 133.766 154.838 134.743 154.838 135.964C154.838 137.186 153.862 138.163 152.641 138.163Z" fill="#D6DCE8"/>
</svg>
