<svg width="72" height="72" viewBox="0 0 72 72" fill="none" xmlns="http://www.w3.org/2000/svg">
<rect width="72" height="72" rx="36" fill="#E6F2FB"/>
<path fill-rule="evenodd" clip-rule="evenodd" d="M18.0834 36.0026C18.0834 45.8977 26.1049 53.9193 36 53.9193C45.8951 53.9193 53.9167 45.8977 53.9167 36.0026C53.9167 26.1075 45.8951 18.0859 36 18.0859C26.1049 18.0859 18.0834 26.1075 18.0834 36.0026ZM35.4698 34.3814C35.8816 34.4367 36.4512 34.5849 36.9345 35.0682C37.4178 35.5515 37.566 36.1211 37.6213 36.5329C37.6672 36.8739 37.6669 37.2706 37.6667 37.6037L37.6667 37.6693V44.336C37.6667 45.2565 36.9205 46.0027 36 46.0027C35.0796 46.0027 34.3334 45.2565 34.3334 44.336V37.6693C33.4129 37.6693 32.6667 36.9231 32.6667 36.0027C32.6667 35.0822 33.4129 34.336 34.3334 34.336L34.399 34.336C34.7321 34.3358 35.1287 34.3355 35.4698 34.3814ZM35.9924 27.6693C35.0761 27.6693 34.3332 28.4155 34.3332 29.3359C34.3332 30.2564 35.0761 31.0026 35.9924 31.0026H36.0073C36.9237 31.0026 37.6666 30.2564 37.6666 29.3359C37.6666 28.4155 36.9237 27.6693 36.0073 27.6693H35.9924Z" fill="#0673C6"/>
</svg>
