<svg width="20" height="20" viewBox="0 0 20 20" fill="none" xmlns="http://www.w3.org/2000/svg">
<path d="M7.5 16.8751H3.75C3.58424 16.8751 3.42527 16.8093 3.30806 16.692C3.19085 16.5748 3.125 16.4159 3.125 16.2501V12.7587C3.12508 12.5932 3.19082 12.4344 3.30781 12.3173L12.9422 2.68291C13.0594 2.56579 13.2183 2.5 13.384 2.5C13.5497 2.5 13.7086 2.56579 13.8258 2.68291L17.3172 6.17198C17.4343 6.28917 17.5001 6.44808 17.5001 6.61377C17.5001 6.77946 17.4343 6.93837 17.3172 7.05557L7.5 16.8751Z" stroke="#7A869A" stroke-linecap="round" stroke-linejoin="round"/>
<path d="M16.875 16.875H7.5" stroke="#7A869A" stroke-linecap="round" stroke-linejoin="round"/>
<path d="M10.625 5L15 9.375" stroke="#7A869A" stroke-linecap="round" stroke-linejoin="round"/>
</svg>
