<svg width="72" height="72" viewBox="0 0 72 72" fill="none" xmlns="http://www.w3.org/2000/svg">
<rect width="72" height="72" rx="36" fill="#FEECEB"/>
<g clip-path="url(#clip0_1117_297326)">
<path d="M49.0728 35.7187C49.0728 38.5937 49.2395 41.4895 49.0311 44.3437C48.7603 48.1978 46.9686 51.2603 43.4791 53.1353C42.1561 53.8437 40.6874 54.1041 39.2082 54.2395C37.3853 54.4062 35.5728 54.3437 33.8228 53.7395C31.3749 52.9062 29.5311 51.302 28.0624 49.2187C26.4166 46.8957 25.4166 44.2708 24.6874 41.552C24.302 40.1145 23.7499 38.7395 23.1249 37.3958C22.552 36.177 22.927 34.8645 24.0416 34.2499C25.177 33.6249 26.4999 33.9895 27.2082 35.1666C28.427 37.177 29.6249 39.2083 30.8332 41.2187C30.8957 41.3333 30.9582 41.4478 31.0416 41.552C31.302 41.9166 31.7186 42.0103 32.0728 41.7916C32.4166 41.5833 32.5311 41.1562 32.3436 40.7708C32.2291 40.552 32.1041 40.3437 31.9791 40.1249C31.3853 39.1041 30.7811 38.0833 30.1978 37.0624C30.1041 36.8958 30.0416 36.677 30.0416 36.4791C30.0311 32.0624 30.052 27.6457 30.0311 23.2395C30.0207 21.8749 31.1353 21.0728 32.5207 21.4791C33.177 21.677 33.6041 22.2916 33.6145 22.9791C33.6353 26.6666 33.6457 30.3541 33.6666 34.0312C33.6666 34.177 33.6561 34.3228 33.677 34.4583C33.7291 34.8124 34.052 35.0937 34.4061 35.1041C34.7811 35.1145 35.1145 34.8333 35.1666 34.4583C35.1874 34.2916 35.1874 34.1249 35.177 33.9478C35.1666 29.1249 35.177 24.3124 35.1353 19.4895C35.1249 18.2812 36.1353 17.2603 37.6666 17.7603C38.3541 17.9791 38.7499 18.5937 38.7499 19.3541C38.7603 20.9062 38.7499 22.4582 38.7499 23.9999C38.7499 27.5416 38.7499 31.0833 38.7499 34.6249C38.7499 34.802 38.7603 34.9895 38.8124 35.1666C38.9166 35.4999 39.1666 35.677 39.5103 35.677C39.8645 35.677 40.1145 35.5103 40.2186 35.177C40.2707 35.0103 40.2811 34.8228 40.2811 34.6353C40.2811 30.5728 40.2811 26.5103 40.2811 22.4478C40.2811 21.5416 40.9061 20.8437 41.7811 20.7499C42.8332 20.6353 43.6353 21.1457 43.8332 22.052C43.8749 22.2499 43.8749 22.4687 43.8749 22.677C43.8749 27.0416 43.8749 31.4062 43.8749 35.7603C43.8749 35.9062 43.8645 36.052 43.8853 36.1874C43.9374 36.5624 44.2291 36.8333 44.5936 36.8437C44.9895 36.8645 45.302 36.6353 45.3749 36.2395C45.4061 36.0728 45.4061 35.9062 45.4061 35.7395C45.4166 32.8645 45.4166 29.9791 45.427 27.1041C45.427 26.1249 46.0103 25.4166 46.927 25.2395C47.9374 25.0416 48.9374 25.7916 49.0207 26.8332C49.0416 27.0937 49.0416 27.3541 49.0416 27.6145C49.0416 30.3124 49.0416 33.0103 49.0416 35.6978C49.0311 35.7187 49.052 35.7187 49.0728 35.7187Z" fill="#DA3E33"/>
</g>
<defs>
<clipPath id="clip0_1117_297326">
<rect width="40" height="40" fill="white" transform="translate(16 16)"/>
</clipPath>
</defs>
</svg>
