<svg width="72" height="72" viewBox="0 0 72 72" fill="none" xmlns="http://www.w3.org/2000/svg">
<rect width="72" height="72" rx="36" fill="#FEF4E6"/>
<g clip-path="url(#clip0_1117_297339)">
<path d="M36.0415 29.1914C36.9043 29.285 37.7151 29.3578 38.5155 29.4825C44.8669 30.4596 49.0249 34.0251 50.9895 40.1374C51.9251 43.0376 52.1954 46.0314 52.2265 49.0459C52.2265 49.6488 51.9043 50.1062 51.3949 50.2933C50.8648 50.4804 50.345 50.3245 49.95 49.8255C48.9001 48.5054 47.8087 47.2164 46.4989 46.1353C44.607 44.5657 42.4136 43.6925 40.0124 43.3079C38.7234 43.1 37.4136 43.0064 36.0415 42.8505C36.0415 43.0688 36.0415 43.2143 36.0415 43.3495C36.0415 45.2206 36.0311 47.0917 36.0415 48.9628C36.0415 49.5449 35.8544 50.0127 35.3035 50.2621C34.7317 50.522 34.2536 50.3349 33.817 49.9191C29.3263 45.6156 24.8357 41.3328 20.345 37.0397C19.7006 36.416 19.6902 35.6883 20.3346 35.0646C24.8357 30.7611 29.3367 26.468 33.8378 22.1748C34.264 21.7694 34.7421 21.6135 35.2931 21.8422C35.844 22.0813 36.0519 22.5386 36.0415 23.1312C36.0311 25.0023 36.0415 26.8734 36.0415 28.7445C36.0415 28.89 36.0415 29.0355 36.0415 29.1914Z" fill="#E18308"/>
</g>
<defs>
<clipPath id="clip0_1117_297339">
<rect width="40" height="40" fill="white" transform="translate(16 16)"/>
</clipPath>
</defs>
</svg>
