<svg width="16" height="16" viewBox="0 0 16 16" fill="none" xmlns="http://www.w3.org/2000/svg">
<path d="M6.75 9.25L10 6" stroke="white" stroke-linecap="round" stroke-linejoin="round"/>
<path d="M13.9806 2.63562C14.0047 2.55009 14.0056 2.45968 13.9831 2.3737C13.9607 2.28772 13.9157 2.20928 13.8529 2.14645C13.79 2.08361 13.7116 2.03866 13.6256 2.01621C13.5396 1.99377 13.4492 1.99464 13.3637 2.01874L1.36371 5.65749C1.26574 5.68514 1.17854 5.74204 1.11377 5.82057C1.049 5.89911 1.00975 5.99554 1.00126 6.09698C0.992762 6.19842 1.01543 6.30004 1.06624 6.38825C1.11705 6.47646 1.19357 6.54706 1.28558 6.59062L6.74996 9.24937L9.4087 14.7131C9.45226 14.8051 9.52286 14.8816 9.61107 14.9325C9.69928 14.9833 9.8009 15.0059 9.90234 14.9974C10.0038 14.989 10.1002 14.9497 10.1788 14.8849C10.2573 14.8202 10.3142 14.733 10.3418 14.635L13.9806 2.63562Z" stroke="white" stroke-linecap="round" stroke-linejoin="round"/>
</svg>
