<svg width="15" height="15" viewBox="0 0 15 15" fill="none" xmlns="http://www.w3.org/2000/svg">
<path d="M14.2074 0.792666C14.0817 0.666999 13.9247 0.577125 13.7527 0.532304C13.5807 0.487483 13.3998 0.489334 13.2287 0.537666H13.2193L1.22307 4.17767C1.02832 4.23379 0.85522 4.34777 0.726711 4.5045C0.598201 4.66123 0.52035 4.85331 0.503473 5.05529C0.486597 5.25727 0.531492 5.4596 0.632209 5.63549C0.732927 5.81137 0.884711 5.9525 1.06745 6.04017L6.37495 8.62517L8.9562 13.9295C9.03648 14.1009 9.16413 14.2456 9.32405 14.3468C9.48397 14.4479 9.66949 14.5011 9.8587 14.5002C9.88745 14.5002 9.9162 14.4989 9.94495 14.4964C10.1468 14.4801 10.3388 14.4024 10.4952 14.2738C10.6516 14.1452 10.7649 13.9719 10.8199 13.777L14.4574 1.78079C14.4574 1.77767 14.4574 1.77454 14.4574 1.77142C14.5064 1.60077 14.5091 1.42016 14.4651 1.24815C14.4212 1.07614 14.3322 0.918931 14.2074 0.792666ZM9.86432 13.4908L9.8612 13.4995V13.4952L7.35745 8.35142L10.3574 5.35142C10.4473 5.25689 10.4966 5.13101 10.4949 5.00063C10.4932 4.87025 10.4407 4.74568 10.3485 4.65348C10.2563 4.56128 10.1317 4.50874 10.0014 4.50707C9.87098 4.5054 9.7451 4.55473 9.65057 4.64454L6.65057 7.64454L1.50495 5.14079H1.50057H1.50932L13.4999 1.50017L9.86432 13.4908Z" fill="#DD502E"/>
</svg>
