<svg width="72" height="72" viewBox="0 0 72 72" fill="none" xmlns="http://www.w3.org/2000/svg">
<rect width="72" height="72" rx="36" fill="#FEECEB"/>
<path fill-rule="evenodd" clip-rule="evenodd" d="M48.6375 42.0934L48.6374 42.0935V42.0935C48.5096 44.1821 48.4082 45.8395 48.2003 47.1634C47.987 48.5212 47.6457 49.6519 46.9629 50.6409C46.3382 51.5457 45.534 52.3093 44.6013 52.8832C43.5819 53.5105 42.4434 53.7848 41.0885 53.916L30.879 53.9158C29.5225 53.7843 28.3829 53.5095 27.3627 52.881C26.4294 52.3061 25.6249 51.5411 25.0005 50.6349C24.3179 49.6442 23.9776 48.5118 23.766 47.1522C23.5596 45.8263 23.4604 44.1665 23.3354 42.0749L22.25 23.916H49.75L48.6375 42.0933L48.6375 42.0934ZM31.8333 45.9342C31.143 45.9342 30.5833 45.3746 30.5833 44.6842L30.5833 34.6842C30.5833 33.9939 31.143 33.4342 31.8333 33.4342C32.5237 33.4342 33.0833 33.9939 33.0833 34.6842L33.0833 44.6842C33.0833 45.3746 32.5237 45.9342 31.8333 45.9342ZM41.4167 34.6842C41.4167 33.9939 40.857 33.4342 40.1667 33.4342C39.4763 33.4342 38.9167 33.9939 38.9167 34.6842V44.6842C38.9167 45.3746 39.4763 45.9342 40.1667 45.9342C40.857 45.9342 41.4167 45.3746 41.4167 44.6842V34.6842Z" fill="#DA3E33"/>
<path fill-rule="evenodd" clip-rule="evenodd" d="M38.2454 18.1376C39.1872 18.2219 40.0724 18.5093 40.8325 19.0762C41.3947 19.4955 41.7853 20.0087 42.1189 20.5646C42.4281 21.0796 42.7394 21.7218 43.0925 22.4503L43.8037 23.9175H50.9999C51.9204 23.9175 52.6666 24.6637 52.6666 25.5842C52.6666 26.5047 51.9204 27.2508 50.9999 27.2508C40.9995 27.2508 31.0002 27.2508 20.9999 27.2508C20.0794 27.2508 19.3333 26.5047 19.3333 25.5842C19.3333 24.6637 20.0794 23.9175 20.9999 23.9175H28.3495L28.9425 22.6166C29.2868 21.8613 29.59 21.196 29.8945 20.6622C30.223 20.0865 30.6119 19.5536 31.1809 19.1171C31.9504 18.5268 32.8535 18.2275 33.8164 18.1398C34.5415 18.0738 35.2723 18.0829 35.9999 18.0841C36.8512 18.0854 37.6165 18.0814 38.2454 18.1376ZM32.0129 23.9175H40.0994C39.7217 23.1385 39.4799 22.6448 39.2609 22.28C38.9405 21.7461 38.5565 21.5121 37.9485 21.4577C37.5163 21.4191 36.9531 21.4175 36.0575 21.4175C35.1394 21.4175 34.5615 21.4191 34.1187 21.4594C33.4952 21.5162 33.1064 21.7591 32.7898 22.3141C32.5823 22.6778 32.3564 23.1646 32.0129 23.9175Z" fill="#DA3E33"/>
</svg>
