<svg width="40" height="40" viewBox="0 0 40 40" fill="none" xmlns="http://www.w3.org/2000/svg">
<path d="M22.125 11.625C20.75 10.0625 18.75 9 16.5 9C12.3125 9 9 12.375 9 16.5V16.5625C9 17.8125 8.1875 18.9375 7 19.375C4.625 20.1875 3 22.4375 3 25C3 28.3125 5.6875 31 9 31H31.5H31.6875C31.6875 31 31.75 31 31.8125 31C34.6875 30.875 37 28.4375 37 25.5C37 23.25 35.625 21.3125 33.6875 20.5C32.4375 19.9375 31.6875 18.625 31.9375 17.25C31.9375 17 32 16.75 32 16.5C32 14.0625 29.9375 12 27.5 12C26.8125 12 26.1875 12.1875 25.625 12.4375C24.4375 12.9375 23 12.625 22.125 11.625ZM32 34H31.5H29H9C4 34 0 30 0 25C0 21.125 2.5 17.75 6 16.5625V16.5C6 10.75 10.6875 6 16.5 6C19.625 6 22.5 7.4375 24.4375 9.6875C25.375 9.25 26.375 9 27.5 9C31.625 9 35 12.375 35 16.5C35 16.9375 34.9375 17.3125 34.875 17.75C37.875 19.0625 40 22.0625 40 25.5C40 30.0625 36.4375 33.75 32 34ZM13.9375 19.9375H13.875L18.875 14.9375C19.5 14.375 20.4375 14.375 21 14.9375L26 19.9375C26.625 20.5625 26.625 21.5 26 22.0625C25.4375 22.6875 24.5 22.6875 23.875 22.0625L21.4375 19.625V28C21.4375 28.875 20.8125 29.5 19.9375 29.5C19.125 29.5 18.4375 28.875 18.4375 28V19.625L16 22.0625C15.4375 22.6875 14.5 22.6875 13.9375 22.0625C13.3125 21.5 13.3125 20.5625 13.9375 19.9375Z" fill="#DD502E"/>
</svg>
