<svg width="24" height="24" viewBox="0 0 24 24" fill="none" xmlns="http://www.w3.org/2000/svg">
<g clip-path="url(#clip0_10150_193305)">
<rect width="24" height="24" fill="#DFE1E6"/>
<path d="M12 11.75C10.7422 11.75 9.59375 11.0938 8.96484 10C8.33594 8.93359 8.33594 7.59375 8.96484 6.5C9.59375 5.43359 10.7422 4.75 12 4.75C13.2305 4.75 14.3789 5.43359 15.0078 6.5C15.6367 7.59375 15.6367 8.93359 15.0078 10C14.3789 11.0938 13.2305 11.75 12 11.75ZM10.7422 13.0625H13.2305C15.9375 13.0625 18.125 15.25 18.125 17.957C18.125 18.3945 17.7422 18.75 17.3047 18.75H6.66797C6.23047 18.75 5.875 18.3945 5.875 17.957C5.875 15.25 8.03516 13.0625 10.7422 13.0625Z" fill="#7A869A"/>
</g>
<path d="M0.25 12C0.25 5.51065 5.51065 0.25 12 0.25C18.4893 0.25 23.75 5.51065 23.75 12C23.75 18.4893 18.4893 23.75 12 23.75C5.51065 23.75 0.25 18.4893 0.25 12Z" stroke="#DFE1E6" stroke-width="0.5"/>
<path d="M19 3C19 1.89543 19.8954 1 21 1C22.1046 1 23 1.89543 23 3C23 4.10457 22.1046 5 21 5C19.8954 5 19 4.10457 19 3Z" fill="#F04438"/>
<defs>
<clipPath id="clip0_10150_193305">
<path d="M0 12C0 5.37258 5.37258 0 12 0C18.6274 0 24 5.37258 24 12C24 18.6274 18.6274 24 12 24C5.37258 24 0 18.6274 0 12Z" fill="white"/>
</clipPath>
</defs>
</svg>
