<svg width="16" height="16" viewBox="0 0 16 16" fill="none" xmlns="http://www.w3.org/2000/svg">
<path d="M13 8V13C13 13.1326 12.9473 13.2598 12.8536 13.3536C12.7598 13.4473 12.6326 13.5 12.5 13.5H3C2.86739 13.5 2.74021 13.4473 2.64645 13.3536C2.55268 13.2598 2.5 13.1326 2.5 13V3.5C2.5 3.36739 2.55268 3.24021 2.64645 3.14645C2.74021 3.05268 2.86739 3 3 3H8" stroke="#DD502E" stroke-linecap="round" stroke-linejoin="round"/>
<path d="M12.25 5.5C13.2165 5.5 14 4.7165 14 3.75C14 2.7835 13.2165 2 12.25 2C11.2835 2 10.5 2.7835 10.5 3.75C10.5 4.7165 11.2835 5.5 12.25 5.5Z" stroke="#DD502E" stroke-linecap="round" stroke-linejoin="round"/>
</svg>
