<svg width="24" height="24" viewBox="0 0 24 24" fill="none" xmlns="http://www.w3.org/2000/svg">
<path d="M22.2 12C22.2 17.6334 17.6334 22.2 12 22.2C6.36674 22.2 1.80005 17.6334 1.80005 12C1.80005 6.36674 6.36674 1.80005 12 1.80005C17.6334 1.80005 22.2 6.36674 22.2 12ZM4.19297 12C4.19297 16.3118 7.68832 19.8071 12 19.8071C16.3118 19.8071 19.8071 16.3118 19.8071 12C19.8071 7.68832 16.3118 4.19297 12 4.19297C7.68832 4.19297 4.19297 7.68832 4.19297 12Z" fill="#F4F5F7"/>
<path d="M16.0351 20.0485C16.3313 20.6393 16.0941 21.3656 15.4727 21.5906C14.2758 22.024 13.0049 22.2307 11.7254 22.1963C10.0459 22.151 8.40359 21.6916 6.9444 20.8589C5.4852 20.0261 4.2543 18.8458 3.36106 17.4229C2.68054 16.3388 2.21207 15.1394 1.97639 13.8884C1.85403 13.239 2.35872 12.6653 3.01802 12.6198C3.67731 12.5743 4.23952 13.0756 4.38515 13.7202C4.57902 14.5784 4.91722 15.4005 5.38801 16.1505C6.07167 17.2396 7.01377 18.143 8.13059 18.7803C9.24742 19.4177 10.5044 19.7693 11.7898 19.8039C12.675 19.8278 13.5548 19.7008 14.3923 19.4312C15.0214 19.2287 15.739 19.4577 16.0351 20.0485Z" fill="#DD502E"/>
</svg>
