<svg width="140" height="140" viewBox="0 0 140 140" fill="none" xmlns="http://www.w3.org/2000/svg">
<path d="M66.2117 118.888C93.0581 118.888 114.823 97.1661 114.823 70.2769C114.823 43.3877 93.0581 21.6658 66.2117 21.6658C39.3653 21.6658 17.6006 43.3877 17.6006 70.2769C17.6006 97.1661 39.3653 118.888 66.2117 118.888Z" fill="#F1F3F9" stroke="#D6DCE8" stroke-width="2" stroke-miterlimit="10"/>
<path d="M120.384 50.3336C122.555 50.3336 124.315 48.5736 124.315 46.4025C124.315 44.2314 122.555 42.4714 120.384 42.4714C118.213 42.4714 116.453 44.2314 116.453 46.4025C116.453 48.5736 118.213 50.3336 120.384 50.3336Z" fill="#F1F3F9"/>
<path d="M126.137 34.8969C127.619 34.8969 128.821 33.6949 128.821 32.2122C128.821 30.7295 127.619 29.5276 126.137 29.5276C124.654 29.5276 123.452 30.7295 123.452 32.2122C123.452 33.6949 124.654 34.8969 126.137 34.8969Z" fill="#F1F3F9"/>
<path d="M14.2452 53.1141C15.7279 53.1141 16.9298 51.9122 16.9298 50.4295C16.9298 48.9468 15.7279 47.7449 14.2452 47.7449C12.7625 47.7449 11.5605 48.9468 11.5605 50.4295C11.5605 51.9122 12.7625 53.1141 14.2452 53.1141Z" fill="#EAEEF9"/>
<path d="M19.2309 111.505C21.9844 111.505 24.2166 109.273 24.2166 106.519C24.2166 103.766 21.9844 101.533 19.2309 101.533C16.4773 101.533 14.2451 103.766 14.2451 106.519C14.2451 109.273 16.4773 111.505 19.2309 111.505Z" fill="#F1F3F9"/>
<path d="M111.275 50.9088H28.1476C26.3259 50.9088 24.8877 49.4706 24.8877 47.6489V28.9523C24.8877 27.1306 26.3259 25.6924 28.1476 25.6924H111.18C113.001 25.6924 114.44 27.1306 114.44 28.9523V47.6489C114.535 49.4706 113.001 50.9088 111.275 50.9088Z" fill="white" stroke="#D6DCE8" stroke-width="2" stroke-miterlimit="10"/>
<path d="M45.0226 38.2528C45.0226 40.3621 44.0638 42.2797 42.6256 43.622C41.3792 44.7726 39.6533 45.4438 37.8316 45.4438C36.0099 45.4438 34.2841 44.7726 33.0376 43.622C31.5035 42.2797 30.6406 40.3621 30.6406 38.2528C30.6406 34.3217 33.9005 31.0618 37.8316 31.0618C41.7627 31.0618 45.0226 34.3217 45.0226 38.2528Z" fill="#D6DCE8"/>
<path d="M42.6261 43.622C41.3796 44.7726 39.6538 45.4437 37.8321 45.4437C36.0104 45.4437 34.2845 44.7726 33.0381 43.622C33.6134 43.4302 34.2845 43.1426 35.1474 42.7591C35.3392 42.6632 35.531 42.4714 35.6268 42.2797C35.7227 42.1838 35.7227 41.992 35.7227 41.8962V40.0744L35.6268 39.9786C35.4351 39.7868 35.3392 39.4992 35.3392 39.2115L35.1474 39.1156C34.668 39.2115 34.7639 38.7321 34.5722 37.7733C34.5722 37.3898 34.5722 37.2939 34.7639 37.198L34.9557 37.0063C34.0928 34.9928 34.4763 33.7464 35.4351 33.267C35.1474 32.5958 35.1474 32.4041 35.1474 32.4041C35.1474 32.4041 37.065 32.6917 37.6403 32.5958C38.5032 32.4041 39.7497 32.5958 40.2291 33.7464C40.9961 34.034 41.2838 34.5134 41.3796 35.0887C41.4755 35.9516 40.9961 36.9104 40.9002 37.198C40.9961 37.2939 41.092 37.3898 40.9961 37.6774C40.9002 38.5404 40.9002 39.1156 40.4208 39.0198L40.0373 39.8827C40.0373 39.9786 40.0373 39.9786 40.0373 40.0744C40.0373 40.1703 40.0373 40.458 40.0373 41.992C40.0373 42.1838 40.1332 42.3756 40.1332 42.4714C40.2291 42.6632 40.4208 42.7591 40.5167 42.855C41.3796 43.1426 42.0508 43.4302 42.6261 43.622Z" fill="white"/>
<path d="M40.9258 37.2939C40.9258 37.0944 40.826 36.795 40.7262 36.5954V36.4956C40.3271 35.6972 39.5287 35.3979 38.7304 35.3979C36.7345 35.2981 36.5349 35.6972 35.8364 35.0985C36.0359 35.3979 36.0359 35.8968 35.7366 36.4956C35.537 36.8948 35.1378 37.0944 34.7386 37.1941C33.8405 35.0985 34.2397 33.8012 35.2376 33.3022C34.9382 32.6036 34.9382 32.4041 34.9382 32.4041C34.9382 32.4041 36.9341 32.7034 37.5328 32.6036C38.431 32.4041 39.7283 32.6036 40.2273 33.8012C41.0256 34.1005 41.325 34.5995 41.4248 35.1983C41.5246 35.8968 41.0256 36.8948 40.9258 37.2939Z" fill="#AAB2C5"/>
<path d="M40.1333 42.4714V42.8549H35.627V42.3755C35.7228 42.2796 35.7228 42.0879 35.7228 41.992V40.1703L35.627 40.0744V39.9785C35.7228 40.1703 35.8187 40.2662 36.0105 40.4579L37.4487 41.4167C37.7363 41.7044 38.2157 41.7044 38.5992 41.4167L39.9415 40.2662L40.0374 40.1703C40.0374 40.2662 40.0374 40.5538 40.0374 42.0879C39.9415 42.1838 40.0374 42.2796 40.1333 42.4714Z" fill="url(#paint0_linear_4042_12414)"/>
<path d="M68.6086 36.1432H50.1997C49.7203 36.1432 49.4326 35.7597 49.4326 35.3762V32.9792C49.4326 32.4998 49.8161 32.2122 50.1997 32.2122H68.6086C69.088 32.2122 69.3756 32.5957 69.3756 32.9792V35.3762C69.3756 35.8556 69.088 36.1432 68.6086 36.1432Z" fill="#D6DCE8"/>
<path d="M90.4692 44.2931H50.1997C49.7203 44.2931 49.4326 43.9096 49.4326 43.5261V41.1291C49.4326 40.6497 49.8161 40.3621 50.1997 40.3621H90.4692C90.9486 40.3621 91.2363 40.7456 91.2363 41.1291V43.5261C91.2363 44.0055 90.8527 44.2931 90.4692 44.2931Z" fill="#D6DCE8"/>
<path d="M111.275 113.806H28.1476C26.3259 113.806 24.8877 112.368 24.8877 110.546V91.8498C24.8877 90.028 26.3259 88.5898 28.1476 88.5898H111.18C113.001 88.5898 114.44 90.028 114.44 91.8498V110.546C114.535 112.368 113.001 113.806 111.275 113.806Z" fill="white" stroke="#D6DCE8" stroke-width="2" stroke-miterlimit="10"/>
<path d="M45.0226 101.15C45.0226 103.26 44.0638 105.177 42.6256 106.519C41.3792 107.67 39.6533 108.341 37.8316 108.341C36.0099 108.341 34.2841 107.67 33.0376 106.519C31.5035 105.177 30.6406 103.26 30.6406 101.15C30.6406 97.2191 33.9005 93.9592 37.8316 93.9592C41.7627 93.9592 45.0226 97.2191 45.0226 101.15Z" fill="#D6DCE8"/>
<path d="M42.6261 106.519C41.3796 107.67 39.6538 108.341 37.8321 108.341C36.0104 108.341 34.2845 107.67 33.0381 106.519C33.6134 106.328 34.2845 106.04 35.1474 105.657C35.3392 105.561 35.531 105.369 35.6268 105.177C35.7227 105.081 35.7227 104.889 35.7227 104.794V102.972L35.6268 102.876C35.4351 102.684 35.3392 102.397 35.3392 102.109L35.1474 102.013C34.668 102.109 34.7639 101.63 34.5722 100.671C34.5722 100.287 34.5722 100.191 34.7639 100.096L34.9557 99.9037C34.0928 97.8903 34.4763 96.6438 35.4351 96.1644C35.1474 95.4933 35.1474 95.3015 35.1474 95.3015C35.1474 95.3015 37.065 95.5892 37.6403 95.4933C38.5032 95.3015 39.7497 95.4933 40.2291 96.6438C40.9961 96.9315 41.2838 97.4109 41.3796 97.9861C41.4755 98.8491 40.9961 99.8079 40.9002 100.096C40.9961 100.191 41.092 100.287 40.9961 100.575C40.9002 101.438 40.9002 102.013 40.4208 101.917L40.0373 102.684C40.0373 102.78 40.0373 102.78 40.0373 102.876C40.0373 102.972 40.0373 103.26 40.0373 104.794C40.0373 104.985 40.1332 105.177 40.1332 105.273C40.2291 105.465 40.4208 105.561 40.5167 105.657C41.3796 106.136 42.0508 106.328 42.6261 106.519Z" fill="white"/>
<path d="M40.9258 100.191C40.9258 99.9918 40.826 99.6924 40.7262 99.4928V99.3931C40.3271 98.5947 39.5287 98.2953 38.7304 98.2953C36.7345 98.1955 36.5349 98.5947 35.8364 97.9959C36.0359 98.2953 36.0359 98.7943 35.7366 99.3931C35.537 99.7922 35.1378 99.9918 34.7386 100.092C33.8405 97.9959 34.2397 96.6986 35.2376 96.1997C34.9382 95.5011 34.9382 95.3015 34.9382 95.3015C34.9382 95.3015 36.9341 95.6009 37.5328 95.5011C38.431 95.3015 39.7283 95.5011 40.2273 96.6986C41.0256 96.998 41.325 97.497 41.4248 98.0957C41.5246 98.8941 41.0256 99.7922 40.9258 100.191Z" fill="#AAB2C5"/>
<path d="M40.1333 105.369V105.752H35.627V105.273C35.7228 105.177 35.7228 104.985 35.7228 104.889V103.068L35.627 102.972V102.876C35.7228 103.068 35.8187 103.164 36.0105 103.355L37.4487 104.314C37.7363 104.602 38.2157 104.602 38.5992 104.314L39.9415 103.164L40.0374 103.068C40.0374 103.164 40.0374 103.451 40.0374 104.985C39.9415 105.081 40.0374 105.273 40.1333 105.369Z" fill="url(#paint1_linear_4042_12414)"/>
<path d="M68.6086 99.1366H50.1997C49.7203 99.1366 49.4326 98.7531 49.4326 98.3696V95.9726C49.4326 95.4932 49.8161 95.2056 50.1997 95.2056H68.6086C69.088 95.2056 69.3756 95.5891 69.3756 95.9726V98.3696C69.3756 98.7531 69.088 99.1366 68.6086 99.1366Z" fill="#D6DCE8"/>
<path d="M90.4692 107.287H50.1997C49.7203 107.287 49.4326 106.903 49.4326 106.52V104.123C49.4326 103.643 49.8161 103.355 50.1997 103.355H90.4692C90.9486 103.355 91.2363 103.739 91.2363 104.123V106.52C91.2363 106.903 90.8527 107.287 90.4692 107.287Z" fill="#D6DCE8"/>
<path d="M97.1806 82.3575H14.1486C12.3269 82.3575 10.8887 80.9193 10.8887 79.0976V60.401C10.8887 58.5793 12.3269 57.1411 14.1486 57.1411H97.1806C99.0023 57.1411 100.441 58.5793 100.441 60.401V79.0976C100.536 80.9193 99.0023 82.3575 97.1806 82.3575Z" fill="white" stroke="#D6DCE8" stroke-width="2" stroke-miterlimit="10"/>
<path d="M54.6096 67.592H36.2006C35.7212 67.592 35.4336 67.2084 35.4336 66.8249V64.4279C35.4336 63.9485 35.8171 63.6609 36.2006 63.6609H54.6096C55.089 63.6609 55.3766 64.0444 55.3766 64.4279V66.8249C55.3766 67.3043 55.089 67.592 54.6096 67.592Z" fill="#D6DCE8"/>
<path d="M76.4702 75.8376H36.2006C35.7212 75.8376 35.4336 75.4541 35.4336 75.0705V72.6735C35.4336 72.1941 35.8171 71.9065 36.2006 71.9065H76.3743C76.8537 71.9065 77.1414 72.29 77.1414 72.6735V75.0705C77.2372 75.4541 76.8537 75.8376 76.4702 75.8376Z" fill="#D6DCE8"/>
<path d="M31.1195 69.7015C31.1195 71.715 30.2565 73.5367 28.9142 74.879C28.8183 74.9749 28.8183 74.9749 28.7225 75.0708C27.476 76.2213 25.7502 76.8925 23.9285 76.8925C22.1068 76.8925 20.4768 76.2213 19.2304 75.1666C19.2304 75.1666 19.2304 75.1666 19.1345 75.1666C17.6004 73.8243 16.6416 71.9067 16.6416 69.7015C16.6416 65.7704 19.9015 62.5105 23.8326 62.5105C27.8596 62.5105 31.1195 65.7704 31.1195 69.7015Z" fill="#D6DCE8"/>
<path d="M28.8858 75.0249C28.5941 74.3443 28.108 73.7609 27.3301 73.372C26.9412 73.1775 26.6495 73.0803 26.1633 73.0803H25.8716C25.191 73.0803 25.0938 72.9831 25.0938 72.9831V71.8163C25.8716 71.2329 26.455 70.4551 26.6495 69.58C27.1357 69.4827 27.4273 69.0938 27.3301 68.6077C27.3301 68.4132 27.1357 68.2187 27.1357 68.0243C27.1357 67.927 27.1357 67.8298 27.1357 67.7326C27.1357 67.6353 27.1357 67.6353 27.1357 67.5381C27.1357 67.4409 27.1357 67.4409 27.1357 67.3436C27.1357 66.9547 27.0384 66.663 26.7467 66.2741C26.1633 65.2045 24.9966 64.5239 23.7325 64.5239C23.4409 64.5239 23.2464 64.5239 22.9547 64.6212C22.4685 64.7184 22.0796 64.9129 21.6907 65.2045C21.5935 65.3018 21.5935 65.3018 21.4962 65.399C21.4962 65.399 21.4962 65.399 21.399 65.4962C21.0101 65.8852 20.7184 66.3713 20.5239 66.8575C20.3294 67.3436 20.3294 67.927 20.3294 68.5104C20.3294 68.5104 20.3294 68.5104 20.3294 68.6077C20.3294 68.7049 20.3294 68.7049 20.3294 68.8021C20.3294 68.8021 20.3294 68.8993 20.2322 68.8993C20.4267 68.7049 20.3294 68.9966 20.4267 69.191C20.6211 69.6772 20.9128 69.58 21.3018 69.8717C21.3018 69.8717 21.3018 69.8717 21.2045 69.8717L20.8156 69.9689C18.6765 70.6495 18.482 72.8858 20.6211 73.372C20.4267 73.4692 20.3294 73.5665 20.2322 73.5665C19.6488 74.0526 19.2599 74.636 19.0654 75.2194C20.3294 76.2889 21.9824 76.9696 23.8298 76.9696C25.6772 76.9696 27.4273 76.2889 28.6914 75.1222C28.7886 75.2194 28.8858 75.1222 28.8858 75.0249C28.9831 75.0249 28.9831 75.0249 28.8858 75.0249ZM22.8575 72.6914C22.7602 72.5941 22.663 72.4969 22.663 72.4969C22.5658 72.3997 22.4685 72.3997 22.3713 72.3025C22.3713 72.3025 22.2741 72.3025 22.2741 72.2052C21.9824 72.0108 21.6907 71.8163 21.5935 71.5246C21.5935 71.4274 21.6907 71.2329 21.8851 71.0384C21.9824 71.1357 22.0796 71.2329 22.1768 71.4274C22.2741 71.5246 22.3713 71.6218 22.4685 71.7191C22.5658 71.7191 22.663 71.8163 22.663 71.9135C22.663 71.9135 22.663 71.9135 22.7602 71.9135C22.7602 71.9135 22.7602 71.9135 22.8575 71.9135V72.6914Z" fill="white"/>
<path d="M25.9897 73.0248C25.8938 73.4083 25.702 73.6959 25.702 73.6959L22.0586 73.1206L22.2504 72.1618C22.2504 72.1618 22.3462 72.1618 22.3462 72.2577C22.4421 72.3536 22.538 72.3536 22.6339 72.4495C22.7298 72.4495 22.7298 72.5454 22.8256 72.6412V71.9701C22.8256 71.9701 22.8256 71.9701 22.7298 71.9701C23.305 72.2577 24.0721 72.4495 25.1268 71.7783V72.9289C25.2226 72.9289 25.3185 73.0248 25.9897 73.0248Z" fill="url(#paint2_linear_4042_12414)"/>
<path d="M25.2323 67.6771C25.9163 67.6771 26.6004 67.5794 27.1866 67.3839C27.1866 67.3839 27.1866 67.2862 27.2844 67.1885C27.1866 66.8954 27.0889 66.5045 26.8935 66.1136C26.3072 65.0388 25.1346 64.3547 23.8643 64.3547C23.5712 64.3547 23.29 64.3756 22.8979 64.4734C22.3761 64.6328 22.1338 64.773 22.0102 64.8479C22.0102 64.8479 21.7246 65.04 21.5191 65.2342C21.3136 65.4284 20.8351 66.1136 20.6397 66.6022C20.4442 67.1885 20.2866 67.6868 20.3843 68.2731C20.482 68.2731 20.6397 68.1657 20.7374 68.1657C21.5191 67.7748 22.1054 67.2862 22.3986 66.5045C23.1803 67.1885 24.1574 67.5794 25.2323 67.6771Z" fill="#AAB2C5"/>
<path d="M21.915 71.1396C22.0109 71.2355 22.1068 71.3314 22.2027 71.4273C22.1068 71.3314 22.0109 71.2355 21.915 71.1396Z" fill="#3973F4"/>
<path d="M23.2574 74.6873C22.9698 75.0708 22.4904 75.0708 22.011 75.0708C22.4904 74.5914 22.2028 73.1532 20.6687 73.345C18.4634 72.9615 18.7511 70.6604 20.8604 69.9892L21.244 69.8933C21.244 69.8933 21.244 69.8933 21.3398 69.9892C21.5316 70.4686 21.7234 70.7562 22.011 71.1397C21.1481 71.9068 22.3945 72.0985 22.9698 72.6738C23.3533 72.8656 23.7368 74.112 23.2574 74.6873Z" fill="#AAB2C5"/>
<defs>
<linearGradient id="paint0_linear_4042_12414" x1="37.8815" y1="42.8724" x2="37.8815" y2="41.2878" gradientUnits="userSpaceOnUse">
<stop stop-color="white"/>
<stop offset="1" stop-color="#E2E5EC"/>
</linearGradient>
<linearGradient id="paint1_linear_4042_12414" x1="37.8815" y1="105.77" x2="37.8815" y2="104.185" gradientUnits="userSpaceOnUse">
<stop stop-color="white"/>
<stop offset="1" stop-color="#E2E5EC"/>
</linearGradient>
<linearGradient id="paint2_linear_4042_12414" x1="24.0253" y1="73.7076" x2="24.0253" y2="72.6512" gradientUnits="userSpaceOnUse">
<stop stop-color="white"/>
<stop offset="1" stop-color="#E2E5EC"/>
</linearGradient>
</defs>
</svg>
