<svg width="120" height="118" viewBox="0 0 120 118" fill="none" xmlns="http://www.w3.org/2000/svg">
<path d="M58.1285 96.5125C81.1239 96.5125 99.7652 78.3241 99.7652 55.8875C99.7652 33.4509 81.1239 15.2625 58.1285 15.2625C35.1332 15.2625 16.4918 33.4509 16.4918 55.8875C16.4918 78.3241 35.1332 96.5125 58.1285 96.5125Z" fill="#F1F3F9" stroke="#D6DCE8" stroke-width="2" stroke-miterlimit="10"/>
<path d="M103.337 79.9209L63.9506 102.082C61.9842 103.21 59.0346 103.323 57.3573 102.364L16.7566 79.4698C15.0794 78.5111 15.2529 76.8758 17.2193 75.748L56.6055 53.5868C58.5719 52.459 61.5215 52.3462 63.1988 53.3049L103.799 76.1992C105.477 77.1578 105.303 78.7931 103.337 79.9209Z" fill="#F1F3F9" stroke="#D6DCE8" stroke-width="2" stroke-miterlimit="10"/>
<path d="M57.5422 72.111L37.2419 83.5017C36.49 83.9528 35.3333 84.0092 34.6392 83.6145L24.518 77.9191C23.824 77.5244 23.9396 76.9041 24.6915 76.453L44.9918 65.0058C45.7437 64.5547 46.9004 64.4983 47.5945 64.8931L57.7157 70.5884C58.4097 70.9832 58.2941 71.6598 57.5422 72.111Z" fill="#D6DCE8"/>
<path d="M81.6597 86.0392L61.3594 97.43C60.6075 97.8811 59.4508 97.9375 58.7568 97.5428L39.2065 86.8107C38.5124 86.416 38.6281 85.7957 39.38 85.3446L59.6803 73.8974C60.4322 73.4463 61.5889 73.3899 62.2829 73.7847L81.8333 84.5167C82.5273 84.9114 82.4116 85.5881 81.6597 86.0392Z" fill="#D6DCE8"/>
<path opacity="0.2" d="M63.9507 98.6987L103.337 76.5375C103.347 76.5315 103.358 76.5256 103.368 76.5196L63.1989 53.8688C61.5216 52.9101 58.572 53.0229 56.6056 54.1507L17.2194 76.3119C17.2091 76.3179 17.1987 76.3238 17.1885 76.3298L57.3575 98.9807C59.0347 99.9393 61.9843 99.8265 63.9507 98.6987Z" fill="#AAB2C5"/>
<path d="M103.337 67.5151L63.9506 89.6763C61.9842 90.8041 59.0346 90.9169 57.3573 89.9583L16.7566 67.064C15.0794 66.1054 15.2529 64.4701 17.2193 63.3423L56.6055 41.1811C58.5719 40.0533 61.5215 39.9405 63.1988 40.8991L103.799 63.7934C105.477 64.752 105.303 66.3873 103.337 67.5151Z" fill="#F1F3F9" stroke="#D6DCE8" stroke-width="2" stroke-miterlimit="10"/>
<path d="M32.8351 61.7633L25.7213 65.767C25.143 66.049 24.2754 66.049 23.6971 65.767C23.1187 65.4851 23.1187 64.9776 23.6971 64.6392L30.8109 60.6355C31.3892 60.3536 32.2568 60.3536 32.8351 60.6355C33.4135 60.9175 33.3556 61.425 32.8351 61.7633Z" fill="#AAB2C5"/>
<path d="M40.0069 65.5414L32.9509 69.4887C32.4882 69.7143 31.6785 69.7143 31.3315 69.4887C30.8688 69.2632 30.8688 68.8121 31.3315 68.5865L38.3875 64.6392C38.8502 64.4136 39.6599 64.4136 40.0069 64.6392C40.4696 64.8648 40.4117 65.2595 40.0069 65.5414Z" fill="#AAB2C5"/>
<path d="M50.9377 73.8308L45.7903 76.7067C45.3854 76.9322 44.5757 76.8758 44.2287 76.7067C43.766 76.4811 43.766 76.03 44.2287 75.8044L49.3761 72.9286C49.781 72.703 50.5907 72.7594 50.9377 72.9286C51.169 73.1541 51.2847 73.6052 50.9377 73.8308Z" fill="#AAB2C5"/>
<path d="M81.3594 56.6882L74.1299 60.7483C73.6672 61.0302 72.8575 60.9739 72.5105 60.7483C72.0478 60.5227 72.1057 60.0716 72.5105 59.8461L79.74 55.786C80.2027 55.504 81.0124 55.5604 81.3594 55.786C81.7064 56.0116 81.7642 56.4627 81.3594 56.6882Z" fill="#AAB2C5"/>
<path d="M70.0816 63.0603L54.9286 71.5752C54.4659 71.8571 53.6562 71.8007 53.3092 71.5752C52.8465 71.3496 52.9043 70.8985 53.367 70.6729L68.52 62.1581C68.9827 61.8761 69.7924 61.9325 70.1394 62.1581C70.4286 62.3836 70.4864 62.8347 70.0816 63.0603Z" fill="#AAB2C5"/>
<path d="M62.2158 72.1391L52.8464 77.3834C52.3838 77.6653 51.5741 77.6089 51.227 77.3834C50.7644 77.1578 50.8222 76.7067 51.2849 76.4811L60.6543 71.2369C61.117 70.9549 61.9267 71.0113 62.2737 71.2369C62.6207 71.5188 62.6207 71.9135 62.2158 72.1391Z" fill="#AAB2C5"/>
<path d="M70.8912 67.2331L65.8017 70.109C65.339 70.3346 64.5293 70.3346 64.1823 70.109C63.7196 69.8835 63.7774 69.4324 64.1823 69.2068L69.2718 66.3309C69.7345 66.1054 70.5442 66.1054 70.8912 66.3309C71.2961 66.6129 71.2382 67.064 70.8912 67.2331Z" fill="#AAB2C5"/>
<path d="M65.339 75.5225L54.5237 81.6126C54.061 81.8945 53.2513 81.8381 52.9043 81.6126C52.4416 81.387 52.4994 80.9359 52.9621 80.7103L63.7774 74.6202C64.2401 74.3383 65.0498 74.3947 65.3968 74.6202C65.8017 74.8458 65.8595 75.1841 65.339 75.5225Z" fill="#AAB2C5"/>
<path d="M73.031 71.1804L68.8668 73.4924C68.4042 73.718 67.5945 73.718 67.2474 73.4924C66.7848 73.2668 66.8426 72.8157 67.2474 72.5902L71.4116 70.2782C71.8743 70.0526 72.684 70.0526 73.031 70.2782C73.4937 70.5037 73.5515 70.8421 73.031 71.1804Z" fill="#AAB2C5"/>
<path d="M63.199 81.3306L58.63 83.9246C58.1673 84.2065 57.3576 84.1501 57.0106 83.9246C56.5479 83.699 56.6058 83.2479 57.0684 83.0223L61.6375 80.4284C62.1002 80.1464 62.9099 80.2028 63.2569 80.4284C63.7196 80.6539 63.7774 81.0487 63.199 81.3306Z" fill="#AAB2C5"/>
<path d="M67.132 79.1314L66.2644 79.6389C65.8596 79.8645 65.0499 79.8081 64.7029 79.6389C64.2402 79.4133 64.2402 79.0186 64.645 78.7367L65.5126 78.2292C65.9174 78.0036 66.7271 78.06 67.0741 78.2292C67.5368 78.5111 67.5368 78.9058 67.132 79.1314Z" fill="#AAB2C5"/>
<path d="M43.477 73.3233L41.5684 74.3947C41.1636 74.6203 40.4117 74.5639 40.0647 74.3383C39.602 74.1128 39.602 73.718 40.0069 73.4925L41.9154 72.4211C42.3203 72.1955 43.0721 72.2519 43.4192 72.4774C43.824 72.7594 43.8818 73.1541 43.477 73.3233Z" fill="#AAB2C5"/>
<path d="M60.1916 63.9625L48.3931 70.5601C47.9304 70.8421 47.1207 70.7857 46.7737 70.5601C46.311 70.3346 46.3688 69.8835 46.7737 69.6579L58.5722 63.0039C59.0349 62.7219 59.8446 62.7783 60.1916 63.0039C60.6543 63.2858 60.6543 63.6806 60.1916 63.9625Z" fill="#AAB2C5"/>
<path d="M47.9303 65.7106L37.115 71.8007C36.6523 72.0827 35.8426 72.0263 35.4956 71.8007C35.0329 71.5752 35.0907 71.1241 35.5534 70.8985L46.3109 64.8084C46.7736 64.5264 47.5833 64.5828 47.9303 64.8084C48.4508 65.034 48.5086 65.4287 47.9303 65.7106Z" fill="#AAB2C5"/>
<path d="M62.3314 57.5905L51.574 63.6806C51.1113 63.9625 50.3016 63.9061 49.9546 63.6806C49.4919 63.455 49.5497 63.0039 50.0124 62.7783L60.8277 56.6882C61.2904 56.4063 62.1001 56.4627 62.4471 56.6882C62.852 56.9138 62.9098 57.3085 62.3314 57.5905Z" fill="#AAB2C5"/>
<path d="M70.0816 53.2485L65.9174 55.5605C65.4547 55.786 64.645 55.786 64.298 55.5605C63.8353 55.3349 63.8931 54.8838 64.298 54.6582L68.4622 52.3462C68.9248 52.1207 69.7345 52.1207 70.0816 52.3462C70.5442 52.6282 70.6021 52.9665 70.0816 53.2485Z" fill="#AAB2C5"/>
<path opacity="0.2" d="M96.2217 60.0842L63.6728 78.3984C61.7064 79.5262 58.7568 79.6389 57.0795 78.6803L24.0566 60.0591L56.6055 41.745C58.572 40.6172 61.5216 40.5044 63.1988 41.463L96.2217 60.0842Z" fill="#AAB2C5"/>
<path d="M103.059 41.8769L63.6728 64.0382C61.7064 65.166 58.7568 65.2787 57.0795 64.3201L16.4788 41.4258C14.8016 40.4672 14.9751 38.8319 16.9415 37.7041L56.3277 15.5429C58.2941 14.4151 61.2437 14.3023 62.9209 15.2609L103.522 38.1552C105.199 39.1138 105.025 40.7491 103.059 41.8769Z" fill="white" stroke="#D6DCE8" stroke-width="2" stroke-miterlimit="10"/>
<path d="M32.7304 36.2379L25.6166 40.2416C25.0382 40.5236 24.1707 40.5236 23.5923 40.2416C23.014 39.9597 23.014 39.4522 23.5923 39.1138L30.7061 35.1101C31.2845 34.8282 32.152 34.8282 32.7304 35.1101C33.3087 35.3921 33.3087 35.956 32.7304 36.2379Z" fill="#AAB2C5"/>
<path d="M45.9172 33.4748L29.7811 42.5536C29.434 42.7228 28.8557 42.7228 28.5087 42.5536C28.1617 42.3844 28.1617 42.0461 28.5087 41.8769L44.6449 32.7981C44.9919 32.629 45.5702 32.629 45.9172 32.7981C46.2643 32.9673 46.2643 33.3057 45.9172 33.4748Z" fill="#D6DCE8"/>
<path d="M66.7379 54.6211L59.2771 58.7939C58.5831 59.1886 57.4842 59.245 56.848 58.9067L34.0029 46.0498C33.3667 45.7115 33.4824 45.0912 34.1764 44.6964L41.6372 40.5236C42.3313 40.1289 43.4301 40.0725 44.0663 40.4108L66.9115 53.2677C67.4898 53.606 67.432 54.2263 66.7379 54.6211Z" fill="#D6DCE8"/>
<path d="M80.6762 32.6854L60.3759 44.0761C59.624 44.5272 58.4673 44.5836 57.7733 44.1889L47.652 38.4935C46.958 38.0988 47.0737 37.4785 47.8255 37.0274L68.1259 25.5802C68.8777 25.1291 70.0345 25.0727 70.7285 25.4675L80.8497 31.1628C81.5438 31.5576 81.4281 32.2342 80.6762 32.6854Z" fill="#D6DCE8"/>
<path d="M80.2716 47.0084L72.2903 51.5196C71.8854 51.7452 71.2492 51.8015 70.8444 51.576L63.0944 47.234C62.7474 47.0084 62.7474 46.6701 63.2101 46.4445L71.1914 41.9333C71.5963 41.7078 72.2325 41.6514 72.6373 41.8769L80.3873 46.2189C80.7343 46.4445 80.6765 46.7828 80.2716 47.0084Z" fill="#D6DCE8"/>
<path d="M93.7472 39.4522L85.7659 43.9634C85.361 44.1889 84.7248 44.2453 84.32 44.0198L76.57 39.6778C76.223 39.4522 76.223 39.1139 76.6857 38.8883L84.667 34.3771C85.0718 34.1515 85.708 34.0952 86.1129 34.3207L93.8629 38.6627C94.2099 38.8319 94.1521 39.2266 93.7472 39.4522Z" fill="#D6DCE8"/>
</svg>
