<svg width="16" height="16" viewBox="0 0 16 16" fill="none" xmlns="http://www.w3.org/2000/svg">
<path d="M6.75 9.25L10 6" stroke="white" stroke-linecap="round" stroke-linejoin="round"/>
<path d="M13.9811 2.6366C14.0052 2.55107 14.006 2.46066 13.9836 2.37468C13.9612 2.2887 13.9162 2.21026 13.8534 2.14742C13.7905 2.08459 13.7121 2.03964 13.6261 2.01719C13.5401 1.99474 13.4497 1.99562 13.3642 2.01972L1.36419 5.65847C1.26622 5.68612 1.17903 5.74301 1.11426 5.82155C1.04949 5.90008 1.01024 5.99652 1.00174 6.09796C0.993251 6.1994 1.01592 6.30102 1.06673 6.38923C1.11754 6.47744 1.19406 6.54804 1.28607 6.5916L6.75044 9.25035L9.40919 14.7141C9.45275 14.8061 9.52335 14.8826 9.61156 14.9334C9.69977 14.9842 9.80139 15.0069 9.90283 14.9984C10.0043 14.9899 10.1007 14.9507 10.1792 14.8859C10.2578 14.8211 10.3147 14.7339 10.3423 14.636L13.9811 2.6366Z" stroke="white" stroke-linecap="round" stroke-linejoin="round"/>
</svg>
