<svg width="16" height="16" viewBox="0 0 16 16" fill="currentColor" xmlns="http://www.w3.org/2000/svg">
<path d="M14 9.00015V13.0001C14 13.1328 13.9473 13.2599 13.8536 13.3537C13.7598 13.4475 13.6326 13.5001 13.5 13.5001H2.5C2.36739 13.5001 2.24021 13.4475 2.14645 13.3537C2.05268 13.2599 2 13.1328 2 13.0001V9.00015C2 8.86754 2.05268 8.74036 2.14645 8.6466C2.24021 8.55283 2.36739 8.50015 2.5 8.50015C2.63261 8.50015 2.75979 8.55283 2.85355 8.6466C2.94732 8.74036 3 8.86754 3 9.00015V12.5001H13V9.00015C13 8.86754 13.0527 8.74036 13.1464 8.6466C13.2402 8.55283 13.3674 8.50015 13.5 8.50015C13.6326 8.50015 13.7598 8.55283 13.8536 8.6466C13.9473 8.74036 14 8.86754 14 9.00015ZM5.85375 4.8539L7.5 3.20702V9.00015C7.5 9.13276 7.55268 9.25993 7.64645 9.3537C7.74021 9.44747 7.86739 9.50015 8 9.50015C8.13261 9.50015 8.25979 9.44747 8.35355 9.3537C8.44732 9.25993 8.5 9.13276 8.5 9.00015V3.20702L10.1462 4.8539C10.2401 4.94772 10.3673 5.00043 10.5 5.00043C10.6327 5.00043 10.7599 4.94772 10.8538 4.8539C10.9476 4.76008 11.0003 4.63283 11.0003 4.50015C11.0003 4.36747 10.9476 4.24022 10.8538 4.1464L8.35375 1.6464C8.30731 1.59991 8.25217 1.56303 8.19147 1.53787C8.13077 1.51271 8.06571 1.49976 8 1.49976C7.93429 1.49976 7.86923 1.51271 7.80853 1.53787C7.74783 1.56303 7.69269 1.59991 7.64625 1.6464L5.14625 4.1464C5.05243 4.24022 4.99972 4.36747 4.99972 4.50015C4.99972 4.63283 5.05243 4.76008 5.14625 4.8539C5.24007 4.94772 5.36732 5.00043 5.5 5.00043C5.63268 5.00043 5.75993 4.94772 5.85375 4.8539Z" fill="#DD502E"/>
</svg>