<svg width="41" height="40" viewBox="0 0 41 40" fill="none" xmlns="http://www.w3.org/2000/svg">
<path d="M18.0009 32.5H11.7509C10.5102 32.4985 9.28406 32.2331 8.15375 31.7215C7.02345 31.2099 6.01486 30.4638 5.19491 29.5327C4.37497 28.6016 3.76241 27.5067 3.39789 26.3208C3.03337 25.1349 2.92523 23.885 3.08063 22.654C3.23603 21.4231 3.65142 20.2393 4.29925 19.1812C4.94707 18.1231 5.81251 17.2148 6.83815 16.5167C7.86378 15.8186 9.02616 15.3465 10.2481 15.1319C11.4701 14.9173 12.7238 14.965 13.9259 15.2719" stroke="#DD502E" stroke-width="2" stroke-linecap="round" stroke-linejoin="round"/>
<path d="M19.25 25L24.25 20L29.25 25" stroke="#DD502E" stroke-width="2" stroke-linecap="round" stroke-linejoin="round"/>
<path d="M24.25 32.5V20" stroke="#DD502E" stroke-width="2" stroke-linecap="round" stroke-linejoin="round"/>
<path d="M13 20C13.0005 17.7465 13.6102 15.5351 14.7646 13.5997C15.919 11.6643 17.5751 10.077 19.5577 9.00571C21.5403 7.93443 23.7756 7.41903 26.0271 7.51405C28.2786 7.60907 30.4625 8.31097 32.3478 9.54549C34.233 10.78 35.7495 12.5012 36.7367 14.527C37.7239 16.5527 38.1451 18.8077 37.9558 21.0532C37.7665 23.2987 36.9736 25.4513 35.6611 27.2832C34.3486 29.115 32.5654 30.558 30.5 31.4594" stroke="#DD502E" stroke-width="2" stroke-linecap="round" stroke-linejoin="round"/>
</svg>
