<svg width="72" height="72" viewBox="0 0 72 72" fill="none" xmlns="http://www.w3.org/2000/svg">
  <rect width="72" height="72" rx="36" fill="#FDEEE3"/>
  <path fill-rule="evenodd" clip-rule="evenodd" d="M18.0835 36C18.0835 45.8951 26.1051 53.9167 36.0002 53.9167C45.8953 53.9167 53.9168 45.8951 53.9168 36C53.9168 26.1049 45.8953 18.0833 36.0002 18.0833C26.1051 18.0833 18.0835 26.1049 18.0835 36ZM35.47 34.3788C35.8817 34.4341 36.4513 34.5823 36.9346 35.0656C37.4179 35.549 37.5661 36.1185 37.6215 36.5303C37.6673 36.8714 37.6671 37.268 37.6669 37.6011L37.6668 37.6667V44.3334C37.6668 45.2539 36.9206 46.0001 36.0002 46.0001C35.0797 46.0001 34.3335 45.2539 34.3335 44.3334V37.6667C33.413 37.6667 32.6668 36.9205 32.6668 36.0001C32.6668 35.0796 33.413 34.3334 34.3335 34.3334L34.3991 34.3334C34.7323 34.3332 35.1289 34.3329 35.47 34.3788ZM35.9926 27.6667C35.0762 27.6667 34.3334 28.4129 34.3334 29.3333C34.3334 30.2538 35.0762 31 35.9926 31H36.0075C36.9238 31 37.6667 30.2538 37.6667 29.3333C37.6667 28.4129 36.9238 27.6667 36.0075 27.6667H35.9926Z" fill="#E18308"/>
</svg>
